<svg width="167" height="45" viewBox="0 0 167 45" fill="none" xmlns="http://www.w3.org/2000/svg">
<path d="M37.5529 45L25.5304 16.5898L17.2781 35.9524H26.0762L29.6732 45H37.5529Z" fill="#FF0C03"/>
<path d="M51.051 44.9946V0H32.1769L51.051 44.9946Z" fill="#FF0C03"/>
<path d="M0 44.9946L18.8819 0H0V44.9946Z" fill="#FF0C03"/>
<path d="M66.2576 44.7831C65.2114 44.7831 64.3096 44.5907 63.5523 44.2059C62.805 43.8125 62.227 43.2695 61.8185 42.5769C61.4199 41.8756 61.2206 41.0676 61.2206 40.1526C61.2206 39.2376 61.4199 38.4295 61.8185 37.7283C62.227 37.0271 62.805 36.4798 63.5523 36.0864C64.3096 35.6931 65.2114 35.4964 66.2576 35.4964C67.5231 35.4964 68.5594 35.7658 69.3665 36.3045C70.1736 36.8432 70.6768 37.6043 70.8761 38.5877H68.679C68.5494 38.1088 68.2754 37.7368 67.8569 37.4717C67.4484 37.1981 66.9103 37.0613 66.2427 37.0613C65.6249 37.0613 65.0918 37.1896 64.6434 37.4461C64.205 37.6941 63.8662 38.049 63.627 38.5107C63.3879 38.9639 63.2683 39.5112 63.2683 40.1526C63.2683 40.7854 63.3879 41.3326 63.627 41.7944C63.8662 42.2562 64.205 42.6111 64.6434 42.859C65.0918 43.107 65.6249 43.231 66.2427 43.231C66.9103 43.231 67.4484 43.107 67.8569 42.859C68.2655 42.6025 68.5345 42.2476 68.664 41.7944H70.8761C70.6768 42.7265 70.1736 43.4576 69.3665 43.9878C68.5594 44.518 67.5231 44.7831 66.2576 44.7831Z" fill="white"/>
<path d="M75.1252 44.7831C74.3679 44.7831 73.6953 44.6463 73.1074 44.3726C72.5294 44.0904 72.076 43.7013 71.7472 43.2054C71.4284 42.7008 71.2689 42.1194 71.2689 41.4609C71.2689 40.7854 71.4284 40.191 71.7472 39.678C72.076 39.1563 72.5294 38.7502 73.1074 38.4594C73.6853 38.1601 74.3579 38.0105 75.1252 38.0105C75.8725 38.0105 76.5251 38.1516 77.0831 38.4338C77.6412 38.716 78.0746 39.0965 78.3835 39.5754C78.6924 40.0542 78.8468 40.5972 78.8468 41.2044C78.8468 41.2899 78.8468 41.3882 78.8468 41.4994C78.8468 41.602 78.8369 41.7089 78.8169 41.8201H72.7038V40.7683H76.8141C76.7842 40.3492 76.6098 40.02 76.291 39.7806C75.9821 39.5411 75.5935 39.4214 75.1252 39.4214C74.7864 39.4214 74.4725 39.4898 74.1835 39.6267C73.8945 39.7549 73.6654 39.9559 73.496 40.2295C73.3365 40.5032 73.2568 40.8495 73.2568 41.2685V41.6405C73.2568 41.9911 73.3316 42.2989 73.481 42.564C73.6404 42.8206 73.8597 43.0215 74.1387 43.1669C74.4177 43.3037 74.7415 43.3721 75.1102 43.3721C75.4789 43.3721 75.7828 43.3037 76.0219 43.1669C76.271 43.0301 76.4554 42.8548 76.575 42.641H78.6376C78.4981 43.0429 78.2639 43.4063 77.9351 43.7313C77.6063 44.0562 77.2027 44.3128 76.7244 44.5009C76.2461 44.689 75.7131 44.7831 75.1252 44.7831Z" fill="white"/>
<path d="M79.4531 44.6292V38.1644H81.2467L81.441 39.3573C81.6204 39.0751 81.8446 38.8357 82.1136 38.639C82.3926 38.4423 82.7065 38.2884 83.0552 38.1772C83.4139 38.0661 83.8075 38.0105 84.236 38.0105V39.8447H83.5485C83.2495 39.8447 82.9705 39.8746 82.7115 39.9345C82.4623 39.9944 82.2431 40.0927 82.0538 40.2295C81.8645 40.3578 81.72 40.5374 81.6204 40.7683C81.5207 40.9991 81.4709 41.2899 81.4709 41.6405V44.6292H79.4531Z" fill="white"/>
<path d="M87.9155 44.6292C87.3874 44.6292 86.9241 44.5607 86.5255 44.4239C86.1369 44.2786 85.833 44.0434 85.6138 43.7184C85.3946 43.3849 85.285 42.9317 85.285 42.3588V39.6138H83.9995V38.1644H85.285L85.5091 36.4071H87.3027V38.1644H89.2906V39.6138H87.3027V42.3844C87.3027 42.6752 87.3775 42.8761 87.5269 42.9873C87.6764 43.0985 87.9305 43.1541 88.2892 43.1541H89.2757V44.6292H87.9155Z" fill="white"/>
<path d="M89.9874 44.6292V38.1644H92.0052V44.6292H89.9874ZM91.0038 37.2793C90.645 37.2793 90.3461 37.1896 90.107 37.01C89.8778 36.8218 89.7632 36.5867 89.7632 36.3045C89.7632 36.0223 89.8778 35.7914 90.107 35.6118C90.3461 35.4237 90.645 35.3297 91.0038 35.3297C91.3724 35.3297 91.6714 35.4237 91.9006 35.6118C92.1397 35.7914 92.2593 36.0223 92.2593 36.3045C92.2593 36.5867 92.1397 36.8218 91.9006 37.01C91.6714 37.1896 91.3724 37.2793 91.0038 37.2793Z" fill="white"/>
<path d="M93.3416 44.6292V39.6138H92.3103V38.1644H93.3416V37.5872C93.3416 37.0485 93.4462 36.6209 93.6555 36.3045C93.8647 35.9881 94.1637 35.7572 94.5523 35.6118C94.9509 35.4665 95.4142 35.3938 95.9423 35.3938H96.7644V36.8689H96.2412C95.9324 36.8689 95.7082 36.9245 95.5686 37.0356C95.4291 37.1382 95.3594 37.3178 95.3594 37.5744V38.1644H100.097V44.6292H98.0797V39.6138H95.3594V44.6292H93.3416ZM99.096 37.2922C98.7373 37.2922 98.4384 37.1981 98.1992 37.01C97.9701 36.8218 97.8555 36.5867 97.8555 36.3045C97.8555 36.0223 97.9701 35.7914 98.1992 35.6118C98.4384 35.4323 98.7373 35.3425 99.096 35.3425C99.4647 35.3425 99.7636 35.4323 99.9928 35.6118C100.232 35.7914 100.352 36.0223 100.352 36.3045C100.352 36.5867 100.232 36.8218 99.9928 37.01C99.7636 37.1981 99.4647 37.2922 99.096 37.2922Z" fill="white"/>
<path d="M104.691 44.7831C103.934 44.7831 103.261 44.6463 102.674 44.3726C102.096 44.0904 101.642 43.7013 101.313 43.2054C100.995 42.7008 100.835 42.1194 100.835 41.4609C100.835 40.7854 100.995 40.191 101.313 39.678C101.642 39.1563 102.096 38.7502 102.674 38.4594C103.251 38.1601 103.924 38.0105 104.691 38.0105C105.439 38.0105 106.091 38.1516 106.649 38.4338C107.207 38.716 107.641 39.0965 107.95 39.5754C108.259 40.0542 108.413 40.5972 108.413 41.2044C108.413 41.2899 108.413 41.3882 108.413 41.4994C108.413 41.602 108.403 41.7089 108.383 41.8201H102.27V40.7683H106.38C106.35 40.3492 106.176 40.02 105.857 39.7806C105.548 39.5411 105.16 39.4214 104.691 39.4214C104.353 39.4214 104.039 39.4898 103.75 39.6267C103.461 39.7549 103.232 39.9559 103.062 40.2295C102.903 40.5032 102.823 40.8495 102.823 41.2685V41.6405C102.823 41.9911 102.898 42.2989 103.047 42.564C103.207 42.8206 103.426 43.0215 103.705 43.1669C103.984 43.3037 104.308 43.3721 104.676 43.3721C105.045 43.3721 105.349 43.3037 105.588 43.1669C105.837 43.0301 106.022 42.8548 106.141 42.641H108.204C108.064 43.0429 107.83 43.4063 107.501 43.7313C107.172 44.0562 106.769 44.3128 106.291 44.5009C105.812 44.689 105.279 44.7831 104.691 44.7831Z" fill="white"/>
<path d="M112.367 44.7831C111.68 44.7831 111.062 44.6377 110.514 44.347C109.976 44.0562 109.552 43.6543 109.243 43.1412C108.935 42.6282 108.78 42.0509 108.78 41.4096C108.78 40.7512 108.935 40.1697 109.243 39.6651C109.562 39.1521 109.996 38.7502 110.544 38.4594C111.102 38.1601 111.725 38.0105 112.412 38.0105C112.95 38.0105 113.424 38.096 113.832 38.267C114.241 38.438 114.569 38.6817 114.819 38.9981V35.3938H116.836V44.6292H115.043L114.819 43.7441C114.669 43.9237 114.48 44.0947 114.251 44.2572C114.031 44.4196 113.767 44.5479 113.458 44.642C113.149 44.736 112.786 44.7831 112.367 44.7831ZM112.846 43.2695C113.244 43.2695 113.593 43.1925 113.892 43.0386C114.201 42.8761 114.44 42.6538 114.609 42.3716C114.779 42.0894 114.863 41.7645 114.863 41.3968C114.863 41.0291 114.779 40.7041 114.609 40.4219C114.44 40.1397 114.201 39.9217 113.892 39.7678C113.593 39.6053 113.244 39.524 112.846 39.524C112.467 39.524 112.123 39.6053 111.814 39.7678C111.505 39.9217 111.261 40.1397 111.082 40.4219C110.912 40.7041 110.828 41.0248 110.828 41.3839C110.828 41.7602 110.912 42.0894 111.082 42.3716C111.261 42.6538 111.5 42.8761 111.799 43.0386C112.108 43.1925 112.457 43.2695 112.846 43.2695Z" fill="white"/>
<path d="M120.283 44.6292V35.6503H124.199C125.046 35.6503 125.749 35.7743 126.307 36.0223C126.865 36.2703 127.278 36.6038 127.547 37.0228C127.816 37.4418 127.951 37.9207 127.951 38.4594C127.951 38.9554 127.821 39.4129 127.562 39.8319C127.303 40.2509 126.895 40.593 126.337 40.858C125.779 41.1146 125.066 41.2429 124.199 41.2429H122.301V44.6292H120.283ZM122.301 39.8447H124.08C124.727 39.8447 125.191 39.7207 125.47 39.4727C125.759 39.2162 125.903 38.8784 125.903 38.4594C125.903 38.0147 125.759 37.6727 125.47 37.4333C125.191 37.1853 124.727 37.0613 124.08 37.0613H122.301V39.8447Z" fill="white"/>
<path d="M130.418 44.7831C129.79 44.7831 129.272 44.6976 128.864 44.5265C128.455 44.347 128.151 44.1118 127.952 43.8211C127.762 43.5218 127.668 43.1925 127.668 42.8334C127.668 42.44 127.782 42.0937 128.012 41.7944C128.251 41.4951 128.604 41.26 129.073 41.0889C129.551 40.9179 130.149 40.8324 130.866 40.8324H132.735C132.735 40.516 132.685 40.2552 132.585 40.0499C132.486 39.8362 132.331 39.678 132.122 39.5754C131.913 39.4727 131.634 39.4214 131.285 39.4214C130.906 39.4214 130.582 39.4941 130.313 39.6395C130.054 39.7763 129.895 39.9901 129.835 40.2808H127.877C127.927 39.8191 128.101 39.4214 128.4 39.0879C128.709 38.7459 129.113 38.4808 129.611 38.2927C130.119 38.1045 130.682 38.0105 131.3 38.0105C132.007 38.0105 132.62 38.1131 133.138 38.3183C133.656 38.5235 134.055 38.8186 134.334 39.2034C134.613 39.5882 134.752 40.0628 134.752 40.6272V44.6292H133.049L132.824 43.6415C132.715 43.8125 132.585 43.9664 132.436 44.1033C132.286 44.2401 132.112 44.3598 131.913 44.4624C131.713 44.565 131.489 44.642 131.24 44.6933C130.991 44.7531 130.717 44.7831 130.418 44.7831ZM130.896 43.4491C131.155 43.4491 131.384 43.4106 131.584 43.3336C131.793 43.2481 131.972 43.137 132.122 43.0001C132.271 42.8548 132.386 42.6923 132.466 42.5127C132.555 42.3246 132.615 42.1236 132.645 41.9099V41.897H131.105C130.797 41.897 130.543 41.9312 130.343 41.9996C130.154 42.0595 130.014 42.1493 129.925 42.269C129.835 42.3887 129.79 42.5255 129.79 42.6795C129.79 42.8505 129.835 42.9916 129.925 43.1028C130.014 43.2139 130.144 43.2994 130.313 43.3593C130.483 43.4191 130.677 43.4491 130.896 43.4491Z" fill="white"/>
<path d="M135.589 44.6292V38.1644H137.382L137.576 39.3573C137.756 39.0751 137.98 38.8357 138.249 38.639C138.528 38.4423 138.842 38.2884 139.191 38.1772C139.549 38.0661 139.943 38.0105 140.371 38.0105V39.8447H139.684C139.385 39.8447 139.106 39.8746 138.847 39.9345C138.598 39.9944 138.379 40.0927 138.189 40.2295C138 40.3578 137.855 40.5374 137.756 40.7683C137.656 40.9991 137.606 41.2899 137.606 41.6405V44.6292H135.589Z" fill="white"/>
<path d="M144.051 44.6292C143.523 44.6292 143.06 44.5607 142.661 44.4239C142.272 44.2786 141.968 44.0434 141.749 43.7184C141.53 43.3849 141.42 42.9317 141.42 42.3588V39.6138H140.135V38.1644H141.42L141.645 36.4071H143.438V38.1644H145.426V39.6138H143.438V42.3844C143.438 42.6752 143.513 42.8761 143.662 42.9873C143.812 43.0985 144.066 43.1541 144.425 43.1541H145.411V44.6292H144.051Z" fill="white"/>
<path d="M146.078 44.6292V38.1644H147.857L148.006 39.2162C148.235 38.857 148.559 38.5663 148.978 38.344C149.406 38.1216 149.914 38.0105 150.502 38.0105C151.13 38.0105 151.658 38.1216 152.086 38.344C152.515 38.5663 152.839 38.8913 153.058 39.3188C153.287 39.7464 153.402 40.2723 153.402 40.8965V44.6292H151.399V41.0633C151.399 40.5502 151.269 40.1568 151.01 39.8832C150.761 39.6096 150.373 39.4727 149.845 39.4727C149.506 39.4727 149.202 39.5411 148.933 39.678C148.674 39.8148 148.469 40.0115 148.32 40.268C148.17 40.516 148.096 40.8196 148.096 41.1787V44.6292H146.078Z" fill="white"/>
<path d="M157.874 44.7831C157.116 44.7831 156.444 44.6463 155.856 44.3726C155.278 44.0904 154.825 43.7013 154.496 43.2054C154.177 42.7008 154.017 42.1194 154.017 41.4609C154.017 40.7854 154.177 40.191 154.496 39.678C154.825 39.1563 155.278 38.7502 155.856 38.4594C156.434 38.1601 157.106 38.0105 157.874 38.0105C158.621 38.0105 159.274 38.1516 159.832 38.4338C160.39 38.716 160.823 39.0965 161.132 39.5754C161.441 40.0542 161.595 40.5972 161.595 41.2044C161.595 41.2899 161.595 41.3882 161.595 41.4994C161.595 41.602 161.585 41.7089 161.565 41.8201H155.452V40.7683H159.563C159.533 40.3492 159.358 40.02 159.039 39.7806C158.731 39.5411 158.342 39.4214 157.874 39.4214C157.535 39.4214 157.221 39.4898 156.932 39.6267C156.643 39.7549 156.414 39.9559 156.244 40.2295C156.085 40.5032 156.005 40.8495 156.005 41.2685V41.6405C156.005 41.9911 156.08 42.2989 156.229 42.564C156.389 42.8206 156.608 43.0215 156.887 43.1669C157.166 43.3037 157.49 43.3721 157.859 43.3721C158.227 43.3721 158.531 43.3037 158.77 43.1669C159.02 43.0301 159.204 42.8548 159.323 42.641H161.386C161.247 43.0429 161.012 43.4063 160.684 43.7313C160.355 44.0562 159.951 44.3128 159.473 44.5009C158.995 44.689 158.462 44.7831 157.874 44.7831Z" fill="white"/>
<path d="M162.202 44.6292V38.1644H163.995L164.189 39.3573C164.369 39.0751 164.593 38.8357 164.862 38.639C165.141 38.4423 165.455 38.2884 165.804 38.1772C166.162 38.0661 166.556 38.0105 166.984 38.0105V39.8447H166.297C165.998 39.8447 165.719 39.8746 165.46 39.9345C165.211 39.9944 164.992 40.0927 164.802 40.2295C164.613 40.3578 164.468 40.5374 164.369 40.7683C164.269 40.9991 164.219 41.2899 164.219 41.6405V44.6292H162.202Z" fill="white"/>
<path d="M68.3615 21.7046L66.4889 27.4526C66.4374 27.644 66.2584 27.774 66.0598 27.7635H61.5421C61.2692 27.7635 61.1919 27.6082 61.2296 27.3756L69.0279 4.96659C69.2935 4.20465 69.4259 3.403 69.4195 2.59649C69.4158 2.52999 69.4381 2.46466 69.4816 2.4141C69.5251 2.36353 69.5865 2.33163 69.653 2.32504H75.8931C76.0812 2.32504 76.166 2.3642 76.2057 2.55732L85.0525 27.4151C85.1298 27.6025 85.0922 27.7635 84.8644 27.7635H79.7952C79.7029 27.7762 79.6091 27.7558 79.5305 27.706C79.452 27.6563 79.3937 27.5803 79.366 27.4917L77.3782 21.7046H68.3615ZM69.7642 16.8506H75.927L75.3338 14.9487C74.5165 12.3625 73.4283 8.99679 72.8456 6.82993H72.806C72.1829 9.43233 70.7788 13.7049 69.7642 16.8506ZM85.6735 18.2794C85.6719 12.7262 89.8431 8.06563 96.9808 8.06563C97.2916 8.06563 97.6832 8.10479 98.2686 8.14227V0.49141C98.2615 0.429821 98.2781 0.367845 98.315 0.317931C98.3519 0.268016 98.4064 0.233861 98.4676 0.222325L103.454 0.219624C103.643 0.219624 103.69 0.296265 103.69 0.451909V23.4048C103.68 24.3528 103.732 25.3003 103.846 26.2415C103.846 26.3914 103.821 26.4755 103.691 26.542L103.573 26.59C101.144 27.6182 98.5306 28.1469 95.8909 28.1444C90.1197 28.1444 85.6735 24.8826 85.6735 18.2794ZM98.2689 12.7633C97.803 12.6141 97.3136 12.5506 96.8248 12.5759C96.1201 12.5247 95.4122 12.6169 94.7445 12.847C94.0767 13.0772 93.4629 13.4403 92.9407 13.9144C92.4184 14.3885 91.9986 14.9636 91.7068 15.6045C91.415 16.2455 91.2573 16.939 91.2434 17.6426L91.2495 18.0127C91.2495 21.8578 93.4726 23.5284 96.4354 23.5284C97.0554 23.5546 97.6753 23.4759 98.2689 23.2958V12.7633ZM126.008 17.5981L126.022 18.0052C126.022 24.1037 122.045 28.142 116.422 28.142C109.753 28.142 106.79 23.1327 106.79 18.1214C106.713 16.8133 106.908 15.5035 107.364 14.2743C107.819 13.045 108.525 11.9228 109.437 10.9783C110.349 10.0337 111.447 9.28717 112.662 8.78552C113.878 8.28387 115.184 8.03797 116.499 8.06327C122.616 8.06327 125.847 12.5239 126.008 17.5981ZM112.288 18.0387C112.288 21.4564 113.887 23.631 116.499 23.631C118.758 23.631 120.477 21.6887 120.477 18.1153C120.477 15.0858 119.229 12.5624 116.266 12.5624C114.007 12.5624 112.288 14.5814 112.288 18.0387ZM129.459 0.218949L134.216 0.216923C134.528 0.216923 134.606 0.256425 134.606 0.528211V8.49036C135.46 8.2621 136.335 8.12437 137.218 8.07947L137.881 8.06293C139.08 8.00362 140.279 8.18597 141.406 8.59906C142.533 9.01215 143.564 9.64749 144.439 10.467C145.313 11.2866 146.013 12.2735 146.495 13.3686C146.978 14.4637 147.234 15.6446 147.247 16.8404L147.24 17.3074C147.24 24.5703 141.469 28.1437 135.543 28.1437C133.468 28.158 131.403 27.8571 129.42 27.2514C129.35 27.2122 129.293 27.1559 129.252 27.0879C129.211 27.0198 129.188 26.9424 129.186 26.8631V0.49141C129.186 0.304029 129.263 0.219624 129.459 0.219624M137.242 12.6408L136.908 12.6455C136.13 12.6364 135.355 12.7412 134.608 12.9568V23.4818C134.923 23.5544 135.244 23.602 135.566 23.6236L136.051 23.6371C136.821 23.6806 137.592 23.5581 138.311 23.278C139.029 22.9978 139.679 22.5666 140.215 22.0138C140.751 21.4609 141.161 20.7994 141.417 20.0743C141.673 19.3493 141.769 18.5778 141.699 17.8125C141.785 17.1746 141.735 16.5258 141.551 15.9087C141.368 15.2915 141.055 14.72 140.635 14.2316C140.214 13.7432 139.694 13.349 139.109 13.0749C138.525 12.8008 137.888 12.6526 137.242 12.6408ZM154.859 19.5188C155.048 21.7329 156.614 23.5588 160.435 23.5588C162.078 23.5892 163.71 23.285 165.231 22.6648C165.35 22.5878 165.466 22.6253 165.466 22.8521V26.5413C165.466 26.8131 165.389 26.9296 165.193 27.0083C163.51 27.7591 161.686 28.1473 159.841 28.1474L159.227 28.1329C151.897 28.1329 149.321 23.1236 149.321 18.3074C149.321 13.0813 152.473 8.29927 158.304 8.06327L158.758 8.05415C159.866 8.01368 160.97 8.20455 162 8.61449C163.03 9.02443 163.962 9.64438 164.737 10.4345C165.512 11.2246 166.112 12.1675 166.499 13.2024C166.887 14.2374 167.052 15.3416 166.986 16.4441C167.014 17.3156 166.951 18.1877 166.797 19.0461C166.791 19.1267 166.757 19.2025 166.699 19.2596C166.642 19.3167 166.566 19.3513 166.485 19.3571C165.483 19.4516 164.479 19.5045 163.473 19.5158L154.859 19.5188ZM159.929 15.7523C160.58 15.7765 161.232 15.7509 161.879 15.6756V15.4035C161.867 14.984 161.772 14.571 161.598 14.1887C161.425 13.8063 161.176 13.4622 160.868 13.1765C160.559 12.8908 160.196 12.6692 159.801 12.5246C159.405 12.3801 158.985 12.3154 158.564 12.3345C157.619 12.3196 156.705 12.6655 156.009 13.3012C155.312 13.9368 154.887 14.8139 154.82 15.7523H159.929Z" fill="#FF0C03"/>
</svg>
