<svg width="249" height="39" viewBox="0 0 249 39" fill="none" xmlns="http://www.w3.org/2000/svg">
<path fill-rule="evenodd" clip-rule="evenodd" d="M17.6204 0.169303C19.7641 -0.0564345 21.0326 -0.0564345 23.336 0.169303C27.4132 0.738094 31.1929 2.51443 34.1284 5.24144C32.1447 7.00871 30.1871 8.80177 28.2561 10.6201C24.5581 7.66603 20.4304 6.98417 15.873 8.57456C12.5298 10.0237 10.2018 12.3722 8.88895 15.6198C6.7436 14.1144 4.6262 12.574 2.5377 10.9992C2.39256 10.9271 2.22678 10.9008 2.06461 10.9239C5.38216 4.89494 10.5665 1.30914 17.6175 0.166516" fill="#F44336"/>
<path fill-rule="evenodd" clip-rule="evenodd" d="M2.05869 10.9239C2.22625 10.8998 2.38493 10.9248 2.53474 10.9992C4.62324 12.574 6.74064 14.1144 8.886 15.6198C8.5484 16.8852 8.33559 18.1773 8.25028 19.4797C8.32321 20.7393 8.53512 21.9758 8.886 23.189L2.21836 28.1915C-0.685237 22.4728 -0.73846 16.7169 2.05869 10.9239Z" fill="#FFC107"/>
<path fill-rule="evenodd" clip-rule="evenodd" d="M33.812 34.2502C31.7359 32.5245 29.5624 30.9057 27.3011 29.401C29.568 27.8923 30.9439 25.8226 31.4288 23.1918H20.32V15.9208C26.7265 15.8706 33.13 15.9217 39.5305 16.0741C40.7448 22.2888 39.3422 27.8923 35.3229 32.8846C34.845 33.3634 34.3388 33.8192 33.812 34.2502Z" fill="#448AFF"/>
<path fill-rule="evenodd" clip-rule="evenodd" d="M8.886 23.1918C11.3106 28.8715 15.7557 31.5227 22.2213 31.1456C24.0363 30.9475 25.7764 30.3499 27.3011 29.401C29.564 30.9096 31.7343 32.526 33.812 34.2502C30.52 37.0383 26.3227 38.6927 21.9049 38.9433C20.9012 39.0189 19.8926 39.0189 18.8889 38.9433C11.3628 38.1072 5.80597 34.5233 2.21836 28.1915L8.886 23.1918Z" fill="#43A047"/>
<path d="M63.0201 28.1803C61.0883 28.1803 59.4233 27.7902 58.025 27.0098C56.6452 26.2122 55.5781 25.111 54.8238 23.7064C54.0879 22.2845 53.7199 20.6458 53.7199 18.7904C53.7199 16.9349 54.0879 15.2962 54.8238 13.8743C55.5781 12.4524 56.6452 11.3426 58.025 10.5449C59.4233 9.74722 61.0883 9.34838 63.0201 9.34838C65.3567 9.34838 67.2701 9.89461 68.7603 10.9871C70.2505 12.0795 71.1796 13.6229 71.5476 15.617H67.4908C67.2516 14.6459 66.7457 13.8916 65.973 13.3541C65.2187 12.7992 64.2252 12.5217 62.9925 12.5217C61.8518 12.5217 60.8675 12.7818 60.0396 13.3021C59.2301 13.8049 58.6046 14.5246 58.163 15.461C57.7215 16.38 57.5007 17.4898 57.5007 18.7904C57.5007 20.0736 57.7215 21.1834 58.163 22.1198C58.6046 23.0562 59.2301 23.7758 60.0396 24.2787C60.8675 24.7816 61.8518 25.033 62.9925 25.033C64.2252 25.033 65.2187 24.7816 65.973 24.2787C66.7273 23.7585 67.2241 23.0388 67.4632 22.1198H71.5476C71.1796 24.0099 70.2505 25.4925 68.7603 26.5676C67.2701 27.6428 65.3567 28.1803 63.0201 28.1803Z" fill="white"/>
<path d="M79.3929 28.1803C77.9946 28.1803 76.7528 27.9029 75.6673 27.348C74.6002 26.7757 73.7631 25.9867 73.156 24.981C72.5672 23.9579 72.2729 22.7787 72.2729 21.4435C72.2729 20.0736 72.5672 18.8684 73.156 17.828C73.7631 16.7702 74.6002 15.9465 75.6673 15.3569C76.7344 14.75 77.9762 14.4465 79.3929 14.4465C80.7727 14.4465 81.9778 14.7327 83.0081 15.3049C84.0384 15.8771 84.8387 16.6488 85.409 17.6199C85.9794 18.5909 86.2645 19.6921 86.2645 20.9233C86.2645 21.0967 86.2645 21.2961 86.2645 21.5215C86.2645 21.7296 86.2461 21.9464 86.2094 22.1718H74.9222V20.0389H82.5114C82.4562 19.1892 82.1342 18.5216 81.5455 18.036C80.9751 17.5505 80.2576 17.3077 79.3929 17.3077C78.7674 17.3077 78.1878 17.4465 77.6543 17.7239C77.1207 17.984 76.6976 18.3915 76.3848 18.9464C76.0904 19.5013 75.9433 20.2036 75.9433 21.0533V21.8076C75.9433 22.5186 76.0812 23.1429 76.3572 23.6804C76.6516 24.2006 77.0563 24.6081 77.5715 24.9029C78.0866 25.1804 78.6846 25.3191 79.3653 25.3191C80.046 25.3191 80.6072 25.1804 81.0487 24.9029C81.5087 24.6255 81.849 24.27 82.0698 23.8365H85.8782C85.6206 24.6515 85.1883 25.3885 84.5811 26.0474C83.974 26.7064 83.2289 27.2266 82.3458 27.6081C81.4627 27.9896 80.4784 28.1803 79.3929 28.1803Z" fill="white"/>
<path d="M87.3839 27.8682V14.7587H90.6956L91.0544 17.1777C91.3855 16.6054 91.7995 16.1199 92.2962 15.7211C92.8114 15.3222 93.3909 15.0101 94.0348 14.7847C94.6972 14.5592 95.4239 14.4465 96.215 14.4465V18.1661H94.9455C94.3936 18.1661 93.8784 18.2268 93.4001 18.3482C92.9401 18.4696 92.5354 18.669 92.1858 18.9464C91.8363 19.2065 91.5695 19.5707 91.3855 20.0389C91.2015 20.5071 91.1095 21.0967 91.1095 21.8076V27.8682H87.3839Z" fill="white"/>
<path d="M103.009 27.8682C102.034 27.8682 101.178 27.7295 100.442 27.452C99.7248 27.1572 99.1636 26.6804 98.7589 26.0214C98.3541 25.3451 98.1517 24.4261 98.1517 23.2642V17.6979H95.7784V14.7587H98.1517L98.5657 11.1952H101.877V14.7587H105.548V17.6979H101.877V23.3163C101.877 23.9058 102.015 24.3134 102.291 24.5388C102.567 24.7642 103.036 24.8769 103.699 24.8769H105.52V27.8682H103.009Z" fill="white"/>
<path d="M106.834 27.8682V14.7587H110.56V27.8682H106.834ZM108.711 12.9639C108.049 12.9639 107.497 12.7818 107.055 12.4177C106.632 12.0362 106.42 11.5593 106.42 10.9871C106.42 10.4148 106.632 9.94664 107.055 9.58248C107.497 9.20099 108.049 9.01024 108.711 9.01024C109.392 9.01024 109.943 9.20099 110.367 9.58248C110.808 9.94664 111.029 10.4148 111.029 10.9871C111.029 11.5593 110.808 12.0362 110.367 12.4177C109.943 12.7818 109.392 12.9639 108.711 12.9639Z" fill="white"/>
<path d="M113.027 27.8682V17.6979H111.123V14.7587H113.027V13.5882C113.027 12.4957 113.221 11.6287 113.607 10.9871C113.993 10.3455 114.545 9.87727 115.263 9.58248C115.999 9.28769 116.854 9.1403 117.829 9.1403H119.347V12.1316H118.381C117.811 12.1316 117.397 12.2443 117.139 12.4697C116.882 12.6778 116.753 13.0419 116.753 13.5622V14.7587H125.501V27.8682H121.776V17.6979H116.753V27.8682H113.027ZM123.652 12.9899C122.99 12.9899 122.438 12.7992 121.996 12.4177C121.573 12.0362 121.362 11.5593 121.362 10.9871C121.362 10.4148 121.573 9.94664 121.996 9.58248C122.438 9.21833 122.99 9.03625 123.652 9.03625C124.333 9.03625 124.885 9.21833 125.308 9.58248C125.75 9.94664 125.97 10.4148 125.97 10.9871C125.97 11.5593 125.75 12.0362 125.308 12.4177C124.885 12.7992 124.333 12.9899 123.652 12.9899Z" fill="white"/>
<path d="M133.983 28.1803C132.585 28.1803 131.343 27.9029 130.258 27.348C129.191 26.7757 128.353 25.9867 127.746 24.981C127.158 23.9579 126.863 22.7787 126.863 21.4435C126.863 20.0736 127.158 18.8684 127.746 17.828C128.353 16.7702 129.191 15.9465 130.258 15.3569C131.325 14.75 132.567 14.4465 133.983 14.4465C135.363 14.4465 136.568 14.7327 137.598 15.3049C138.629 15.8771 139.429 16.6488 139.999 17.6199C140.57 18.5909 140.855 19.6921 140.855 20.9233C140.855 21.0967 140.855 21.2961 140.855 21.5215C140.855 21.7296 140.836 21.9464 140.8 22.1718H129.512V20.0389H137.102C137.046 19.1892 136.725 18.5216 136.136 18.036C135.565 17.5505 134.848 17.3077 133.983 17.3077C133.358 17.3077 132.778 17.4465 132.245 17.7239C131.711 17.984 131.288 18.3915 130.975 18.9464C130.681 19.5013 130.534 20.2036 130.534 21.0533V21.8076C130.534 22.5186 130.672 23.1429 130.948 23.6804C131.242 24.2006 131.647 24.6081 132.162 24.9029C132.677 25.1804 133.275 25.3191 133.956 25.3191C134.636 25.3191 135.197 25.1804 135.639 24.9029C136.099 24.6255 136.439 24.27 136.66 23.8365H140.469C140.211 24.6515 139.779 25.3885 139.171 26.0474C138.564 26.7064 137.819 27.2266 136.936 27.6081C136.053 27.9896 135.069 28.1803 133.983 28.1803Z" fill="white"/>
<path d="M148.156 28.1803C146.887 28.1803 145.746 27.8855 144.734 27.2959C143.74 26.7064 142.959 25.8914 142.388 24.8509C141.818 23.8105 141.533 22.64 141.533 21.3394C141.533 20.0042 141.818 18.825 142.388 17.8019C142.977 16.7615 143.777 15.9465 144.789 15.3569C145.819 14.75 146.969 14.4465 148.239 14.4465C149.232 14.4465 150.106 14.6199 150.861 14.9668C151.615 15.3136 152.222 15.8078 152.682 16.4494V9.1403H156.408V27.8682H153.096L152.682 26.0734C152.406 26.4376 152.056 26.7844 151.633 27.1139C151.228 27.4433 150.741 27.7035 150.171 27.8942C149.6 28.0849 148.929 28.1803 148.156 28.1803ZM149.039 25.111C149.775 25.111 150.419 24.955 150.971 24.6428C151.541 24.3134 151.983 23.8625 152.296 23.2903C152.608 22.718 152.765 22.0591 152.765 21.3134C152.765 20.5678 152.608 19.9088 152.296 19.3366C151.983 18.7644 151.541 18.3222 150.971 18.01C150.419 17.6806 149.775 17.5158 149.039 17.5158C148.34 17.5158 147.705 17.6806 147.135 18.01C146.565 18.3222 146.114 18.7644 145.783 19.3366C145.47 19.9088 145.314 20.5591 145.314 21.2874C145.314 22.0504 145.47 22.718 145.783 23.2903C146.114 23.8625 146.555 24.3134 147.107 24.6428C147.678 24.955 148.322 25.111 149.039 25.111Z" fill="white"/>
<path d="M162.772 27.8682V9.66051H170.002C171.566 9.66051 172.863 9.91195 173.894 10.4148C174.924 10.9177 175.687 11.594 176.184 12.4437C176.681 13.2934 176.929 14.2645 176.929 15.3569C176.929 16.3627 176.69 17.2904 176.212 18.1401C175.733 18.9898 174.979 19.6834 173.949 20.221C172.919 20.7412 171.603 21.0013 170.002 21.0013H166.498V27.8682H162.772ZM166.498 18.1661H169.782C170.978 18.1661 171.833 17.9147 172.348 17.4118C172.882 16.8916 173.149 16.2066 173.149 15.3569C173.149 14.4552 172.882 13.7616 172.348 13.276C171.833 12.7732 170.978 12.5217 169.782 12.5217H166.498V18.1661Z" fill="white"/>
<path d="M181.484 28.1803C180.325 28.1803 179.369 28.0069 178.614 27.6601C177.86 27.2959 177.299 26.8191 176.931 26.2295C176.581 25.6226 176.406 24.955 176.406 24.2267C176.406 23.429 176.618 22.7267 177.041 22.1198C177.483 21.5128 178.136 21.036 179.001 20.6892C179.884 20.3424 180.988 20.1689 182.312 20.1689H185.762C185.762 19.5273 185.67 18.9984 185.486 18.5823C185.302 18.1488 185.017 17.828 184.63 17.6199C184.244 17.4118 183.729 17.3077 183.085 17.3077C182.386 17.3077 181.788 17.4551 181.291 17.7499C180.813 18.0274 180.518 18.4609 180.408 19.0505H176.793C176.885 18.1141 177.207 17.3077 177.759 16.6315C178.329 15.9378 179.074 15.4003 179.994 15.0188C180.932 14.6373 181.972 14.4465 183.113 14.4465C184.419 14.4465 185.55 14.6546 186.507 15.0708C187.464 15.487 188.2 16.0852 188.715 16.8656C189.23 17.6459 189.487 18.6083 189.487 19.7528V27.8682H186.341L185.927 25.8653C185.725 26.2122 185.486 26.5243 185.21 26.8017C184.934 27.0792 184.612 27.322 184.244 27.53C183.876 27.7381 183.462 27.8942 183.002 27.9982C182.542 28.1196 182.036 28.1803 181.484 28.1803ZM182.367 25.4752C182.846 25.4752 183.269 25.3971 183.637 25.2411C184.023 25.0677 184.354 24.8422 184.63 24.5648C184.906 24.27 185.118 23.9405 185.265 23.5764C185.431 23.1949 185.541 22.7874 185.596 22.3539V22.3279H182.754C182.183 22.3279 181.714 22.3972 181.346 22.5359C180.997 22.6573 180.739 22.8394 180.574 23.0822C180.408 23.3249 180.325 23.6024 180.325 23.9145C180.325 24.2613 180.408 24.5475 180.574 24.7729C180.739 24.9983 180.978 25.1717 181.291 25.2931C181.604 25.4145 181.963 25.4752 182.367 25.4752Z" fill="white"/>
<path d="M191.031 27.8682V14.7587H194.343L194.702 17.1777C195.033 16.6054 195.447 16.1199 195.943 15.7211C196.459 15.3222 197.038 15.0101 197.682 14.7847C198.344 14.5592 199.071 14.4465 199.862 14.4465V18.1661H198.593C198.041 18.1661 197.526 18.2268 197.047 18.3482C196.587 18.4696 196.183 18.669 195.833 18.9464C195.484 19.2065 195.217 19.5707 195.033 20.0389C194.849 20.5071 194.757 21.0967 194.757 21.8076V27.8682H191.031Z" fill="white"/>
<path d="M206.656 27.8682C205.681 27.8682 204.825 27.7295 204.09 27.452C203.372 27.1572 202.811 26.6804 202.406 26.0214C202.001 25.3451 201.799 24.4261 201.799 23.2642V17.6979H199.426V14.7587H201.799L202.213 11.1952H205.525V14.7587H209.195V17.6979H205.525V23.3163C205.525 23.9058 205.663 24.3134 205.939 24.5388C206.214 24.7642 206.684 24.8769 207.346 24.8769H209.167V27.8682H206.656Z" fill="white"/>
<path d="M210.399 27.8682V14.7587H213.683L213.959 16.8916C214.382 16.1633 214.98 15.5737 215.753 15.1228C216.544 14.672 217.482 14.4465 218.567 14.4465C219.726 14.4465 220.702 14.672 221.493 15.1228C222.284 15.5737 222.882 16.2326 223.286 17.0996C223.71 17.9667 223.921 19.0331 223.921 20.299V27.8682H220.223V20.6371C220.223 19.5967 219.984 18.799 219.506 18.2441C219.046 17.6892 218.328 17.4118 217.353 17.4118C216.728 17.4118 216.166 17.5505 215.67 17.828C215.191 18.1054 214.814 18.5042 214.538 19.0245C214.262 19.5273 214.124 20.1429 214.124 20.8712V27.8682H210.399Z" fill="white"/>
<path d="M232.178 28.1803C230.78 28.1803 229.538 27.9029 228.452 27.348C227.385 26.7757 226.548 25.9867 225.941 24.981C225.352 23.9579 225.058 22.7787 225.058 21.4435C225.058 20.0736 225.352 18.8684 225.941 17.828C226.548 16.7702 227.385 15.9465 228.452 15.3569C229.519 14.75 230.761 14.4465 232.178 14.4465C233.558 14.4465 234.763 14.7327 235.793 15.3049C236.823 15.8771 237.624 16.6488 238.194 17.6199C238.764 18.5909 239.05 19.6921 239.05 20.9233C239.05 21.0967 239.05 21.2961 239.05 21.5215C239.05 21.7296 239.031 21.9464 238.994 22.1718H227.707V20.0389H235.296C235.241 19.1892 234.919 18.5216 234.33 18.036C233.76 17.5505 233.043 17.3077 232.178 17.3077C231.552 17.3077 230.973 17.4465 230.439 17.7239C229.906 17.984 229.483 18.3915 229.17 18.9464C228.875 19.5013 228.728 20.2036 228.728 21.0533V21.8076C228.728 22.5186 228.866 23.1429 229.142 23.6804C229.437 24.2006 229.841 24.6081 230.356 24.9029C230.872 25.1804 231.47 25.3191 232.15 25.3191C232.831 25.3191 233.392 25.1804 233.834 24.9029C234.294 24.6255 234.634 24.27 234.855 23.8365H238.663C238.406 24.6515 237.973 25.3885 237.366 26.0474C236.759 26.7064 236.014 27.2266 235.131 27.6081C234.248 27.9896 233.263 28.1803 232.178 28.1803Z" fill="white"/>
<path d="M240.169 27.8682V14.7587H243.481L243.839 17.1777C244.171 16.6054 244.584 16.1199 245.081 15.7211C245.596 15.3222 246.176 15.0101 246.82 14.7847C247.482 14.5592 248.209 14.4465 249 14.4465V18.1661H247.731C247.179 18.1661 246.663 18.2268 246.185 18.3482C245.725 18.4696 245.32 18.669 244.971 18.9464C244.621 19.2065 244.354 19.5707 244.171 20.0389C243.987 20.5071 243.895 21.0967 243.895 21.8076V27.8682H240.169Z" fill="white"/>
</svg>
