<svg width="235" height="44" viewBox="0 0 235 44" fill="none" xmlns="http://www.w3.org/2000/svg">
<path d="M35.3245 8.5577C35.2977 8.32572 35.0829 8.22261 34.9219 8.22261C34.7608 8.22261 31.2445 7.96485 31.2445 7.96485C31.2445 7.96485 28.8018 5.61921 28.5065 5.38723C28.2381 5.12947 27.7281 5.2068 27.5134 5.25835C27.4865 5.25835 26.9765 5.41301 26.1444 5.67077C25.3123 3.37668 23.8897 1.28881 21.3396 1.28881H21.0981C20.4002 0.41242 19.4875 0 18.7359 0C12.8306 0 9.98534 7.08846 9.09955 10.6971C6.79111 11.3931 5.15373 11.8571 4.96583 11.9344C3.6774 12.321 3.65056 12.3468 3.4895 13.5067C3.35529 14.3831 0 39.3087 0 39.3087L26.1176 44L40.2903 41.0615C40.3172 41.01 35.3513 8.78969 35.3245 8.5577ZM24.6949 6.03163C24.0507 6.21207 23.2723 6.44406 22.4939 6.70182V6.23784C22.4939 4.84592 22.306 3.71177 21.957 2.80961C23.2991 2.96426 24.1313 4.38196 24.6949 6.03163ZM20.3196 3.09315C20.6686 3.96954 20.9102 5.20679 20.9102 6.90802V7.16579C19.4607 7.60398 17.9307 8.04218 16.347 8.53192C17.2328 5.28412 18.9238 3.686 20.3196 3.09315ZM18.6017 1.49502C18.8702 1.49502 19.1386 1.59812 19.3533 1.75278C17.4475 2.6034 15.4343 4.74282 14.6022 9.07322C13.3406 9.45987 12.1327 9.79496 10.9785 10.1558C11.9448 6.85647 14.3606 1.49502 18.6017 1.49502Z" fill="#95BF47"/>
<path d="M34.9219 8.17106C34.7608 8.17106 31.2445 7.91329 31.2445 7.91329C31.2445 7.91329 28.8018 5.56766 28.5065 5.33567C28.3992 5.23257 28.265 5.18101 28.1576 5.18101L26.1981 44L40.3709 41.0615C40.3709 41.0615 35.405 8.78969 35.3782 8.5577C35.2708 8.32571 35.0829 8.22261 34.9219 8.17106Z" fill="#5E8E3E"/>
<path d="M21.3396 15.6977L19.6217 20.6725C19.6217 20.6725 18.0649 19.8735 16.2128 19.8735C13.448 19.8735 13.3138 21.5489 13.3138 21.9613C13.3138 24.2296 19.4875 25.106 19.4875 30.4417C19.4875 34.6432 16.7228 37.3497 12.9917 37.3497C8.48217 37.3497 6.22742 34.669 6.22742 34.669L7.43532 30.8541C7.43532 30.8541 9.79745 32.8131 11.7838 32.8131C13.0991 32.8131 13.6359 31.8336 13.6359 31.1119C13.6359 28.1476 8.58954 28.0187 8.58954 23.1213C8.58954 19.0228 11.6496 15.0533 17.8501 15.0533C20.1586 15.0275 21.3396 15.6977 21.3396 15.6977Z" fill="white"/>
<path d="M56.5778 20.1699C55.1552 19.4482 54.4305 18.8037 54.4305 17.9531C54.4305 16.8705 55.4505 16.1746 57.0342 16.1746C58.8863 16.1746 60.5237 16.8963 60.5237 16.8963L61.8121 13.1072C61.8121 13.1072 60.631 12.2308 57.1415 12.2308C52.2831 12.2308 48.9009 14.9115 48.9009 18.6749C48.9009 20.8143 50.4846 22.4382 52.5783 23.5981C54.2962 24.5003 54.8868 25.1705 54.8868 26.15C54.8868 27.1552 54.0278 27.9801 52.4441 27.9801C50.1089 27.9801 47.8809 26.8202 47.8809 26.8202L46.512 30.6093C46.512 30.6093 48.552 31.9238 51.9878 31.9238C56.9805 31.9238 60.6042 29.5524 60.6042 25.2994C60.5505 22.9795 58.7521 21.3814 56.5778 20.1699ZM76.4949 12.1793C74.0254 12.1793 72.0927 13.3134 70.6164 15.0146L70.5627 14.9889L72.7101 4.26596H67.1537L61.7316 31.5888H67.2879L69.1401 22.2578C69.8648 18.7264 71.7706 16.5354 73.5422 16.5354C74.8038 16.5354 75.2869 17.3603 75.2869 18.5202C75.2869 19.2419 75.2333 20.1699 75.0454 20.8916L72.9517 31.5888H78.508L80.6823 20.5565C80.9238 19.3966 81.0849 18.0047 81.0849 17.051C81.058 13.9836 79.4207 12.1793 76.4949 12.1793ZM93.6471 12.1793C86.9365 12.1793 82.5075 17.9789 82.5075 24.4487C82.5075 28.5729 85.1649 31.9238 90.1576 31.9238C96.734 31.9238 101.163 26.2789 101.163 19.6544C101.19 15.8137 98.8814 12.1793 93.6471 12.1793ZM90.9092 27.8512C89.0034 27.8512 88.2249 26.3046 88.2249 24.3456C88.2249 21.2783 89.8623 16.3035 92.8955 16.3035C94.855 16.3035 95.5261 17.9531 95.5261 19.5255C95.5261 22.7991 93.835 27.8512 90.9092 27.8512ZM115.416 12.1793C111.658 12.1793 109.538 15.3755 109.538 15.3755H109.484L109.806 12.5144H104.867C104.626 14.4476 104.169 17.4118 103.74 19.6028L99.9014 39.167H105.458L107.015 31.2537H107.149C107.149 31.2537 108.303 31.9496 110.397 31.9496C116.946 31.9496 121.214 25.5056 121.214 19.01C121.187 15.4013 119.496 12.1793 115.416 12.1793ZM110.101 27.9028C108.652 27.9028 107.793 27.1037 107.793 27.1037L108.706 22.1289C109.35 18.778 111.175 16.587 113.108 16.587C114.826 16.587 115.336 18.1078 115.336 19.5255C115.363 22.9795 113.215 27.9028 110.101 27.9028ZM129.133 4.52373C127.361 4.52373 125.938 5.88987 125.938 7.61687C125.938 9.18922 126.985 10.2976 128.569 10.2976H128.623C130.367 10.2976 131.844 9.16345 131.871 7.20445C131.897 5.6321 130.797 4.52373 129.133 4.52373ZM121.348 31.563H126.905L130.663 12.5917H125.079M144.835 12.5659H140.97L141.158 11.6895C141.48 9.8594 142.607 8.26128 144.486 8.26128C145.48 8.26128 146.258 8.54481 146.258 8.54481L147.332 4.34329C147.332 4.34329 146.392 3.87932 144.299 3.87932C142.339 3.87932 140.353 4.42062 138.85 5.65788C136.944 7.20445 136.058 9.44698 135.628 11.7153L135.467 12.5917H132.864L132.032 16.6386H134.635L131.683 31.5888H137.239L140.192 16.6386H144.03L144.835 12.5659ZM158.23 12.5917C158.23 12.5917 154.74 21.0205 153.21 25.6344H153.157C153.049 24.1394 151.788 12.5917 151.788 12.5917H145.936L149.291 29.9648C149.345 30.3515 149.318 30.5835 149.157 30.8412C148.513 32.0527 147.412 33.2127 146.124 34.0633C145.077 34.785 143.896 35.2748 142.956 35.5841L144.513 40.1207C145.641 39.8887 148.003 38.9865 149.962 37.208C152.485 34.9397 154.848 31.4083 157.263 26.6139L164.055 12.5659H158.23V12.5917Z" fill="white"/>
<path d="M170.989 31.3871L173.632 17.1222H178.555C179.629 17.1222 180.496 17.292 181.155 17.6317C181.829 17.9713 182.316 18.4264 182.617 18.997C182.918 19.5676 183.054 20.1926 183.025 20.8718C182.982 21.8228 182.71 22.6448 182.209 23.3376C181.707 24.0305 181.012 24.5671 180.124 24.9475C179.235 25.3279 178.196 25.5181 177.007 25.5181H173.89L172.794 31.3871H170.989ZM174.148 24.0713H177.222C178.469 24.0713 179.422 23.8131 180.081 23.2969C180.74 22.767 181.091 21.9927 181.134 20.9737C181.177 20.2537 180.976 19.6695 180.532 19.2212C180.088 18.7729 179.328 18.5487 178.254 18.5487H175.18L174.148 24.0713Z" fill="white"/>
<path d="M185.368 31.6316C184.565 31.6316 183.906 31.5026 183.39 31.2444C182.889 30.9727 182.523 30.6195 182.294 30.1848C182.065 29.7364 181.965 29.2609 181.993 28.7583C182.022 28.0247 182.258 27.3929 182.703 26.8631C183.147 26.3333 183.763 25.9257 184.551 25.6404C185.339 25.3551 186.242 25.2124 187.259 25.2124H190.118C190.233 24.5603 190.225 24.0237 190.096 23.6026C189.982 23.1678 189.745 22.8486 189.387 22.6448C189.029 22.4274 188.563 22.3187 187.99 22.3187C187.302 22.3187 186.679 22.4817 186.12 22.8078C185.561 23.1338 185.16 23.6161 184.916 24.2547H183.046C183.276 23.521 183.648 22.9097 184.164 22.4206C184.694 21.9179 185.311 21.5375 186.013 21.2794C186.715 21.0077 187.453 20.8718 188.227 20.8718C189.201 20.8718 189.989 21.0485 190.591 21.4017C191.207 21.7413 191.623 22.2236 191.838 22.8486C192.067 23.4599 192.103 24.1867 191.945 25.029L190.784 31.3871H189.151L189.387 29.5734C189.187 29.8587 188.95 30.1304 188.678 30.3886C188.42 30.6331 188.126 30.8505 187.797 31.0407C187.467 31.2309 187.102 31.3735 186.7 31.4686C186.299 31.5773 185.855 31.6316 185.368 31.6316ZM185.905 30.1848C186.407 30.1848 186.887 30.0897 187.345 29.8995C187.818 29.6957 188.234 29.424 188.592 29.0843C188.964 28.7447 189.258 28.3643 189.473 27.9431C189.702 27.522 189.824 27.0805 189.839 26.6185L189.86 26.537H187.152C186.478 26.537 185.898 26.6253 185.411 26.802C184.938 26.965 184.573 27.2027 184.315 27.5152C184.071 27.8141 183.935 28.1741 183.906 28.5953C183.878 29.0843 184.035 29.4715 184.379 29.7568C184.723 30.0421 185.232 30.1848 185.905 30.1848Z" fill="white"/>
<path d="M192.284 31.3871L194.175 21.1164H195.83L195.615 22.9504C195.945 22.5157 196.332 22.1489 196.776 21.85C197.22 21.5375 197.729 21.2998 198.302 21.1368C198.875 20.9602 199.491 20.8718 200.15 20.8718L199.828 22.6651H199.162C198.703 22.6651 198.252 22.7195 197.808 22.8282C197.378 22.9369 196.977 23.1135 196.604 23.358C196.246 23.6026 195.938 23.9286 195.68 24.3362C195.422 24.7302 195.236 25.226 195.121 25.8238L194.089 31.3871H192.284Z" fill="white"/>
<path d="M202.968 31.3871C202.237 31.3871 201.65 31.2784 201.206 31.061C200.761 30.8437 200.461 30.504 200.303 30.0421C200.16 29.5802 200.152 28.9892 200.281 28.2692L201.356 22.5633H199.615L199.895 21.1164H201.636L202.323 18.6302H203.914L203.441 21.1164H206.601L206.321 22.5633H203.162L202.087 28.2692C201.972 28.9077 202.037 29.3425 202.28 29.5734C202.524 29.8044 202.954 29.9198 203.57 29.9198H204.946L204.666 31.3871H202.968Z" fill="white"/>
<path d="M205.542 31.3871L207.433 21.1164H209.067L208.852 22.9097C209.31 22.2712 209.891 21.7753 210.593 21.4221C211.295 21.0553 212.055 20.8718 212.871 20.8718C213.76 20.8718 214.476 21.0553 215.021 21.4221C215.58 21.7753 215.959 22.278 216.16 22.9301C216.361 23.5822 216.375 24.3566 216.203 25.2532L215.064 31.3871H213.258L214.354 25.4366C214.541 24.4449 214.455 23.6841 214.096 23.1542C213.738 22.6108 213.108 22.3391 212.205 22.3391C211.618 22.3391 211.059 22.4749 210.528 22.7467C210.013 23.0184 209.568 23.4056 209.196 23.9082C208.823 24.4109 208.551 25.029 208.379 25.7627L207.347 31.3871H205.542Z" fill="white"/>
<path d="M221.108 31.6316C220.205 31.6316 219.417 31.4414 218.744 31.061C218.085 30.6806 217.583 30.144 217.239 29.4511C216.91 28.7583 216.766 27.9499 216.809 27.0261C216.852 26.1431 217.039 25.3347 217.368 24.6011C217.698 23.8539 218.142 23.2018 218.701 22.6448C219.274 22.0878 219.933 21.653 220.678 21.3406C221.423 21.0281 222.233 20.8718 223.107 20.8718C224.082 20.8718 224.884 21.062 225.514 21.4424C226.159 21.8228 226.632 22.3323 226.933 22.9708C227.234 23.5958 227.363 24.2886 227.32 25.0494C227.306 25.2804 227.27 25.5453 227.212 25.8442C227.17 26.1295 227.119 26.3944 227.062 26.6389H218.207L218.443 25.3143H225.536C225.636 24.6758 225.579 24.1392 225.364 23.7044C225.149 23.2561 224.827 22.9165 224.397 22.6855C223.967 22.441 223.451 22.3187 222.849 22.3187C222.233 22.3187 221.638 22.4546 221.065 22.7263C220.506 22.9844 220.019 23.3716 219.604 23.8878C219.188 24.3905 218.909 25.0222 218.765 25.783L218.658 26.3536C218.5 27.1144 218.515 27.7869 218.701 28.3711C218.887 28.9553 219.21 29.4036 219.668 29.7161C220.141 30.0285 220.714 30.1848 221.388 30.1848C222.147 30.1848 222.799 30.0285 223.344 29.7161C223.902 29.39 224.339 28.9553 224.655 28.4118H226.439C226.138 29.0232 225.729 29.5734 225.214 30.0625C224.712 30.5516 224.11 30.9388 223.408 31.2241C222.72 31.4958 221.954 31.6316 221.108 31.6316Z" fill="white"/>
<path d="M227.133 31.3871L229.025 21.1164H230.68L230.465 22.9504C230.794 22.5157 231.181 22.1489 231.625 21.85C232.07 21.5375 232.578 21.2998 233.152 21.1368C233.725 20.9602 234.341 20.8718 235 20.8718L234.678 22.6651H234.011C233.553 22.6651 233.101 22.7195 232.657 22.8282C232.227 22.9369 231.826 23.1135 231.453 23.358C231.095 23.6026 230.787 23.9286 230.529 24.3362C230.271 24.7302 230.085 25.226 229.97 25.8238L228.939 31.3871H227.133Z" fill="white"/>
</svg>
