<svg width="225" height="63" viewBox="0 0 225 63" fill="none" xmlns="http://www.w3.org/2000/svg">
<g clip-path="url(#clip0_96_240)">
<path d="M53.375 0H10.625C4.75697 0 0 4.79503 0 10.71V52.1892C0 58.1042 4.75697 62.8992 10.625 62.8992H53.375C59.243 62.8992 64 58.1042 64 52.1892V10.71C64 4.79503 59.243 0 53.375 0Z" fill="#330000"/>
<path d="M31.0135 37.747H21.096L19.078 44.0654C19.0506 44.1807 18.9841 44.2826 18.89 44.3538C18.796 44.4249 18.6802 44.4607 18.5628 44.455H13.5395C13.2532 44.455 13.153 44.2962 13.239 43.9787L21.8258 19.0514C21.9116 18.7918 21.9974 18.4961 22.0833 18.1643C22.1958 17.5868 22.2533 17.0001 22.255 16.4117C22.2492 16.3705 22.2529 16.3286 22.266 16.2891C22.279 16.2497 22.3009 16.2138 22.3301 16.1844C22.3593 16.155 22.3948 16.1328 22.4339 16.1196C22.4731 16.1065 22.5147 16.1027 22.5555 16.1085H29.382C29.582 16.1085 29.6965 16.1808 29.7255 16.3252L39.4713 44.0221C39.5571 44.311 39.4713 44.4553 39.2138 44.455H33.6323C33.5365 44.4656 33.4401 44.4407 33.3611 44.3849C33.2822 44.3292 33.226 44.2465 33.203 44.1521L31.0135 37.747ZM22.6415 32.2942H29.425L29.3283 31.9724L29.173 31.4629L29.0623 31.105L28.8855 30.5416L28.5098 29.3554L28.1793 28.3038L27.321 25.5646C27.1074 24.8836 26.9024 24.2 26.706 23.5138L26.549 22.9569L26.3655 22.2984L26.0855 21.2778L26.033 21.0855H25.9903C25.7754 22.1243 25.5138 23.1527 25.2063 24.1675L24.5693 26.2329L24.2188 27.3739L23.865 28.5291C23.8012 28.7378 23.7374 28.9441 23.6738 29.148L23.4838 29.7523L23.2948 30.3425L23.1068 30.9181L22.9198 31.4793C22.8578 31.6641 22.7959 31.8463 22.734 32.0261L22.6415 32.2942ZM45.2668 20.6959C44.8289 20.7136 44.3923 20.6379 43.9854 20.4739C43.5785 20.3098 43.2105 20.0611 42.9055 19.7439C42.6015 19.4128 42.3654 19.0244 42.2107 18.6011C42.0559 18.1778 41.9856 17.7278 42.0038 17.2771C41.9882 16.8308 42.0662 16.3862 42.2327 15.9724C42.3991 15.5586 42.6503 15.1848 42.9698 14.8755C43.586 14.2792 44.4068 13.9455 45.261 13.9438L45.3525 13.9449C46.383 13.9449 47.1917 14.255 47.7785 14.8752C48.0746 15.1976 48.3048 15.5757 48.4558 15.9878C48.6068 16.3999 48.6757 16.8381 48.6585 17.2771C48.6767 17.7297 48.6043 18.1813 48.4458 18.6052C48.2872 19.029 48.0457 19.4163 47.7355 19.7441C47.4225 20.0551 47.051 20.2997 46.6428 20.4638C46.2345 20.6278 45.7979 20.7078 45.3585 20.6992L45.2668 20.6959ZM42.3043 44.0221V23.3359C42.3041 23.0762 42.4186 22.9463 42.6478 22.9463H47.9288C48.1576 22.9463 48.2721 23.0762 48.2723 23.3359V44.0221C48.2723 44.311 48.1578 44.4553 47.9288 44.455H42.6908C42.4468 44.455 42.3184 44.3255 42.3055 44.0664L42.3043 44.0221Z" fill="#FF9A00"/>
</g>
<path d="M82.336 42.5V20.1H85.536V42.5H82.336ZM90.051 42.5V19.46H93.251V42.5H90.051ZM97.6448 42.5V19.46H100.845V42.5H97.6448ZM111.159 42.884C109.9 42.884 108.801 42.628 107.863 42.116C106.945 41.604 106.231 40.836 105.719 39.812C105.228 38.788 104.983 37.4973 104.983 35.94V26.372H108.183V35.588C108.183 37.1027 108.513 38.244 109.175 39.012C109.836 39.78 110.785 40.164 112.023 40.164C112.855 40.164 113.601 39.9613 114.263 39.556C114.945 39.1507 115.479 38.564 115.863 37.796C116.247 37.028 116.439 36.0893 116.439 34.98V26.372H119.639V42.5H116.791L116.567 39.748C116.076 40.7293 115.361 41.4973 114.423 42.052C113.484 42.6067 112.396 42.884 111.159 42.884ZM130.26 42.884C128.894 42.884 127.7 42.66 126.676 42.212C125.652 41.764 124.841 41.1347 124.244 40.324C123.646 39.5133 123.284 38.564 123.156 37.476H126.42C126.526 37.988 126.729 38.4573 127.028 38.884C127.348 39.3107 127.774 39.652 128.308 39.908C128.862 40.164 129.513 40.292 130.26 40.292C130.964 40.292 131.54 40.196 131.988 40.004C132.457 39.7907 132.798 39.5133 133.012 39.172C133.225 38.8093 133.332 38.4253 133.332 38.02C133.332 37.4227 133.182 36.9747 132.884 36.676C132.606 36.356 132.18 36.1107 131.604 35.94C131.049 35.748 130.377 35.5773 129.588 35.428C128.841 35.3 128.116 35.1293 127.412 34.916C126.729 34.6813 126.11 34.3933 125.556 34.052C125.022 33.7107 124.596 33.284 124.276 32.772C123.956 32.2387 123.796 31.588 123.796 30.82C123.796 29.9027 124.041 29.0813 124.532 28.356C125.022 27.6093 125.716 27.0333 126.612 26.628C127.529 26.2013 128.606 25.988 129.844 25.988C131.636 25.988 133.076 26.4147 134.164 27.268C135.252 28.1213 135.892 29.3267 136.084 30.884H132.98C132.894 30.1587 132.574 29.604 132.02 29.22C131.465 28.8147 130.729 28.612 129.812 28.612C128.894 28.612 128.19 28.7933 127.7 29.156C127.209 29.5187 126.964 29.9987 126.964 30.596C126.964 30.98 127.102 31.3213 127.38 31.62C127.657 31.9187 128.062 32.1747 128.596 32.388C129.15 32.58 129.822 32.7613 130.612 32.932C131.742 33.1453 132.756 33.412 133.652 33.732C134.548 34.052 135.262 34.5213 135.796 35.14C136.329 35.7587 136.596 36.644 136.596 37.796C136.617 38.7987 136.361 39.684 135.828 40.452C135.316 41.22 134.58 41.8173 133.62 42.244C132.681 42.6707 131.561 42.884 130.26 42.884ZM146.363 42.5C145.339 42.5 144.454 42.34 143.707 42.02C142.961 41.7 142.385 41.1667 141.979 40.42C141.574 39.6733 141.371 38.66 141.371 37.38V29.092H138.587V26.372H141.371L141.755 22.34H144.571V26.372H149.147V29.092H144.571V37.412C144.571 38.3293 144.763 38.9587 145.147 39.3C145.531 39.62 146.193 39.78 147.131 39.78H148.987V42.5H146.363ZM152.676 42.5V26.372H155.556L155.844 29.412C156.207 28.6867 156.676 28.0787 157.252 27.588C157.828 27.076 158.5 26.6813 159.268 26.404C160.057 26.1267 160.953 25.988 161.956 25.988V29.38H160.804C160.143 29.38 159.513 29.4653 158.916 29.636C158.319 29.7853 157.785 30.052 157.316 30.436C156.868 30.82 156.516 31.3427 156.26 32.004C156.004 32.6653 155.876 33.4867 155.876 34.468V42.5H152.676ZM170.239 42.884C168.916 42.884 167.817 42.66 166.943 42.212C166.068 41.764 165.417 41.1667 164.991 40.42C164.564 39.652 164.351 38.8307 164.351 37.956C164.351 36.8893 164.628 35.9827 165.183 35.236C165.737 34.468 166.527 33.8813 167.551 33.476C168.575 33.0707 169.801 32.868 171.231 32.868H175.423C175.423 31.9293 175.284 31.1507 175.007 30.532C174.729 29.9133 174.313 29.4547 173.759 29.156C173.225 28.836 172.543 28.676 171.711 28.676C170.751 28.676 169.929 28.9107 169.247 29.38C168.564 29.828 168.137 30.5 167.967 31.396H164.767C164.895 30.2653 165.279 29.3053 165.919 28.516C166.58 27.7053 167.423 27.0867 168.447 26.66C169.471 26.212 170.559 25.988 171.711 25.988C173.225 25.988 174.495 26.2547 175.519 26.788C176.543 27.3213 177.311 28.0787 177.823 29.06C178.356 30.02 178.623 31.172 178.623 32.516V42.5H175.839L175.583 39.78C175.348 40.2067 175.071 40.612 174.751 40.996C174.431 41.38 174.047 41.7107 173.599 41.988C173.172 42.2653 172.671 42.4787 172.095 42.628C171.54 42.7987 170.921 42.884 170.239 42.884ZM170.847 40.292C171.529 40.292 172.148 40.1533 172.703 39.876C173.257 39.5987 173.727 39.2253 174.111 38.756C174.516 38.2653 174.815 37.7213 175.007 37.124C175.22 36.5053 175.337 35.876 175.359 35.236V35.14H171.551C170.633 35.14 169.887 35.2573 169.311 35.492C168.756 35.7053 168.351 36.004 168.095 36.388C167.839 36.772 167.711 37.22 167.711 37.732C167.711 38.2653 167.828 38.724 168.063 39.108C168.319 39.4707 168.681 39.7587 169.151 39.972C169.62 40.1853 170.185 40.292 170.847 40.292ZM189.02 42.5C187.996 42.5 187.11 42.34 186.364 42.02C185.617 41.7 185.041 41.1667 184.636 40.42C184.23 39.6733 184.028 38.66 184.028 37.38V29.092H181.243V26.372H184.028L184.411 22.34H187.228V26.372H191.804V29.092H187.228V37.412C187.228 38.3293 187.42 38.9587 187.804 39.3C188.188 39.62 188.849 39.78 189.788 39.78H191.644V42.5H189.02ZM202.255 42.884C200.74 42.884 199.375 42.532 198.159 41.828C196.964 41.124 196.015 40.1427 195.311 38.884C194.628 37.604 194.287 36.132 194.287 34.468C194.287 32.7613 194.639 31.2787 195.343 30.02C196.047 28.74 197.007 27.748 198.223 27.044C199.439 26.34 200.804 25.988 202.319 25.988C203.855 25.988 205.22 26.34 206.415 27.044C207.609 27.748 208.548 28.7293 209.231 29.988C209.935 31.2467 210.287 32.7293 210.287 34.436C210.287 36.1427 209.935 37.6253 209.231 38.884C208.548 40.1427 207.599 41.124 206.383 41.828C205.167 42.532 203.791 42.884 202.255 42.884ZM202.255 40.132C203.129 40.132 203.919 39.9187 204.623 39.492C205.348 39.0653 205.924 38.436 206.351 37.604C206.799 36.7507 207.023 35.6947 207.023 34.436C207.023 33.1773 206.809 32.132 206.383 31.3C205.956 30.4467 205.38 29.8067 204.655 29.38C203.951 28.9533 203.172 28.74 202.319 28.74C201.465 28.74 200.676 28.9533 199.951 29.38C199.225 29.8067 198.639 30.4467 198.191 31.3C197.764 32.132 197.551 33.1773 197.551 34.436C197.551 35.6947 197.764 36.7507 198.191 37.604C198.639 38.436 199.215 39.0653 199.919 39.492C200.644 39.9187 201.423 40.132 202.255 40.132ZM214.051 42.5V26.372H216.931L217.219 29.412C217.582 28.6867 218.051 28.0787 218.627 27.588C219.203 27.076 219.875 26.6813 220.643 26.404C221.432 26.1267 222.328 25.988 223.331 25.988V29.38H222.179C221.518 29.38 220.888 29.4653 220.291 29.636C219.694 29.7853 219.16 30.052 218.691 30.436C218.243 30.82 217.891 31.3427 217.635 32.004C217.379 32.6653 217.251 33.4867 217.251 34.468V42.5H214.051Z" fill="white"/>
<defs>
<clipPath id="clip0_96_240">
<rect width="64" height="63" fill="white"/>
</clipPath>
</defs>
</svg>
