<svg width="243" height="63" viewBox="0 0 243 63" fill="none" xmlns="http://www.w3.org/2000/svg">
<g clip-path="url(#clip0_96_241)">
<path d="M53.375 0H10.625C4.75697 0 0 4.79503 0 10.71V52.1892C0 58.1042 4.75697 62.8992 10.625 62.8992H53.375C59.243 62.8992 64 58.1042 64 52.1892V10.71C64 4.79503 59.243 0 53.375 0Z" fill="#001E36"/>
<path d="M14.4109 44.1089V16.4549C14.4109 16.2531 14.4968 16.1522 14.6686 16.152L14.9404 16.1512L15.4049 16.1462L16.0504 16.1333L18.2129 16.0872L20.5316 16.0439C21.3471 16.0296 22.1556 16.0224 22.9571 16.0222C25.1321 16.0222 26.964 16.2963 28.4526 16.8445C29.7957 17.3021 31.0205 18.0561 32.0376 19.0515C32.9001 19.9142 33.5666 20.9552 33.9911 22.1027C34.3926 23.2194 34.5961 24.3986 34.5924 25.5864C34.5924 27.8949 34.0628 29.7991 33.0036 31.299C31.9679 32.7623 30.5231 33.8814 28.8536 34.5135L28.7104 34.5664C26.9671 35.2218 25.0366 35.4587 22.9194 35.4736L22.5904 35.4746L22.1021 35.4721L21.8559 35.4686L21.5814 35.462L21.4159 35.4554L21.3154 35.4502L21.0681 35.4411L20.7659 35.4348L20.3109 35.4315L20.2096 35.4313V44.0655C20.2172 44.1185 20.2124 44.1724 20.1956 44.2232C20.1788 44.2739 20.1506 44.32 20.1131 44.3578C20.0756 44.3956 20.0298 44.4241 19.9795 44.441C19.9292 44.4579 19.8756 44.4627 19.8231 44.4551H14.7116C14.511 44.4553 14.4107 44.3399 14.4109 44.1089ZM20.2099 21.3452V30.3648C20.5816 30.3939 20.9249 30.4083 21.2399 30.4081H22.6569C23.6338 30.4047 24.6051 30.2581 25.5401 29.9729L25.7266 29.9142C26.5774 29.6597 27.3375 29.1639 27.9164 28.4859C28.4544 27.8463 28.7331 26.965 28.7524 25.8419L28.7536 25.7162C28.7761 24.879 28.5601 24.053 28.1309 23.336C27.6799 22.6425 27.0278 22.106 26.2634 21.7996C25.2654 21.4084 24.1994 21.2244 23.1291 21.2588L22.5846 21.2603L22.2411 21.2633L21.9134 21.2676L21.4509 21.2767L21.1134 21.2862L20.9381 21.2928L20.7039 21.3039L20.5044 21.3162L20.3906 21.3253L20.2924 21.3349L20.2491 21.3399L20.2099 21.3452ZM51.1924 28.7248C50.4434 28.3369 49.649 28.0455 48.8279 27.8574L48.6379 27.8161C47.7345 27.6072 46.8123 27.4921 45.8856 27.4726L45.6541 27.4698C45.1109 27.455 44.5685 27.5206 44.0441 27.6646C43.7105 27.7397 43.4138 27.9313 43.2066 28.2054C43.0666 28.4249 42.9922 28.6803 42.9921 28.9412C43 29.1943 43.0905 29.4376 43.2496 29.6335C43.4775 29.9021 43.7515 30.1272 44.0584 30.298L44.1514 30.3477C44.7635 30.6799 45.3943 30.976 46.0404 31.2347C47.4812 31.7212 48.8579 32.3824 50.1404 33.2038C51.0141 33.7596 51.7371 34.5256 52.2444 35.4328C52.6707 36.2917 52.8843 37.242 52.8669 38.2022C52.8924 39.4705 52.5328 40.7163 51.8364 41.7728C51.0907 42.8452 50.0549 43.6788 48.8524 44.1744C47.5931 44.7322 46.0466 45.0204 44.2131 45.0393L44.0226 45.0403C42.886 45.0517 41.751 44.9514 40.6336 44.7409L40.3946 44.694C39.4539 44.5201 38.5382 44.2294 37.6684 43.8284C37.5809 43.783 37.507 43.715 37.4542 43.6313C37.4014 43.5476 37.3716 43.4512 37.3679 43.3521V38.6352C37.3627 38.5894 37.37 38.5431 37.389 38.5011C37.4079 38.4592 37.4378 38.4232 37.4754 38.397C37.5122 38.3759 37.5546 38.3667 37.5968 38.3706C37.6389 38.3745 37.6789 38.3913 37.7114 38.4187C38.7386 39.0292 39.8539 39.4745 41.0171 39.7387C42.0425 39.9979 43.0943 40.1359 44.1514 40.15C45.1529 40.15 45.8899 40.0201 46.3624 39.7604C46.5756 39.6618 46.756 39.5031 46.8818 39.3034C47.0075 39.1037 47.0732 38.8717 47.0709 38.6352C47.0709 38.2605 46.8562 37.8999 46.4269 37.5533C46.2469 37.4082 45.9888 37.2503 45.6526 37.0796L45.4919 37L45.3204 36.9186L45.2304 36.8772L45.0419 36.7931L44.9436 36.7502L44.7386 36.6635L44.6319 36.6194L44.4104 36.53L44.2954 36.4846L44.0571 36.3921L43.8079 36.2981C42.4596 35.8256 41.1813 35.1704 40.0081 34.3507C39.1689 33.7624 38.4779 32.9843 37.9904 32.0786C37.5683 31.2258 37.3549 30.2836 37.3679 29.3306C37.3652 28.1855 37.6773 27.0621 38.2694 26.0848C38.9444 25.0088 39.9134 24.152 41.0601 23.6183C42.3193 22.9839 43.8935 22.6664 45.7826 22.6659C46.8892 22.657 47.9946 22.7366 49.0886 22.9041C49.8808 23.0055 50.6553 23.2166 51.3901 23.5316C51.5084 23.5658 51.6036 23.6538 51.6476 23.7697C51.6769 23.8753 51.6911 23.9844 51.6906 24.0943V28.4652C51.6969 28.5685 51.6476 28.6676 51.5619 28.7248C51.5045 28.7535 51.4412 28.7685 51.3771 28.7685C51.313 28.7685 51.2498 28.7535 51.1924 28.7248Z" fill="#31A8FF"/>
</g>
<path d="M82.336 42.5V20.1H89.984C91.776 20.1 93.248 20.3987 94.4 20.996C95.552 21.5933 96.4053 22.3933 96.96 23.396C97.5147 24.3987 97.792 25.54 97.792 26.82C97.792 28.036 97.5147 29.156 96.96 30.18C96.4267 31.1827 95.584 31.9933 94.432 32.612C93.28 33.2093 91.7973 33.508 89.984 33.508H85.536V42.5H82.336ZM85.536 30.852H89.856C91.5413 30.852 92.736 30.4893 93.44 29.764C94.1653 29.0173 94.528 28.036 94.528 26.82C94.528 25.5187 94.1653 24.516 93.44 23.812C92.736 23.108 91.5413 22.756 89.856 22.756H85.536V30.852ZM101.082 42.5V19.46H104.282V28.996C104.816 28.0573 105.552 27.3213 106.49 26.788C107.45 26.2547 108.506 25.988 109.658 25.988C110.938 25.988 112.037 26.2547 112.954 26.788C113.872 27.3 114.576 28.0787 115.066 29.124C115.557 30.148 115.802 31.4387 115.802 32.996V42.5H112.634V33.316C112.634 31.8227 112.314 30.692 111.674 29.924C111.034 29.1347 110.085 28.74 108.826 28.74C107.973 28.74 107.205 28.9427 106.522 29.348C105.84 29.7533 105.296 30.3507 104.89 31.14C104.485 31.908 104.282 32.8467 104.282 33.956V42.5H101.082ZM127.255 42.884C125.74 42.884 124.375 42.532 123.159 41.828C121.964 41.124 121.015 40.1427 120.311 38.884C119.628 37.604 119.287 36.132 119.287 34.468C119.287 32.7613 119.639 31.2787 120.343 30.02C121.047 28.74 122.007 27.748 123.223 27.044C124.439 26.34 125.804 25.988 127.319 25.988C128.855 25.988 130.22 26.34 131.415 27.044C132.609 27.748 133.548 28.7293 134.231 29.988C134.935 31.2467 135.287 32.7293 135.287 34.436C135.287 36.1427 134.935 37.6253 134.231 38.884C133.548 40.1427 132.599 41.124 131.383 41.828C130.167 42.532 128.791 42.884 127.255 42.884ZM127.255 40.132C128.129 40.132 128.919 39.9187 129.623 39.492C130.348 39.0653 130.924 38.436 131.351 37.604C131.799 36.7507 132.023 35.6947 132.023 34.436C132.023 33.1773 131.809 32.132 131.383 31.3C130.956 30.4467 130.38 29.8067 129.655 29.38C128.951 28.9533 128.172 28.74 127.319 28.74C126.465 28.74 125.676 28.9533 124.951 29.38C124.225 29.8067 123.639 30.4467 123.191 31.3C122.764 32.132 122.551 33.1773 122.551 34.436C122.551 35.6947 122.764 36.7507 123.191 37.604C123.639 38.436 124.215 39.0653 124.919 39.492C125.644 39.9187 126.423 40.132 127.255 40.132ZM145.082 42.5C144.058 42.5 143.173 42.34 142.426 42.02C141.679 41.7 141.103 41.1667 140.698 40.42C140.293 39.6733 140.09 38.66 140.09 37.38V29.092H137.306V26.372H140.09L140.474 22.34H143.29V26.372H147.866V29.092H143.29V37.412C143.29 38.3293 143.482 38.9587 143.866 39.3C144.25 39.62 144.911 39.78 145.85 39.78H147.706V42.5H145.082ZM158.317 42.884C156.803 42.884 155.437 42.532 154.221 41.828C153.027 41.124 152.077 40.1427 151.373 38.884C150.691 37.604 150.349 36.132 150.349 34.468C150.349 32.7613 150.701 31.2787 151.405 30.02C152.109 28.74 153.069 27.748 154.285 27.044C155.501 26.34 156.867 25.988 158.381 25.988C159.917 25.988 161.283 26.34 162.477 27.044C163.672 27.748 164.611 28.7293 165.293 29.988C165.997 31.2467 166.349 32.7293 166.349 34.436C166.349 36.1427 165.997 37.6253 165.293 38.884C164.611 40.1427 163.661 41.124 162.445 41.828C161.229 42.532 159.853 42.884 158.317 42.884ZM158.317 40.132C159.192 40.132 159.981 39.9187 160.685 39.492C161.411 39.0653 161.987 38.436 162.413 37.604C162.861 36.7507 163.085 35.6947 163.085 34.436C163.085 33.1773 162.872 32.132 162.445 31.3C162.019 30.4467 161.443 29.8067 160.717 29.38C160.013 28.9533 159.235 28.74 158.381 28.74C157.528 28.74 156.739 28.9533 156.013 29.38C155.288 29.8067 154.701 30.4467 154.253 31.3C153.827 32.132 153.613 33.1773 153.613 34.436C153.613 35.6947 153.827 36.7507 154.253 37.604C154.701 38.436 155.277 39.0653 155.981 39.492C156.707 39.9187 157.485 40.132 158.317 40.132ZM176.354 42.884C174.988 42.884 173.794 42.66 172.77 42.212C171.746 41.764 170.935 41.1347 170.338 40.324C169.74 39.5133 169.378 38.564 169.25 37.476H172.514C172.62 37.988 172.823 38.4573 173.122 38.884C173.442 39.3107 173.868 39.652 174.402 39.908C174.956 40.164 175.607 40.292 176.354 40.292C177.058 40.292 177.634 40.196 178.082 40.004C178.551 39.7907 178.892 39.5133 179.106 39.172C179.319 38.8093 179.426 38.4253 179.426 38.02C179.426 37.4227 179.276 36.9747 178.978 36.676C178.7 36.356 178.274 36.1107 177.698 35.94C177.143 35.748 176.471 35.5773 175.682 35.428C174.935 35.3 174.21 35.1293 173.506 34.916C172.823 34.6813 172.204 34.3933 171.65 34.052C171.116 33.7107 170.69 33.284 170.37 32.772C170.05 32.2387 169.89 31.588 169.89 30.82C169.89 29.9027 170.135 29.0813 170.626 28.356C171.116 27.6093 171.81 27.0333 172.706 26.628C173.623 26.2013 174.7 25.988 175.938 25.988C177.73 25.988 179.17 26.4147 180.258 27.268C181.346 28.1213 181.986 29.3267 182.178 30.884H179.074C178.988 30.1587 178.668 29.604 178.114 29.22C177.559 28.8147 176.823 28.612 175.906 28.612C174.988 28.612 174.284 28.7933 173.794 29.156C173.303 29.5187 173.058 29.9987 173.058 30.596C173.058 30.98 173.196 31.3213 173.474 31.62C173.751 31.9187 174.156 32.1747 174.69 32.388C175.244 32.58 175.916 32.7613 176.706 32.932C177.836 33.1453 178.85 33.412 179.746 33.732C180.642 34.052 181.356 34.5213 181.89 35.14C182.423 35.7587 182.69 36.644 182.69 37.796C182.711 38.7987 182.455 39.684 181.922 40.452C181.41 41.22 180.674 41.8173 179.714 42.244C178.775 42.6707 177.655 42.884 176.354 42.884ZM186.457 42.5V19.46H189.657V28.996C190.191 28.0573 190.927 27.3213 191.865 26.788C192.825 26.2547 193.881 25.988 195.033 25.988C196.313 25.988 197.412 26.2547 198.329 26.788C199.247 27.3 199.951 28.0787 200.441 29.124C200.932 30.148 201.177 31.4387 201.177 32.996V42.5H198.009V33.316C198.009 31.8227 197.689 30.692 197.049 29.924C196.409 29.1347 195.46 28.74 194.201 28.74C193.348 28.74 192.58 28.9427 191.897 29.348C191.215 29.7533 190.671 30.3507 190.265 31.14C189.86 31.908 189.657 32.8467 189.657 33.956V42.5H186.457ZM212.63 42.884C211.115 42.884 209.75 42.532 208.534 41.828C207.339 41.124 206.39 40.1427 205.686 38.884C205.003 37.604 204.662 36.132 204.662 34.468C204.662 32.7613 205.014 31.2787 205.718 30.02C206.422 28.74 207.382 27.748 208.598 27.044C209.814 26.34 211.179 25.988 212.694 25.988C214.23 25.988 215.595 26.34 216.79 27.044C217.984 27.748 218.923 28.7293 219.606 29.988C220.31 31.2467 220.662 32.7293 220.662 34.436C220.662 36.1427 220.31 37.6253 219.606 38.884C218.923 40.1427 217.974 41.124 216.758 41.828C215.542 42.532 214.166 42.884 212.63 42.884ZM212.63 40.132C213.504 40.132 214.294 39.9187 214.998 39.492C215.723 39.0653 216.299 38.436 216.726 37.604C217.174 36.7507 217.398 35.6947 217.398 34.436C217.398 33.1773 217.184 32.132 216.758 31.3C216.331 30.4467 215.755 29.8067 215.03 29.38C214.326 28.9533 213.547 28.74 212.694 28.74C211.84 28.74 211.051 28.9533 210.326 29.38C209.6 29.8067 209.014 30.4467 208.566 31.3C208.139 32.132 207.926 33.1773 207.926 34.436C207.926 35.6947 208.139 36.7507 208.566 37.604C209.014 38.436 209.59 39.0653 210.294 39.492C211.019 39.9187 211.798 40.132 212.63 40.132ZM224.426 49.54V26.372H227.306L227.626 28.868C227.967 28.3773 228.394 27.9187 228.906 27.492C229.418 27.044 230.026 26.6813 230.73 26.404C231.455 26.1267 232.298 25.988 233.258 25.988C234.794 25.988 236.138 26.3613 237.29 27.108C238.463 27.8547 239.37 28.868 240.01 30.148C240.671 31.4067 241.002 32.8467 241.002 34.468C241.002 36.0893 240.671 37.54 240.01 38.82C239.349 40.0787 238.431 41.0707 237.258 41.796C236.106 42.5213 234.762 42.884 233.226 42.884C231.967 42.884 230.858 42.6387 229.898 42.148C228.938 41.636 228.181 40.932 227.626 40.036V49.54H224.426ZM232.714 40.1C233.695 40.1 234.559 39.8653 235.306 39.396C236.074 38.9267 236.671 38.2653 237.098 37.412C237.546 36.5587 237.77 35.5667 237.77 34.436C237.77 33.3053 237.546 32.324 237.098 31.492C236.671 30.6387 236.074 29.9773 235.306 29.508C234.559 29.0173 233.695 28.772 232.714 28.772C231.711 28.772 230.826 29.0173 230.058 29.508C229.311 29.9773 228.725 30.6387 228.298 31.492C227.871 32.324 227.658 33.3053 227.658 34.436C227.658 35.5667 227.871 36.5587 228.298 37.412C228.725 38.2653 229.311 38.9267 230.058 39.396C230.826 39.8653 231.711 40.1 232.714 40.1Z" fill="white"/>
<defs>
<clipPath id="clip0_96_241">
<rect width="64" height="63" fill="white"/>
</clipPath>
</defs>
</svg>
