<svg width="171" height="64" viewBox="0 0 171 64" fill="none" xmlns="http://www.w3.org/2000/svg">
<g clip-path="url(#clip0_96_261)">
<path d="M49 0H15C6.71573 0 0 6.71573 0 15V49C0 57.2843 6.71573 64 15 64H49C57.2843 64 64 57.2843 64 49V15C64 6.71573 57.2843 0 49 0Z" fill="#242938"/>
<mask id="mask0_96_261" style="mask-type:luminance" maskUnits="userSpaceOnUse" x="15" y="7" width="34" height="50">
<path d="M15.25 7H48.59V57H15.25V7Z" fill="white"/>
</mask>
<g mask="url(#mask0_96_261)">
<path d="M23.5867 57C28.1867 57 31.9199 53.2668 31.9199 48.6668V40.3333H23.5867C18.9867 40.3333 15.2532 44.0668 15.2532 48.6668C15.2532 53.2668 18.9867 57 23.5867 57Z" fill="#0ACF83"/>
<path d="M15.2532 32C15.2532 27.4 18.9867 23.6667 23.5867 23.6667H31.9199V40.3332H23.5867C18.9867 40.3332 15.2532 36.6 15.2532 32Z" fill="#A259FF"/>
<path d="M15.2532 15.3333C15.2532 10.7333 18.9867 7 23.5867 7H31.9199V23.6667H23.5867C18.9867 23.6667 15.2532 19.9332 15.2532 15.3333Z" fill="#F24E1E"/>
<path d="M31.9199 7H40.2532C44.8532 7 48.5867 10.7333 48.5867 15.3333C48.5867 19.9332 44.8532 23.6667 40.2532 23.6667H31.9199V7Z" fill="#FF7262"/>
<path d="M48.5867 32C48.5867 36.6 44.8532 40.3332 40.2532 40.3332C35.6532 40.3332 31.9199 36.6 31.9199 32C31.9199 27.4 35.6532 23.6667 40.2532 23.6667C44.8532 23.6667 48.5867 27.4 48.5867 32Z" fill="#1ABCFE"/>
</g>
</g>
<path d="M82.336 43V20.6H96.256V23.224H85.536V30.488H94.496V33.048H85.536V43H82.336ZM99.7438 43V26.872H102.944V43H99.7438ZM101.376 23.832C100.757 23.832 100.245 23.64 99.8398 23.256C99.4558 22.872 99.2638 22.3813 99.2638 21.784C99.2638 21.208 99.4558 20.7387 99.8398 20.376C100.245 19.992 100.757 19.8 101.376 19.8C101.973 19.8 102.474 19.992 102.88 20.376C103.285 20.7387 103.488 21.208 103.488 21.784C103.488 22.3813 103.285 22.872 102.88 23.256C102.474 23.64 101.973 23.832 101.376 23.832ZM114.08 50.424C112.608 50.424 111.306 50.232 110.176 49.848C109.045 49.4853 108.17 48.92 107.552 48.152C106.933 47.384 106.624 46.4453 106.624 45.336C106.624 44.76 106.752 44.1733 107.008 43.576C107.264 43 107.68 42.4453 108.256 41.912C108.832 41.3787 109.61 40.8987 110.592 40.472L112.384 41.912C111.296 42.3173 110.56 42.7973 110.176 43.352C109.813 43.928 109.632 44.4827 109.632 45.016C109.632 45.656 109.824 46.1893 110.208 46.616C110.592 47.0427 111.114 47.3627 111.776 47.576C112.458 47.7893 113.226 47.896 114.08 47.896C114.912 47.896 115.637 47.7787 116.256 47.544C116.874 47.3093 117.354 46.9787 117.696 46.552C118.037 46.1253 118.208 45.624 118.208 45.048C118.208 44.3653 117.952 43.7893 117.44 43.32C116.928 42.872 115.946 42.6053 114.496 42.52C113.28 42.4347 112.245 42.3173 111.392 42.168C110.56 42.0187 109.845 41.8373 109.248 41.624C108.672 41.4107 108.181 41.176 107.776 40.92C107.392 40.664 107.061 40.3973 106.784 40.12V39.384L109.984 36.088L112.576 36.984L109.088 40.216L109.76 38.776C109.994 38.9253 110.218 39.0747 110.432 39.224C110.645 39.352 110.933 39.4693 111.296 39.576C111.658 39.6827 112.149 39.7787 112.768 39.864C113.386 39.9493 114.197 40.0347 115.2 40.12C116.65 40.2267 117.813 40.4827 118.688 40.888C119.584 41.2933 120.234 41.8373 120.64 42.52C121.045 43.2027 121.248 44.0133 121.248 44.952C121.248 45.8693 120.992 46.744 120.48 47.576C119.989 48.408 119.21 49.0907 118.144 49.624C117.098 50.1573 115.744 50.424 114.08 50.424ZM114.08 38.04C112.714 38.04 111.552 37.784 110.592 37.272C109.653 36.76 108.928 36.0667 108.416 35.192C107.925 34.3173 107.68 33.3467 107.68 32.28C107.68 31.192 107.925 30.2213 108.416 29.368C108.928 28.4933 109.664 27.8 110.624 27.288C111.584 26.7547 112.736 26.488 114.08 26.488C115.424 26.488 116.565 26.7547 117.504 27.288C118.464 27.8 119.189 28.4933 119.68 29.368C120.192 30.2213 120.448 31.192 120.448 32.28C120.448 33.3467 120.192 34.3173 119.68 35.192C119.189 36.0667 118.464 36.76 117.504 37.272C116.565 37.784 115.424 38.04 114.08 38.04ZM114.08 35.48C115.125 35.48 115.957 35.2133 116.576 34.68C117.194 34.1253 117.504 33.3253 117.504 32.28C117.504 31.2347 117.194 30.4453 116.576 29.912C115.957 29.3573 115.125 29.08 114.08 29.08C113.034 29.08 112.192 29.3573 111.552 29.912C110.912 30.4453 110.592 31.2347 110.592 32.28C110.592 33.3253 110.912 34.1253 111.552 34.68C112.192 35.2133 113.034 35.48 114.08 35.48ZM116.704 29.4L115.936 26.872H122.56V29.08L116.704 29.4ZM125.77 43V26.872H128.65L128.874 29.144C129.386 28.312 130.068 27.6613 130.922 27.192C131.775 26.7227 132.735 26.488 133.802 26.488C134.612 26.488 135.348 26.6053 136.01 26.84C136.671 27.0533 137.258 27.384 137.77 27.832C138.282 28.28 138.698 28.8347 139.018 29.496C139.594 28.5573 140.362 27.8213 141.322 27.288C142.303 26.7547 143.338 26.488 144.426 26.488C145.727 26.488 146.847 26.7547 147.786 27.288C148.724 27.8 149.439 28.5787 149.93 29.624C150.42 30.648 150.666 31.928 150.666 33.464V43H147.498V33.784C147.498 32.2907 147.188 31.16 146.57 30.392C145.972 29.624 145.087 29.24 143.914 29.24C143.124 29.24 142.42 29.4427 141.802 29.848C141.183 30.2533 140.692 30.84 140.33 31.608C139.988 32.376 139.818 33.3147 139.818 34.424V43H136.618V33.784C136.618 32.2907 136.308 31.16 135.69 30.392C135.092 29.624 134.207 29.24 133.034 29.24C132.287 29.24 131.604 29.4427 130.986 29.848C130.367 30.2533 129.876 30.84 129.514 31.608C129.151 32.376 128.97 33.3147 128.97 34.424V43H125.77ZM160.145 43.384C158.822 43.384 157.724 43.16 156.849 42.712C155.974 42.264 155.324 41.6667 154.897 40.92C154.47 40.152 154.257 39.3307 154.257 38.456C154.257 37.3893 154.534 36.4827 155.089 35.736C155.644 34.968 156.433 34.3813 157.457 33.976C158.481 33.5707 159.708 33.368 161.137 33.368H165.329C165.329 32.4293 165.19 31.6507 164.913 31.032C164.636 30.4133 164.22 29.9547 163.665 29.656C163.132 29.336 162.449 29.176 161.617 29.176C160.657 29.176 159.836 29.4107 159.153 29.88C158.47 30.328 158.044 31 157.873 31.896H154.673C154.801 30.7653 155.185 29.8053 155.825 29.016C156.486 28.2053 157.329 27.5867 158.353 27.16C159.377 26.712 160.465 26.488 161.617 26.488C163.132 26.488 164.401 26.7547 165.425 27.288C166.449 27.8213 167.217 28.5787 167.729 29.56C168.262 30.52 168.529 31.672 168.529 33.016V43H165.745L165.489 40.28C165.254 40.7067 164.977 41.112 164.657 41.496C164.337 41.88 163.953 42.2107 163.505 42.488C163.078 42.7653 162.577 42.9787 162.001 43.128C161.446 43.2987 160.828 43.384 160.145 43.384ZM160.753 40.792C161.436 40.792 162.054 40.6533 162.609 40.376C163.164 40.0987 163.633 39.7253 164.017 39.256C164.422 38.7653 164.721 38.2213 164.913 37.624C165.126 37.0053 165.244 36.376 165.265 35.736V35.64H161.457C160.54 35.64 159.793 35.7573 159.217 35.992C158.662 36.2053 158.257 36.504 158.001 36.888C157.745 37.272 157.617 37.72 157.617 38.232C157.617 38.7653 157.734 39.224 157.969 39.608C158.225 39.9707 158.588 40.2587 159.057 40.472C159.526 40.6853 160.092 40.792 160.753 40.792Z" fill="white"/>
<defs>
<clipPath id="clip0_96_261">
<rect width="64" height="64" fill="white"/>
</clipPath>
</defs>
</svg>
