<svg width="151" height="40" viewBox="0 0 151 40" fill="none" xmlns="http://www.w3.org/2000/svg">
<path fill-rule="evenodd" clip-rule="evenodd" d="M17.6411 0.173644C19.7873 -0.0578814 21.0573 -0.0578814 23.3634 0.173644C27.4454 0.75702 31.2295 2.5789 34.1685 5.37584C32.1824 7.18842 30.2225 9.02746 28.2893 10.8924C24.5869 7.8626 20.4544 7.16325 15.8916 8.79442C12.5445 10.2807 10.2138 12.6894 8.89939 16.0203C6.75152 14.4763 4.63163 12.8964 2.54068 11.2812C2.39537 11.2073 2.22939 11.1803 2.06703 11.204C5.38848 5.02045 10.5789 1.34271 17.6382 0.170786" fill="#F44336"/>
<path fill-rule="evenodd" clip-rule="evenodd" d="M2.06111 11.204C2.22886 11.1793 2.38773 11.2049 2.53772 11.2812C4.62867 12.8964 6.74855 14.4763 8.89643 16.0203C8.55844 17.3182 8.34538 18.6434 8.25997 19.9792C8.33298 21.2711 8.54514 22.5393 8.89643 23.7836L2.22096 28.9144C-0.686041 23.049 -0.739326 17.1455 2.06111 11.204Z" fill="#FFC107"/>
<path fill-rule="evenodd" clip-rule="evenodd" d="M33.8517 35.1284C31.7732 33.3585 29.5971 31.6982 27.3332 30.1549C29.6027 28.6075 30.9802 26.4847 31.4657 23.7865H20.3439V16.329C26.7579 16.2775 33.1689 16.3299 39.5769 16.4863C40.7926 22.8603 39.3884 28.6075 35.3644 33.7278C34.8859 34.2189 34.3791 34.6864 33.8517 35.1284Z" fill="#448AFF"/>
<path fill-rule="evenodd" clip-rule="evenodd" d="M8.89643 23.7865C11.3239 29.6118 15.7742 32.331 22.2474 31.9442C24.0645 31.741 25.8067 31.1281 27.3332 30.1549C29.5987 31.7022 31.7716 33.36 33.8517 35.1284C30.5558 37.988 26.3536 39.6848 21.9306 39.9418C20.9257 40.0194 19.916 40.0194 18.9111 39.9418C11.3761 39.0843 5.81279 35.4085 2.22096 28.9144L8.89643 23.7865Z" fill="#43A047"/>
<path d="M57.3002 19.4101C55.3684 19.4101 53.7034 19.02 52.3051 18.2396C50.9253 17.442 49.8582 16.3408 49.1039 14.9362C48.368 13.5143 48 11.8756 48 10.0202C48 8.16469 48.368 6.52599 49.1039 5.10409C49.8582 3.68219 50.9253 2.57239 52.3051 1.77469C53.7034 0.977009 55.3684 0.578169 57.3002 0.578169C59.6368 0.578169 61.5502 1.1244 63.0404 2.21689C64.5306 3.30929 65.4597 4.85269 65.8277 6.84679H61.7709C61.5317 5.87569 61.0258 5.12139 60.2531 4.58389C59.4988 4.02899 58.5053 3.75149 57.2726 3.75149C56.1319 3.75149 55.1476 4.01159 54.3197 4.53189C53.5102 5.03469 52.8847 5.75439 52.4431 6.69079C52.0016 7.60979 51.7808 8.71959 51.7808 10.0202C51.7808 11.3034 52.0016 12.4132 52.4431 13.3496C52.8847 14.286 53.5102 15.0056 54.3197 15.5085C55.1476 16.0114 56.1319 16.2628 57.2726 16.2628C58.5053 16.2628 59.4988 16.0114 60.2531 15.5085C61.0074 14.9883 61.5042 14.2686 61.7433 13.3496H65.8277C65.4597 15.2397 64.5306 16.7223 63.0404 17.7974C61.5502 18.8726 59.6368 19.4101 57.3002 19.4101Z" fill="white"/>
<path d="M73.673 19.4101C72.2747 19.4101 71.0329 19.1327 69.9474 18.5778C68.8803 18.0055 68.0432 17.2165 67.4361 16.2108C66.8473 15.1877 66.553 14.0085 66.553 12.6733C66.553 11.3034 66.8473 10.0982 67.4361 9.05781C68.0432 8.00001 68.8803 7.17631 69.9474 6.58671C71.0145 5.97981 72.2563 5.67631 73.673 5.67631C75.0528 5.67631 76.2579 5.96251 77.2882 6.53471C78.3185 7.10691 79.1188 7.87861 79.6891 8.84971C80.2595 9.82071 80.5446 10.9219 80.5446 12.1531C80.5446 12.3265 80.5446 12.5259 80.5446 12.7513C80.5446 12.9594 80.5262 13.1762 80.4895 13.4016H69.2023V11.2687H76.7915C76.7363 10.419 76.4143 9.75141 75.8256 9.26581C75.2552 8.78031 74.5377 8.53751 73.673 8.53751C73.0475 8.53751 72.4679 8.67631 71.9344 8.95371C71.4008 9.21381 70.9777 9.62131 70.6649 10.1762C70.3705 10.7311 70.2234 11.4334 70.2234 12.2831V13.0374C70.2234 13.7484 70.3613 14.3727 70.6373 14.9102C70.9317 15.4304 71.3364 15.8379 71.8516 16.1327C72.3667 16.4102 72.9647 16.5489 73.6454 16.5489C74.3261 16.5489 74.8873 16.4102 75.3288 16.1327C75.7888 15.8553 76.1291 15.4998 76.3499 15.0663H80.1583C79.9007 15.8813 79.4684 16.6183 78.8612 17.2772C78.2541 17.9362 77.509 18.4564 76.6259 18.8379C75.7428 19.2194 74.7585 19.4101 73.673 19.4101Z" fill="white"/>
<path d="M81.6638 19.098V5.98851H84.9755L85.3343 8.40751C85.6654 7.83521 86.0794 7.34971 86.5761 6.95091C87.0913 6.55201 87.6708 6.23991 88.3147 6.01451C88.9771 5.78901 89.7038 5.67631 90.4949 5.67631V9.39591H89.2254C88.6735 9.39591 88.1583 9.45661 87.68 9.57801C87.22 9.69941 86.8153 9.89881 86.4657 10.1762C86.1162 10.4363 85.8494 10.8005 85.6654 11.2687C85.4814 11.7369 85.3894 12.3265 85.3894 13.0374V19.098H81.6638Z" fill="white"/>
<path d="M97.289 19.0981C96.314 19.0981 95.458 18.9594 94.722 18.6819C94.0048 18.3871 93.4436 17.9103 93.0389 17.2513C92.6341 16.575 92.4317 15.656 92.4317 14.4941V8.92779H90.0583V5.98859H92.4317L92.8456 2.42509H96.157V5.98859H99.8279V8.92779H96.157V14.5462C96.157 15.1357 96.295 15.5433 96.571 15.7687C96.847 15.9941 97.316 16.1068 97.979 16.1068H99.7999V19.0981H97.289Z" fill="white"/>
<path d="M101.114 19.098V5.98849H104.84V19.098H101.114ZM102.991 4.19369C102.329 4.19369 101.777 4.01159 101.335 3.64749C100.912 3.26599 100.7 2.78909 100.7 2.21689C100.7 1.64459 100.912 1.17643 101.335 0.812275C101.777 0.430785 102.329 0.240034 102.991 0.240034C103.672 0.240034 104.223 0.430785 104.647 0.812275C105.088 1.17643 105.309 1.64459 105.309 2.21689C105.309 2.78909 105.088 3.26599 104.647 3.64749C104.223 4.01159 103.672 4.19369 102.991 4.19369Z" fill="white"/>
<path d="M107.307 19.0979V8.92756H105.403V5.98836H107.307V4.81786C107.307 3.72536 107.501 2.85836 107.887 2.21676C108.273 1.57516 108.825 1.10693 109.543 0.812143C110.279 0.517353 111.134 0.369963 112.109 0.369963H113.627V3.36126H112.661C112.091 3.36126 111.677 3.47396 111.419 3.69936C111.162 3.90746 111.033 4.27156 111.033 4.79186V5.98836H119.781V19.0979H116.056V8.92756H111.033V19.0979H107.307ZM117.932 4.21956C117.27 4.21956 116.718 4.02886 116.276 3.64736C115.853 3.26586 115.642 2.78896 115.642 2.21676C115.642 1.64446 115.853 1.1763 116.276 0.812143C116.718 0.447993 117.27 0.265913 117.932 0.265913C118.613 0.265913 119.165 0.447993 119.588 0.812143C120.03 1.1763 120.25 1.64446 120.25 2.21676C120.25 2.78896 120.03 3.26586 119.588 3.64736C119.165 4.02886 118.613 4.21956 117.932 4.21956Z" fill="white"/>
<path d="M128.263 19.4101C126.865 19.4101 125.623 19.1327 124.538 18.5778C123.471 18.0055 122.633 17.2165 122.026 16.2108C121.438 15.1877 121.143 14.0085 121.143 12.6733C121.143 11.3034 121.438 10.0982 122.026 9.05781C122.633 8.00001 123.471 7.17631 124.538 6.58671C125.605 5.97981 126.847 5.67631 128.263 5.67631C129.643 5.67631 130.848 5.96251 131.878 6.53471C132.909 7.10691 133.709 7.87861 134.279 8.84971C134.85 9.82071 135.135 10.9219 135.135 12.1531C135.135 12.3265 135.135 12.5259 135.135 12.7513C135.135 12.9594 135.116 13.1762 135.08 13.4016H123.792V11.2687H131.382C131.326 10.419 131.005 9.75141 130.416 9.26581C129.845 8.78031 129.128 8.53751 128.263 8.53751C127.638 8.53751 127.058 8.67631 126.525 8.95371C125.991 9.21381 125.568 9.62131 125.255 10.1762C124.961 10.7311 124.814 11.4334 124.814 12.2831V13.0374C124.814 13.7484 124.952 14.3727 125.228 14.9102C125.522 15.4304 125.927 15.8379 126.442 16.1327C126.957 16.4102 127.555 16.5489 128.236 16.5489C128.916 16.5489 129.477 16.4102 129.919 16.1327C130.379 15.8553 130.719 15.4998 130.94 15.0663H134.749C134.491 15.8813 134.059 16.6183 133.451 17.2772C132.844 17.9362 132.099 18.4564 131.216 18.8379C130.333 19.2194 129.349 19.4101 128.263 19.4101Z" fill="white"/>
<path d="M142.436 19.4102C141.167 19.4102 140.026 19.1154 139.014 18.5258C138.02 17.9363 137.239 17.1213 136.668 16.0808C136.098 15.0404 135.813 13.8699 135.813 12.5693C135.813 11.2341 136.098 10.0549 136.668 9.03176C137.257 7.99136 138.057 7.17636 139.069 6.58676C140.099 5.97986 141.249 5.67636 142.519 5.67636C143.512 5.67636 144.386 5.84976 145.141 6.19666C145.895 6.54346 146.502 7.03766 146.962 7.67926V0.370161H150.688V19.0981H147.376L146.962 17.3033C146.686 17.6675 146.336 18.0143 145.913 18.3438C145.508 18.6732 145.021 18.9334 144.451 19.1241C143.88 19.3148 143.209 19.4102 142.436 19.4102ZM143.319 16.3409C144.055 16.3409 144.699 16.1849 145.251 15.8727C145.821 15.5433 146.263 15.0924 146.576 14.5202C146.888 13.9479 147.045 13.289 147.045 12.5433C147.045 11.7977 146.888 11.1387 146.576 10.5665C146.263 9.99426 145.821 9.55206 145.251 9.23986C144.699 8.91046 144.055 8.74566 143.319 8.74566C142.62 8.74566 141.985 8.91046 141.415 9.23986C140.845 9.55206 140.394 9.99426 140.063 10.5665C139.75 11.1387 139.594 11.789 139.594 12.5173C139.594 13.2803 139.75 13.9479 140.063 14.5202C140.394 15.0924 140.835 15.5433 141.387 15.8727C141.958 16.1849 142.602 16.3409 143.319 16.3409Z" fill="white"/>
<path d="M50 39.4477V21.24H57.23C58.794 21.24 60.091 21.4915 61.122 21.9943C62.152 22.4972 62.915 23.1735 63.412 24.0232C63.909 24.8729 64.157 25.844 64.157 26.9364C64.157 27.9422 63.918 28.8699 63.44 29.7196C62.961 30.5693 62.207 31.2629 61.177 31.8005C60.147 32.3207 58.831 32.5808 57.23 32.5808H53.726V39.4477H50ZM53.726 29.7456H57.01C58.206 29.7456 59.061 29.4942 59.576 28.9913C60.11 28.4711 60.377 27.7861 60.377 26.9364C60.377 26.0347 60.11 25.3411 59.576 24.8555C59.061 24.3527 58.206 24.1012 57.01 24.1012H53.726V29.7456Z" fill="white"/>
<path d="M68.712 39.76C67.553 39.76 66.597 39.5866 65.842 39.2398C65.088 38.8756 64.527 38.3988 64.159 37.8092C63.809 37.2023 63.634 36.5347 63.634 35.8064C63.634 35.0087 63.846 34.3064 64.269 33.6995C64.711 33.0925 65.364 32.6157 66.229 32.2689C67.112 31.9221 68.216 31.7486 69.54 31.7486H72.99C72.99 31.107 72.898 30.5781 72.714 30.162C72.53 29.7285 72.245 29.4077 71.858 29.1996C71.472 28.9915 70.957 28.8874 70.313 28.8874C69.614 28.8874 69.016 29.0348 68.519 29.3296C68.041 29.6071 67.746 30.0406 67.636 30.6302H64.021C64.113 29.6938 64.435 28.8874 64.987 28.2112C65.557 27.5175 66.302 26.98 67.222 26.5985C68.16 26.217 69.2 26.0262 70.341 26.0262C71.647 26.0262 72.778 26.2343 73.735 26.6505C74.692 27.0667 75.428 27.6649 75.943 28.4453C76.458 29.2256 76.715 30.188 76.715 31.3325V39.4479H73.569L73.155 37.445C72.953 37.7919 72.714 38.104 72.438 38.3814C72.162 38.6589 71.84 38.9017 71.472 39.1097C71.104 39.3178 70.69 39.4739 70.23 39.5779C69.77 39.6993 69.264 39.76 68.712 39.76ZM69.595 37.0549C70.074 37.0549 70.497 36.9768 70.865 36.8208C71.251 36.6474 71.582 36.4219 71.858 36.1445C72.134 35.8497 72.346 35.5202 72.493 35.1561C72.659 34.7746 72.769 34.3671 72.824 33.9336V33.9076H69.982C69.411 33.9076 68.942 33.9769 68.574 34.1156C68.225 34.237 67.967 34.4191 67.802 34.6619C67.636 34.9046 67.553 35.1821 67.553 35.4942C67.553 35.841 67.636 36.1272 67.802 36.3526C67.967 36.578 68.206 36.7514 68.519 36.8728C68.832 36.9942 69.191 37.0549 69.595 37.0549Z" fill="white"/>
<path d="M78.259 39.4479V26.3384H81.571L81.93 28.7574C82.261 28.1851 82.675 27.6996 83.171 27.3008C83.687 26.9019 84.266 26.5898 84.91 26.3644C85.572 26.1389 86.299 26.0262 87.09 26.0262V29.7458H85.821C85.269 29.7458 84.754 29.8065 84.275 29.9279C83.815 30.0493 83.411 30.2487 83.061 30.5261C82.712 30.7862 82.445 31.1504 82.261 31.6186C82.077 32.0868 81.985 32.6764 81.985 33.3873V39.4479H78.259Z" fill="white"/>
<path d="M93.8841 39.4479C92.9091 39.4479 92.0531 39.3092 91.3181 39.0317C90.6001 38.7369 90.0391 38.2601 89.6341 37.6011C89.2291 36.9248 89.0271 36.0058 89.0271 34.8439V29.2776H86.6541V26.3384H89.0271L89.4411 22.7749H92.7531V26.3384H96.4231V29.2776H92.7531V34.896C92.7531 35.4855 92.8911 35.8931 93.1671 36.1185C93.4421 36.3439 93.9121 36.4566 94.5741 36.4566H96.3951V39.4479H93.8841Z" fill="white"/>
<path d="M97.627 39.4479V26.3384H100.911L101.187 28.4713C101.61 27.743 102.208 27.1534 102.981 26.7025C103.772 26.2517 104.71 26.0262 105.795 26.0262C106.954 26.0262 107.93 26.2517 108.721 26.7025C109.512 27.1534 110.11 27.8123 110.514 28.6793C110.938 29.5464 111.149 30.6128 111.149 31.8787V39.4479H107.451V32.2168C107.451 31.1764 107.212 30.3787 106.734 29.8238C106.274 29.2689 105.556 28.9915 104.581 28.9915C103.956 28.9915 103.394 29.1302 102.898 29.4077C102.419 29.6851 102.042 30.0839 101.766 30.6042C101.49 31.107 101.352 31.7226 101.352 32.4509V39.4479H97.627Z" fill="white"/>
<path d="M119.406 39.76C118.008 39.76 116.766 39.4826 115.68 38.9277C114.613 38.3554 113.776 37.5664 113.169 36.5607C112.58 35.5376 112.286 34.3584 112.286 33.0232C112.286 31.6533 112.58 30.4481 113.169 29.4077C113.776 28.3499 114.613 27.5262 115.68 26.9366C116.747 26.3297 117.989 26.0262 119.406 26.0262C120.786 26.0262 121.991 26.3124 123.021 26.8846C124.051 27.4568 124.852 28.2285 125.422 29.1996C125.992 30.1706 126.278 31.2718 126.278 32.503C126.278 32.6764 126.278 32.8758 126.278 33.1012C126.278 33.3093 126.259 33.5261 126.222 33.7515H114.935V31.6186H122.524C122.469 30.7689 122.147 30.1013 121.558 29.6157C120.988 29.1302 120.271 28.8874 119.406 28.8874C118.78 28.8874 118.201 29.0262 117.667 29.3036C117.134 29.5637 116.711 29.9712 116.398 30.5261C116.103 31.081 115.956 31.7833 115.956 32.633V33.3873C115.956 34.0983 116.094 34.7226 116.37 35.2601C116.665 35.7803 117.069 36.1878 117.584 36.4826C118.1 36.7601 118.698 36.8988 119.378 36.8988C120.059 36.8988 120.62 36.7601 121.062 36.4826C121.522 36.2052 121.862 35.8497 122.083 35.4162H125.891C125.634 36.2312 125.201 36.9682 124.594 37.6271C123.987 38.2861 123.242 38.8063 122.359 39.1878C121.476 39.5693 120.491 39.76 119.406 39.76Z" fill="white"/>
<path d="M127.397 39.4479V26.3384H130.709L131.067 28.7574C131.399 28.1851 131.812 27.6996 132.309 27.3008C132.824 26.9019 133.404 26.5898 134.048 26.3644C134.71 26.1389 135.437 26.0262 136.228 26.0262V29.7458H134.959C134.407 29.7458 133.891 29.8065 133.413 29.9279C132.953 30.0493 132.548 30.2487 132.199 30.5261C131.849 30.7862 131.582 31.1504 131.399 31.6186C131.215 32.0868 131.123 32.6764 131.123 33.3873V39.4479H127.397Z" fill="white"/>
</svg>
