<svg width="177" height="52" viewBox="0 0 177 52" fill="none" xmlns="http://www.w3.org/2000/svg">
<g clip-path="url(#clip0_94_172)">
<mask id="mask0_94_172" style="mask-type:luminance" maskUnits="userSpaceOnUse" x="0" y="0" width="177" height="52">
<path d="M176.515 0H0V51.465H176.515V0Z" fill="white"/>
</mask>
<g mask="url(#mask0_94_172)">
<path fill-rule="evenodd" clip-rule="evenodd" d="M0 46.153H10.787C11.901 46.153 12.812 45.242 12.812 44.128V25.438L32.947 47.863L53.083 25.438V44.128C53.083 45.242 53.994 46.153 55.108 46.153H65.894V6.10498H56.735C54.088 6.10498 52.115 7.37998 51.049 8.56598L32.947 28.726L14.845 8.56598C13.78 7.37998 11.806 6.10498 9.16 6.10498H0V46.153Z" fill="white"/>
<path fill-rule="evenodd" clip-rule="evenodd" d="M121.126 46.1531H174.49C175.604 46.1531 176.515 45.2421 176.515 44.1281V33.4621H150.568L176.44 6.14209H123.109C121.996 6.14209 121.084 7.05409 121.084 8.16709V18.8331H146.998L121.126 46.1531Z" fill="white"/>
<path fill-rule="evenodd" clip-rule="evenodd" d="M95.0639 0C111.349 0 124.551 11.383 124.551 25.733C124.551 40.082 111.349 51.465 95.0639 51.465C78.7779 51.465 65.5769 40.082 65.5769 25.733C65.5769 11.383 78.7779 0 95.0639 0ZM95.0639 12.859C103.005 12.859 109.815 18.623 109.815 25.733C109.815 32.842 103.211 38.606 95.0639 38.606C86.9169 38.606 80.3119 32.842 80.3119 25.733C80.3119 18.623 87.1229 12.859 95.0639 12.859Z" fill="white"/>
</g>
</g>
<defs>
<clipPath id="clip0_94_172">
<rect width="176.515" height="51.465" fill="white"/>
</clipPath>
</defs>
</svg>
