<svg width="128" height="26" viewBox="0 0 128 26" fill="none" xmlns="http://www.w3.org/2000/svg">
<g clip-path="url(#clip0_90_642)">
<path d="M107.386 0.01075V4.12575H98.5415V25.775H94.119V4.126H85.0905V0.01075H107.386ZM108.38 23.3207C108.691 23.3207 108.964 23.4327 109.195 23.6572C109.429 23.8815 109.545 24.1502 109.549 24.4632C109.548 24.6686 109.491 24.8698 109.383 25.045C109.278 25.2177 109.131 25.3608 108.955 25.4613C108.781 25.5653 108.582 25.6195 108.38 25.6178C108.056 25.6178 107.781 25.5055 107.55 25.2812C107.319 25.0567 107.205 24.785 107.208 24.4632C107.205 24.1502 107.319 23.8816 107.55 23.6572C107.781 23.4327 108.056 23.3207 108.38 23.3207ZM20.729 25.775L4.4225 5.507V25.7645H0V0H5.52775L26.1292 25.5823L26.1295 4.126L26.1278 0.01075H48.4227V4.12575H30.5518V10.7458H44.9238V14.861H30.5518V21.66H48.423V25.775H20.729ZM62.5962 14.8217L65.4945 18.425L59.5558 25.8055H53.752L62.5962 14.8217ZM59.5558 0.0215L67.0383 9.314L74.4973 0.05L80.2848 0.04125L69.9358 12.9125L80.3015 25.7857H74.4973L53.7685 0.0215H59.5558ZM115.928 14.764H117.887V22.314C117.885 23.0077 117.734 23.601 117.441 24.1003C117.144 24.599 116.733 24.98 116.206 25.2488C115.682 25.5143 115.068 25.6502 114.369 25.6502C113.731 25.6502 113.159 25.5352 112.65 25.3107C112.14 25.0862 111.736 24.7497 111.439 24.3067C111.139 23.864 110.993 23.3117 110.993 22.6505H112.955C112.958 22.9397 113.024 23.1905 113.15 23.4005C113.274 23.6078 113.455 23.7749 113.672 23.8815C113.896 23.994 114.154 24.0502 114.444 24.05C114.759 24.05 115.029 23.985 115.247 23.852C115.466 23.722 115.634 23.5272 115.751 23.2675C115.865 23.0105 115.925 22.6917 115.928 22.3137V14.764ZM125.95 17.7165C125.903 17.259 125.693 16.9015 125.327 16.6478C124.958 16.3908 124.482 16.264 123.898 16.264C123.488 16.264 123.134 16.326 122.84 16.447C122.547 16.571 122.319 16.7362 122.163 16.946C122.008 17.1555 121.929 17.3947 121.923 17.6635C121.923 17.8877 121.977 18.0828 122.082 18.245C122.191 18.4152 122.337 18.5578 122.51 18.6615C122.699 18.7798 122.9 18.8758 123.11 18.9478C123.332 19.0244 123.553 19.0894 123.775 19.1427L124.797 19.3937C125.208 19.4882 125.606 19.615 125.987 19.7775C126.367 19.937 126.711 20.1407 127.014 20.3857C127.317 20.6307 127.557 20.926 127.733 21.2715C127.91 21.617 128 22.0215 128 22.488C128 23.1168 127.838 23.669 127.511 24.1472C127.185 24.6227 126.715 24.9948 126.097 25.2635C125.483 25.5293 124.74 25.665 123.865 25.665C123.02 25.665 122.283 25.535 121.662 25.2752C121.039 25.0185 120.554 24.6403 120.203 24.1443C119.852 23.6483 119.664 23.043 119.637 22.3315H121.579C121.606 22.7035 121.726 23.0135 121.929 23.2645C122.136 23.5125 122.406 23.6955 122.735 23.8195C123.068 23.9407 123.439 24.0028 123.85 24.0028C124.278 24.0028 124.656 23.9377 124.982 23.8107C125.306 23.6837 125.561 23.5068 125.744 23.2763C125.93 23.0488 126.022 22.7802 126.025 22.4732C126.022 22.1927 125.938 21.9595 125.776 21.7763C125.612 21.5933 125.384 21.4398 125.093 21.3158C124.8 21.1918 124.458 21.0795 124.069 20.9823L122.828 20.6693C121.932 20.4418 121.222 20.0965 120.704 19.6327C120.183 19.1692 119.925 18.5553 119.925 17.7845C119.925 17.1528 120.098 16.5975 120.449 16.122C120.797 15.647 121.273 15.2778 121.876 15.015C122.481 14.7493 123.164 14.6193 123.925 14.6193C124.698 14.6193 125.375 14.7493 125.96 15.015C126.544 15.2778 127.002 15.6438 127.335 16.1103C127.667 16.577 127.841 17.1112 127.85 17.7165H125.95Z" fill="white"/>
</g>
<defs>
<clipPath id="clip0_90_642">
<rect width="128" height="26" fill="white"/>
</clipPath>
</defs>
</svg>
