<svg width="170" height="51" viewBox="0 0 170 51" fill="none" xmlns="http://www.w3.org/2000/svg">
<path d="M35.3245 8.5577C35.2977 8.32572 35.0829 8.22261 34.9219 8.22261C34.7608 8.22261 31.2445 7.96485 31.2445 7.96485C31.2445 7.96485 28.8018 5.61921 28.5065 5.38723C28.2381 5.12947 27.7281 5.2068 27.5134 5.25835C27.4865 5.25835 26.9765 5.41301 26.1444 5.67077C25.3123 3.37668 23.8897 1.28881 21.3396 1.28881H21.0981C20.4002 0.41242 19.4875 0 18.7359 0C12.8306 0 9.98534 7.08846 9.09955 10.6971C6.79111 11.3931 5.15373 11.8571 4.96583 11.9344C3.6774 12.321 3.65056 12.3468 3.4895 13.5067C3.35529 14.3831 0 39.3087 0 39.3087L26.1176 44L40.2903 41.0615C40.3172 41.01 35.3513 8.78969 35.3245 8.5577ZM24.6949 6.03163C24.0507 6.21207 23.2723 6.44406 22.4939 6.70182V6.23784C22.4939 4.84592 22.306 3.71177 21.957 2.80961C23.2991 2.96426 24.1313 4.38196 24.6949 6.03163ZM20.3196 3.09315C20.6686 3.96954 20.9102 5.20679 20.9102 6.90802V7.16579C19.4607 7.60398 17.9307 8.04218 16.347 8.53192C17.2328 5.28412 18.9238 3.686 20.3196 3.09315ZM18.6017 1.49502C18.8702 1.49502 19.1386 1.59812 19.3533 1.75278C17.4475 2.6034 15.4343 4.74282 14.6022 9.07322C13.3406 9.45987 12.1327 9.79496 10.9785 10.1558C11.9448 6.85647 14.3606 1.49502 18.6017 1.49502Z" fill="#95BF47"/>
<path d="M34.9219 8.17106C34.7608 8.17106 31.2445 7.91329 31.2445 7.91329C31.2445 7.91329 28.8018 5.56766 28.5065 5.33567C28.3992 5.23257 28.265 5.18101 28.1576 5.18101L26.1981 44L40.3709 41.0615C40.3709 41.0615 35.405 8.78969 35.3782 8.5577C35.2708 8.32571 35.0829 8.22261 34.9219 8.17106Z" fill="#5E8E3E"/>
<path d="M21.3396 15.6977L19.6217 20.6725C19.6217 20.6725 18.0649 19.8735 16.2128 19.8735C13.448 19.8735 13.3138 21.5489 13.3138 21.9613C13.3138 24.2296 19.4875 25.106 19.4875 30.4417C19.4875 34.6432 16.7228 37.3497 12.9917 37.3497C8.48217 37.3497 6.22742 34.669 6.22742 34.669L7.43532 30.8541C7.43532 30.8541 9.79745 32.8131 11.7838 32.8131C13.0991 32.8131 13.6359 31.8336 13.6359 31.1119C13.6359 28.1476 8.58954 28.0187 8.58954 23.1213C8.58954 19.0228 11.6496 15.0533 17.8501 15.0533C20.1586 15.0275 21.3396 15.6977 21.3396 15.6977Z" fill="white"/>
<path d="M62.4366 16.2906C61.014 15.5689 60.2893 14.9244 60.2893 14.0738C60.2893 12.9912 61.3093 12.2953 62.893 12.2953C64.7451 12.2953 66.3825 13.017 66.3825 13.017L67.6709 9.22788C67.6709 9.22788 66.4898 8.35148 63.0003 8.35148C58.1419 8.35148 54.7598 11.0322 54.7598 14.7956C54.7598 16.935 56.3434 18.5589 58.4371 19.7188C60.155 20.621 60.7456 21.2912 60.7456 22.2707C60.7456 23.2759 59.8866 24.1008 58.3029 24.1008C55.9677 24.1008 53.7397 22.9409 53.7397 22.9409L52.3708 26.73C52.3708 26.73 54.4108 28.0445 57.8466 28.0445C62.8393 28.0445 66.463 25.6731 66.463 21.4201C66.4093 19.1002 64.6109 17.5021 62.4366 16.2906ZM82.3538 8.29998C79.8843 8.29998 77.9516 9.43408 76.4753 11.1353L76.4215 11.1096L78.5689 0.38664H73.0126L67.5905 27.7095H73.1468L74.9989 18.3785C75.7236 14.8471 77.6294 12.6561 79.401 12.6561C80.6626 12.6561 81.1458 13.481 81.1458 14.6409C81.1458 15.3626 81.0922 16.2906 80.9043 17.0123L78.8105 27.7095H84.3669L86.5411 16.6772C86.7826 15.5173 86.9437 14.1254 86.9437 13.1717C86.9168 10.1043 85.2796 8.29998 82.3538 8.29998ZM99.506 8.29998C92.7954 8.29998 88.3663 14.0996 88.3663 20.5694C88.3663 24.6936 91.0237 28.0445 96.0164 28.0445C102.593 28.0445 107.022 22.3996 107.022 15.7751C107.049 11.9344 104.74 8.29998 99.506 8.29998ZM96.7681 23.9719C94.8623 23.9719 94.0837 22.4253 94.0837 20.4663C94.0837 17.399 95.7211 12.4242 98.7543 12.4242C100.714 12.4242 101.385 14.0738 101.385 15.6462C101.385 18.9198 99.6939 23.9719 96.7681 23.9719ZM121.275 8.29998C117.517 8.29998 115.397 11.4962 115.397 11.4962H115.343L115.665 8.63508H110.726C110.485 10.5683 110.028 13.5325 109.599 15.7235L105.76 35.2877H111.317L112.874 27.3744H113.008C113.008 27.3744 114.162 28.0703 116.256 28.0703C122.805 28.0703 127.073 21.6263 127.073 15.1307C127.046 11.522 125.355 8.29998 121.275 8.29998ZM115.96 24.0235C114.511 24.0235 113.652 23.2244 113.652 23.2244L114.565 18.2496C115.209 14.8987 117.034 12.7077 118.967 12.7077C120.685 12.7077 121.195 14.2285 121.195 15.6462C121.222 19.1002 119.074 24.0235 115.96 24.0235ZM134.992 0.64441C133.22 0.64441 131.797 2.01055 131.797 3.73755C131.797 5.3099 132.844 6.41828 134.428 6.41828H134.482C136.226 6.41828 137.703 5.28413 137.73 3.32513C137.756 1.75278 136.656 0.64441 134.992 0.64441ZM127.207 27.6837H132.764L136.522 8.71238H130.938M150.694 8.68658H146.829L147.017 7.81018C147.339 5.98008 148.466 4.38196 150.345 4.38196C151.339 4.38196 152.117 4.66549 152.117 4.66549L153.191 0.46397C153.191 0.46397 152.251 0 150.158 0C148.198 0 146.212 0.5413 144.709 1.77856C142.803 3.32513 141.917 5.56766 141.487 7.83598L141.326 8.71238H138.723L137.891 12.7593H140.494L137.542 27.7095H143.098L146.051 12.7593H149.889L150.694 8.68658ZM164.089 8.71238C164.089 8.71238 160.599 17.1412 159.069 21.7551H159.016C158.908 20.2601 157.647 8.71238 157.647 8.71238H151.795L155.15 26.0855C155.204 26.4722 155.177 26.7042 155.016 26.9619C154.372 28.1734 153.271 29.3334 151.983 30.184C150.936 30.9057 149.755 31.3955 148.815 31.7048L150.372 36.2414C151.5 36.0094 153.862 35.1072 155.821 33.3287C158.344 31.0604 160.707 27.529 163.122 22.7346L169.914 8.68658H164.089V8.71238Z" fill="white"/>
<path d="M52.3708 50.2649L55.0139 36H59.9368C61.0108 36 61.8778 36.1698 62.5368 36.5095C63.2109 36.8491 63.6979 37.3042 63.9989 37.8748C64.2999 38.4454 64.4358 39.0704 64.4068 39.7496C64.3638 40.7006 64.0919 41.5226 63.5909 42.2154C63.0889 42.9083 62.3938 43.4449 61.5058 43.8253C60.6168 44.2057 59.5779 44.3959 58.3889 44.3959H55.2719L54.1759 50.2649H52.3708ZM55.5298 42.9491H58.6039C59.8509 42.9491 60.8038 42.6909 61.4628 42.1747C62.1218 41.6448 62.4729 40.8705 62.5159 39.8515C62.5589 39.1315 62.3578 38.5473 61.9138 38.099C61.4698 37.6507 60.7098 37.4265 59.6358 37.4265H56.5618L55.5298 42.9491Z" fill="white"/>
<path d="M66.7498 50.5093C65.9468 50.5093 65.2878 50.3803 64.7718 50.1221C64.2708 49.8504 63.9048 49.4972 63.6758 49.0625C63.4468 48.6141 63.3468 48.1386 63.3748 47.636C63.4038 46.9024 63.6398 46.2706 64.0848 45.7408C64.5288 45.211 65.1448 44.8034 65.9328 44.5181C66.7208 44.2328 67.6238 44.0901 68.6408 44.0901H71.4998C71.6148 43.438 71.6068 42.9014 71.4778 42.4803C71.3638 42.0455 71.1268 41.7263 70.7688 41.5225C70.4108 41.3051 69.9448 41.1964 69.3718 41.1964C68.6838 41.1964 68.0608 41.3594 67.5018 41.6855C66.9428 42.0115 66.5418 42.4938 66.2978 43.1324H64.4278C64.6578 42.3987 65.0298 41.7874 65.5458 41.2983C66.0758 40.7956 66.6928 40.4152 67.3948 40.1571C68.0968 39.8854 68.8348 39.7495 69.6088 39.7495C70.5828 39.7495 71.3708 39.9262 71.9728 40.2794C72.5888 40.619 73.0048 41.1013 73.2198 41.7263C73.4488 42.3376 73.4848 43.0644 73.3268 43.9067L72.1658 50.2648H70.5328L70.7688 48.4511C70.5688 48.7364 70.3318 49.0081 70.0598 49.2663C69.8018 49.5108 69.5078 49.7282 69.1788 49.9184C68.8488 50.1086 68.4838 50.2512 68.0818 50.3463C67.6808 50.455 67.2368 50.5093 66.7498 50.5093ZM67.2868 49.0625C67.7888 49.0625 68.2688 48.9674 68.7268 48.7772C69.1998 48.5734 69.6158 48.3017 69.9738 47.962C70.3458 47.6224 70.6398 47.242 70.8548 46.8208C71.0838 46.3997 71.2058 45.9582 71.2208 45.4962L71.2418 45.4147H68.5338C67.8598 45.4147 67.2798 45.503 66.7928 45.6797C66.3198 45.8427 65.9548 46.0804 65.6968 46.3929C65.4528 46.6918 65.3168 47.0518 65.2878 47.473C65.2598 47.962 65.4168 48.3492 65.7608 48.6345C66.1048 48.9198 66.6138 49.0625 67.2868 49.0625Z" fill="white"/>
<path d="M73.6658 50.2648L75.5568 39.9941H77.2118L76.9968 41.8281C77.3268 41.3934 77.7138 41.0266 78.1578 40.7277C78.6018 40.4152 79.1108 40.1775 79.6838 40.0145C80.2568 39.8379 80.8728 39.7495 81.5318 39.7495L81.2098 41.5428H80.5438C80.0848 41.5428 79.6338 41.5972 79.1898 41.7059C78.7598 41.8146 78.3588 41.9912 77.9858 42.2357C77.6278 42.4803 77.3198 42.8063 77.0618 43.2139C76.8038 43.6079 76.6178 44.1037 76.5028 44.7015L75.4708 50.2648H73.6658Z" fill="white"/>
<path d="M84.3498 50.2647C83.6188 50.2647 83.0318 50.156 82.5878 49.9386C82.1428 49.7213 81.8428 49.3816 81.6848 48.9197C81.5418 48.4578 81.5338 47.8668 81.6628 47.1468L82.7378 41.4409H80.9968L81.2768 39.994H83.0178L83.7048 37.5078H85.2958L84.8228 39.994H87.9828L87.7028 41.4409H84.5438L83.4688 47.1468C83.3538 47.7853 83.4188 48.2201 83.6618 48.451C83.9058 48.682 84.3358 48.7974 84.9518 48.7974H86.3278L86.0478 50.2647H84.3498Z" fill="white"/>
<path d="M86.9238 50.2648L88.8148 39.9941H90.4488L90.2338 41.7874C90.6918 41.1489 91.2728 40.653 91.9748 40.2998C92.6768 39.933 93.4368 39.7495 94.2528 39.7495C95.1418 39.7495 95.8578 39.933 96.4028 40.2998C96.9618 40.653 97.3408 41.1557 97.5418 41.8078C97.7428 42.4599 97.7568 43.2343 97.5848 44.1309L96.4458 50.2648H94.6398L95.7358 44.3143C95.9228 43.3226 95.8368 42.5618 95.4778 42.0319C95.1198 41.4885 94.4898 41.2168 93.5868 41.2168C92.9998 41.2168 92.4408 41.3526 91.9098 41.6244C91.3948 41.8961 90.9498 42.2833 90.5778 42.7859C90.2048 43.2886 89.9328 43.9067 89.7608 44.6404L88.7288 50.2648H86.9238Z" fill="white"/>
<path d="M102.49 50.5093C101.587 50.5093 100.799 50.3191 100.126 49.9387C99.4669 49.5583 98.9649 49.0217 98.6209 48.3288C98.2919 47.636 98.1479 46.8276 98.1909 45.9038C98.2339 45.0208 98.4209 44.2124 98.7499 43.4788C99.0799 42.7316 99.5239 42.0795 100.083 41.5225C100.656 40.9655 101.315 40.5307 102.06 40.2183C102.805 39.9058 103.615 39.7495 104.489 39.7495C105.464 39.7495 106.266 39.9397 106.896 40.3201C107.541 40.7005 108.014 41.21 108.315 41.8485C108.616 42.4735 108.745 43.1663 108.702 43.9271C108.688 44.1581 108.652 44.423 108.594 44.7219C108.552 45.0072 108.501 45.2721 108.444 45.5166H99.5889L99.8249 44.192H106.918C107.018 43.5535 106.961 43.0169 106.746 42.5821C106.531 42.1338 106.209 41.7942 105.779 41.5632C105.349 41.3187 104.833 41.1964 104.231 41.1964C103.615 41.1964 103.02 41.3323 102.447 41.604C101.888 41.8621 101.401 42.2493 100.986 42.7655C100.57 43.2682 100.291 43.8999 100.147 44.6607L100.04 45.2313C99.8819 45.9921 99.8969 46.6646 100.083 47.2488C100.269 47.833 100.592 48.2813 101.05 48.5938C101.523 48.9062 102.096 49.0625 102.77 49.0625C103.529 49.0625 104.181 48.9062 104.726 48.5938C105.284 48.2677 105.721 47.833 106.037 47.2895H107.821C107.52 47.9009 107.111 48.4511 106.596 48.9402C106.094 49.4293 105.492 49.8165 104.79 50.1018C104.102 50.3735 103.336 50.5093 102.49 50.5093Z" fill="white"/>
<path d="M108.515 50.2648L110.407 39.9941H112.062L111.847 41.8281C112.176 41.3934 112.563 41.0266 113.007 40.7277C113.452 40.4152 113.96 40.1775 114.534 40.0145C115.107 39.8379 115.723 39.7495 116.382 39.7495L116.06 41.5428H115.393C114.935 41.5428 114.483 41.5972 114.039 41.7059C113.609 41.8146 113.208 41.9912 112.835 42.2357C112.477 42.4803 112.169 42.8063 111.911 43.2139C111.653 43.6079 111.467 44.1037 111.352 44.7015L110.321 50.2648H108.515Z" fill="white"/>
</svg>
