<svg width="91" height="27" viewBox="0 0 91 27" fill="none" xmlns="http://www.w3.org/2000/svg">
<g clip-path="url(#clip0_90_644)">
<path d="M19.5188 4.99182C19.5006 4.86288 19.3916 4.7892 19.3007 4.7892C19.2098 4.7892 17.4106 4.75236 17.4106 4.75236C17.4106 4.75236 15.9022 3.27873 15.7568 3.11294C15.6114 2.96558 15.3206 3.00242 15.2116 3.03926C15.2116 3.03926 14.9208 3.13136 14.4483 3.27873C14.3756 3.02084 14.2483 2.70769 14.0848 2.37612C13.5577 1.34458 12.7581 0.79197 11.813 0.79197C11.7403 0.79197 11.6858 0.79197 11.6131 0.81039C11.5768 0.773549 11.5586 0.736708 11.5223 0.718288C11.1043 0.276198 10.5772 0.0551531 9.94113 0.0735735C8.72348 0.110414 7.50583 1.01301 6.50626 2.59717C5.81565 3.72082 5.28861 5.12077 5.12504 6.20757C3.72565 6.64966 2.74426 6.96281 2.70791 6.96281C1.99913 7.18385 1.98096 7.20227 1.89009 7.88383C1.85374 8.3996 0 22.9333 0 22.9333L15.5569 25.6595L22.2994 23.9648C22.2812 23.9648 19.537 5.12077 19.5188 4.99182ZM13.6668 3.53661C13.3033 3.64713 12.9035 3.77608 12.4673 3.92344C12.4673 3.29715 12.3764 2.41297 12.1038 1.67615C13.0307 1.82351 13.485 2.8919 13.6668 3.53661ZM11.6495 4.16291C10.8317 4.42079 9.94113 4.6971 9.05061 4.9734C9.30504 3.99712 9.77757 3.03926 10.3591 2.39455C10.5772 2.15508 10.8862 1.89719 11.2315 1.74983C11.595 2.46823 11.6677 3.48135 11.6495 4.16291ZM9.97748 0.902492C10.2683 0.902492 10.5045 0.957753 10.7044 1.10512C10.3773 1.2709 10.0502 1.52879 9.75939 1.86035C8.97791 2.70769 8.37817 4.01554 8.14191 5.28655C7.39678 5.52602 6.66983 5.74706 6.01557 5.94968C6.45174 3.94186 8.10557 0.957753 9.97748 0.902492Z" fill="#95BF47"/>
<path d="M19.3007 4.78936C19.2098 4.78936 17.4106 4.75251 17.4106 4.75251C17.4106 4.75251 15.9022 3.27888 15.7568 3.1131C15.7023 3.05784 15.6296 3.021 15.5569 3.021V25.6597L22.2994 23.965C22.2994 23.965 19.5551 5.12092 19.537 4.99198C19.5006 4.86304 19.3916 4.78936 19.3007 4.78936Z" fill="#5E8E3E"/>
<path d="M11.813 8.30751L11.0316 11.2732C11.0316 11.2732 10.1592 10.8679 9.1233 10.9416C7.59669 11.0337 7.59669 12.01 7.59669 12.2495C7.68756 13.5757 11.1224 13.8705 11.3223 16.9835C11.4677 19.4334 10.0502 21.1097 7.97834 21.2386C5.50669 21.3676 4.14365 19.8939 4.14365 19.8939L4.67069 17.6282C4.67069 17.6282 6.05191 18.6782 7.14234 18.6045C7.85112 18.5677 8.12373 17.9598 8.08739 17.5546C7.97834 15.823 5.17956 15.9336 4.99782 13.0784C4.85243 10.6837 6.39721 8.27067 9.81391 8.04962C11.1406 7.95752 11.813 8.30751 11.813 8.30751Z" fill="white"/>
<path d="M31.4227 14.6258C30.6412 14.2021 30.2414 13.8337 30.2414 13.3364C30.2414 12.7101 30.8048 12.3048 31.6771 12.3048C32.6949 12.3048 33.6036 12.7285 33.6036 12.7285L34.3123 10.518C34.3123 10.518 33.6581 10.0023 31.7316 10.0023C29.0419 10.0023 27.17 11.568 27.17 13.76C27.17 15.0126 28.0423 15.9521 29.2055 16.6336C30.1505 17.1678 30.4776 17.5546 30.4776 18.1257C30.4776 18.7151 30.0051 19.194 29.1328 19.194C27.8424 19.194 26.6066 18.5125 26.6066 18.5125L25.8433 20.7229C25.8433 20.7229 26.9701 21.4966 28.8783 21.4966C31.6408 21.4966 33.6399 20.1151 33.6399 17.6283C33.6217 16.2836 32.6222 15.3258 31.4227 14.6258ZM42.4361 9.96542C41.073 9.96542 40.0008 10.6286 39.1829 11.6233L39.1466 11.6048L40.3279 5.34189H37.2565L34.2578 21.294H37.3292L38.3469 15.8415C38.7468 13.7784 39.8009 12.5074 40.7822 12.5074C41.4729 12.5074 41.7455 12.9864 41.7455 13.6679C41.7455 14.0916 41.7091 14.6258 41.6182 15.0495L40.4551 21.294H43.5265L44.726 14.8468C44.8532 14.1653 44.9441 13.3548 44.9441 12.8022C44.9623 11.0338 44.0536 9.96542 42.4361 9.96542ZM51.9229 9.96542C48.2154 9.96542 45.7619 13.3548 45.7619 17.131C45.7619 19.544 47.234 21.4966 49.9964 21.4966C53.6312 21.4966 56.0847 18.1993 56.0847 14.3311C56.1029 12.1022 54.8125 9.96542 51.9229 9.96542ZM50.4144 19.1204C49.3603 19.1204 48.9242 18.2178 48.9242 17.0757C48.9242 15.2889 49.8329 12.3785 51.5049 12.3785C52.5953 12.3785 52.9588 13.3364 52.9588 14.2574C52.9588 16.1731 52.0319 19.1204 50.4144 19.1204ZM63.9722 9.96542C61.9003 9.96542 60.719 11.8259 60.719 11.8259H60.6827L60.8644 10.1496H58.1383C58.0111 11.2733 57.7567 13.0048 57.5204 14.2942L55.3759 25.7149H58.4473L59.3015 21.0913H59.3742C59.3742 21.0913 60.0103 21.4966 61.1734 21.4966C64.79 21.4966 67.1526 17.7388 67.1526 13.9442C67.1526 11.8443 66.2257 9.96542 63.9722 9.96542ZM61.028 19.1572C60.2283 19.1572 59.7558 18.6967 59.7558 18.6967L60.2647 15.7863C60.6282 13.8337 61.6277 12.5443 62.7 12.5443C63.645 12.5443 63.9358 13.4285 63.9358 14.2574C63.9358 16.2836 62.7545 19.1572 61.028 19.1572ZM71.5507 5.48926C70.5693 5.48926 69.7878 6.28134 69.7878 7.29446C69.7878 8.21548 70.3694 8.86019 71.2417 8.86019H71.2781C72.2413 8.86019 73.0591 8.19706 73.0773 7.05499C73.0773 6.15239 72.4776 5.48926 71.5507 5.48926ZM67.2435 21.2756H70.3149L72.4049 10.2233H69.3153L67.2435 21.2756ZM80.2378 10.2049H78.0933L78.2023 9.68911C78.3841 8.62073 79.002 7.68129 80.0379 7.68129C80.5831 7.68129 81.0193 7.84707 81.0193 7.84707L81.619 5.39716C81.619 5.39716 81.092 5.12085 79.947 5.12085C78.8566 5.12085 77.7662 5.434 76.9302 6.15239C75.8761 7.05499 75.3854 8.36284 75.1491 9.68911L75.0582 10.2049H73.6225L73.1682 12.5627H74.6039L72.9682 21.294H76.0396L77.6753 12.5627H79.8016L80.2378 10.2049ZM87.6528 10.2233C87.6528 10.2233 85.7263 15.1416 84.8722 17.8309H84.8358C84.7813 16.9652 84.0725 10.2233 84.0725 10.2233H80.8376L82.6913 20.373C82.7276 20.594 82.7095 20.7414 82.6186 20.8887C82.2551 21.5887 81.6554 22.2703 80.9466 22.7676C80.365 23.1913 79.7108 23.4676 79.2019 23.6518L80.0561 26.3043C80.674 26.1754 81.9825 25.6412 83.073 24.6096C84.4723 23.2834 85.7809 21.2203 87.1076 18.4204L90.8696 10.2233H87.6528Z" fill="white"/>
</g>
<defs>
<clipPath id="clip0_90_644">
<rect width="90.8696" height="26.3043" fill="white"/>
</clipPath>
</defs>
</svg>
