<svg width="109" height="23" viewBox="0 0 109 23" fill="none" xmlns="http://www.w3.org/2000/svg">
<g clip-path="url(#clip0_90_649)">
<path d="M61.9652 8.53711H57.5425V9.02277C58.9249 9.02277 59.1488 9.33022 59.1488 11.1437V14.4141C59.1488 16.2275 58.9249 16.5617 57.5425 16.5617C56.4788 16.4102 55.7639 15.8221 54.7778 14.6948L53.6366 13.416C55.1697 13.1353 55.9836 12.1373 55.9836 11.0144C55.9836 9.61092 54.8208 8.53711 52.6504 8.53711H48.3052V9.02277C49.6876 9.02277 49.9115 9.33022 49.9115 11.1437V14.4141C49.9115 16.2275 49.6876 16.5617 48.3052 16.5617V17.0474H53.2059V16.5617C51.8236 16.5617 51.5996 16.2275 51.5996 14.4141V13.4962H52.0303L54.7735 17.0607H61.9609C65.4922 17.0607 67.0252 15.1181 67.0252 12.7922C67.0252 10.4664 65.4965 8.53711 61.9652 8.53711ZM51.6298 12.7031V9.30348H52.6418C53.0775 9.30348 53.4954 9.48256 53.8035 9.80134C54.1116 10.1201 54.2847 10.5525 54.2847 11.0033C54.2847 11.4541 54.1116 11.8865 53.8035 12.2053C53.4954 12.524 53.0775 12.7031 52.6418 12.7031H51.6298ZM62.0513 16.2676H61.8791C60.992 16.2676 60.8671 16.0359 60.8671 14.8641V9.30348H62.0513C64.6352 9.30348 65.0874 11.2461 65.0874 12.7521C65.0874 14.2581 64.605 16.2543 62.0384 16.2543L62.0513 16.2676Z" fill="white"/>
<path d="M34.5505 13.6477L36.273 8.43455C36.7683 6.92855 36.5443 6.4919 34.9811 6.4919V5.97949H39.6234V6.4919C38.0688 6.4919 37.6985 6.87509 37.0783 8.71972L34.2619 17.4572H33.939L31.4197 9.43707L28.8358 17.4572H28.5129L25.7697 8.71972C25.1754 6.85281 24.7835 6.4919 23.3495 6.4919V5.97949H28.8315V6.4919C27.376 6.4919 26.9798 6.84835 27.4965 8.43455L29.1502 13.6477L31.6436 5.97949H32.1044L34.5505 13.6477Z" fill="white"/>
<path d="M42.948 17.377C40.2307 17.377 38.0085 15.3052 38.0085 12.7788C38.0085 10.2525 40.2307 8.20288 42.948 8.20288C45.6654 8.20288 47.8875 10.2747 47.8875 12.7788C47.8875 15.2829 45.6654 17.377 42.948 17.377ZM42.948 8.99598C40.6742 8.99598 39.8862 11.1169 39.8862 12.7788C39.8862 14.4408 40.6785 16.5616 42.948 16.5616C45.2175 16.5616 46.0357 14.4675 46.0357 12.7788C46.0357 11.0901 45.2433 8.99598 42.948 8.99598Z" fill="white"/>
<path d="M73.1275 16.5349V17.0473H67.4731V16.5349C69.1268 16.5349 69.4239 16.0893 69.4239 13.5452V9.4549C69.4239 6.89736 69.1268 6.4919 67.4731 6.4919V5.97949H72.5848C75.1299 5.97949 76.5381 7.31619 76.5381 9.14746C76.5381 10.9787 75.1299 12.2887 72.5848 12.2887H71.1766V13.5407C71.1766 16.0982 71.4738 16.5349 73.1275 16.5349ZM72.5848 6.90181H71.1766V11.3574H72.5848C73.9672 11.3574 74.6089 10.3594 74.6089 9.16082C74.6089 7.96226 73.9672 6.90181 72.5848 6.90181Z" fill="white"/>
<path d="M93.5012 14.6412L93.3763 15.0867C93.1524 15.9288 92.8811 16.2363 91.1283 16.2363H90.7838C89.4919 16.2363 89.2766 15.9288 89.2766 14.1154V12.9391C91.2015 12.9391 91.3523 13.1173 91.3523 14.4451H91.8217V10.6355H91.3523C91.3523 11.9722 91.2059 12.1415 89.2766 12.1415V9.28102H90.6331C92.3858 9.28102 92.6571 9.58847 92.8811 10.4306L93.0059 10.9162H93.4021L93.2299 8.51465H85.9692V9.00032C87.3516 9.00032 87.5755 9.30775 87.5755 11.1212V14.3916C87.5755 16.0491 87.386 16.468 86.2836 16.5303C85.2458 16.3655 84.5352 15.7818 83.5619 14.6723L82.425 13.3936C83.9581 13.1129 84.772 12.1148 84.772 10.992C84.772 9.58846 83.6093 8.51465 81.4389 8.51465H77.1023V9.00032C78.4847 9.00032 78.7086 9.30775 78.7086 11.1212V14.3916C78.7086 16.2051 78.4847 16.5393 77.1023 16.5393V17.0249H82.0159V16.5393C80.6336 16.5393 80.4096 16.2051 80.4096 14.3916V13.4738H80.8403L83.5835 17.0383H93.7337L93.8801 14.6367L93.5012 14.6412ZM80.4139 12.6985V9.29885H81.426C81.8617 9.29885 82.2796 9.47794 82.5877 9.79672C82.8958 10.1155 83.0689 10.5479 83.0689 10.9987C83.0689 11.4495 82.8958 11.8818 82.5877 12.2006C82.2796 12.5194 81.8617 12.6985 81.426 12.6985H80.4139Z" fill="white"/>
<path d="M98.5181 17.3769C97.702 17.3453 96.9196 17.0316 96.296 16.4858C96.0883 16.7402 95.9513 17.0482 95.8998 17.3769H95.4089V13.8525H95.9041C96.1022 15.5367 97.2391 16.5259 98.6947 16.5259C99.4828 16.5259 100.129 16.0803 100.129 15.3006C100.129 14.6367 99.5603 14.1243 98.5483 13.6386L97.1401 12.948C96.1539 12.4624 95.4175 11.6113 95.4175 10.493C95.4175 9.26766 96.5286 8.22059 98.0617 8.22059C98.7572 8.21155 99.4354 8.44545 99.9866 8.88448C100.152 8.6885 100.264 8.44991 100.31 8.19385H100.779V11.2103H100.262C100.09 10.0073 99.4483 9.0137 98.1392 9.0137C97.4458 9.0137 96.8042 9.4236 96.8042 10.0608C96.8042 10.6979 97.321 11.0811 98.5268 11.647L99.8833 12.3376C101.068 12.9257 101.537 13.8703 101.537 14.6367C101.528 16.2541 100.172 17.3769 98.5181 17.3769Z" fill="white"/>
<path d="M105.985 17.3772C105.169 17.3456 104.387 17.0318 103.763 16.486C103.555 16.7404 103.418 17.0484 103.367 17.3772H102.898V13.8528H103.393C103.591 15.537 104.728 16.5261 106.183 16.5261C106.971 16.5261 107.617 16.0806 107.617 15.3008C107.617 14.6369 107.049 14.1245 106.037 13.6389L104.629 12.9483C103.643 12.4626 102.906 11.6116 102.906 10.4932C102.906 9.2679 104.017 8.22084 105.55 8.22084C106.246 8.2118 106.924 8.44569 107.475 8.88472C107.641 8.68887 107.753 8.45023 107.798 8.19409H108.268V11.2106H107.751C107.579 10.0075 106.937 9.01394 105.628 9.01394C104.934 9.01394 104.293 9.42385 104.293 10.061C104.293 10.6982 104.81 11.0813 106.015 11.6472L107.372 12.3378C108.556 12.926 109.026 13.8706 109.026 14.637C108.995 16.2543 107.639 17.3772 105.985 17.3772Z" fill="white"/>
<path d="M11.1146 0.690441C13.1957 0.68671 15.23 1.32932 16.9541 2.53508C18.6337 3.70777 19.9485 5.35916 20.7395 7.28924C21.4162 8.9454 21.6825 10.7502 21.514 12.5399C21.3456 14.3295 20.7478 16.0473 19.7748 17.5372C18.6414 19.2749 17.0453 20.6354 15.1799 21.4537C13.5792 22.1539 11.8348 22.4294 10.1051 22.2551C8.37539 22.0808 6.71515 21.4623 5.27511 20.4557C3.59557 19.283 2.2807 17.6316 1.48976 15.7015C0.812993 14.0453 0.54675 12.2405 0.715209 10.4509C0.883667 8.66122 1.48149 6.94345 2.45439 5.45352C3.58781 3.71579 5.18391 2.35537 7.04936 1.53702C8.33533 0.973346 9.71801 0.683894 11.1146 0.685994M11.1146 -0.00463781C8.91631 -0.00551888 6.7671 0.66808 4.93879 1.93098C3.11048 3.19389 1.68519 4.98938 0.843148 7.09039C0.00110122 9.1914 -0.219878 11.5036 0.208157 13.7345C0.636192 15.9655 1.69401 18.015 3.24785 19.6239C4.80169 21.2329 6.78178 22.3289 8.93769 22.7735C11.0936 23.2181 13.3285 22.9913 15.3598 22.1217C17.3911 21.2521 19.1276 19.7788 20.3496 17.8881C21.5716 15.9975 22.2244 13.7743 22.2252 11.4998C22.2252 8.44983 21.0542 5.52476 18.9697 3.36809C16.8853 1.21142 14.0582 -0.00017782 11.1103 -0.00017782L11.1146 -0.00463781Z" fill="white"/>
<path d="M1.85178 11.5C1.85115 13.2999 2.34037 15.0635 3.26343 16.5891C4.1865 18.1146 5.5061 19.3404 7.07117 20.1261L2.65277 7.60133C2.12355 8.82808 1.8506 10.1566 1.85178 11.5ZM17.3549 11.0188C17.3445 10.0843 17.0836 9.17119 16.6013 8.38107C16.1319 7.59242 15.6926 6.92408 15.6926 6.15325C15.6811 5.71436 15.8382 5.28865 16.1297 4.96954C16.4212 4.65044 16.8231 4.46401 17.2473 4.45119H17.3678C16.3805 3.51313 15.208 2.8081 13.9314 2.3848C12.6549 1.96151 11.3047 1.83004 9.97428 1.99952C8.64382 2.16899 7.3648 2.63536 6.22561 3.36637C5.08643 4.09738 4.11425 5.07561 3.37626 6.23345H3.97055C4.93949 6.23345 6.43812 6.11315 6.43812 6.11315C6.53507 6.11235 6.62871 6.14958 6.70018 6.21736C6.77165 6.28514 6.81564 6.37842 6.82328 6.47842C6.83093 6.57842 6.80166 6.6777 6.74138 6.75626C6.6811 6.83482 6.59428 6.88682 6.49842 6.90179C6.49842 6.90179 5.99456 6.96418 5.43903 6.99091L8.81097 17.3725L10.8393 11.0812L9.39664 6.99091C8.89709 6.95972 8.42339 6.90179 8.42339 6.90179C8.32753 6.88682 8.2407 6.83482 8.18042 6.75626C8.12014 6.6777 8.09087 6.57842 8.09852 6.47842C8.10616 6.37842 8.15015 6.28514 8.22162 6.21736C8.29309 6.14958 8.38673 6.11235 8.48368 6.11315C8.48368 6.11315 10.0125 6.23345 10.9211 6.23345C11.8298 6.23345 13.3887 6.11315 13.3887 6.11315C13.4857 6.11235 13.5793 6.14958 13.6508 6.21736C13.7222 6.28514 13.7662 6.37842 13.7739 6.47842C13.7815 6.57842 13.7522 6.6777 13.692 6.75626C13.6317 6.83482 13.5449 6.88682 13.449 6.90179C13.449 6.90179 12.9451 6.96418 12.3896 6.99091L15.74 17.2923L16.696 14.1734C17.0671 13.1599 17.292 12.0955 17.3635 11.0144L17.3549 11.0188ZM11.2656 12.3555L8.48799 20.7098C10.354 21.2788 12.3458 21.2258 14.1811 20.5583C14.156 20.5157 14.1344 20.471 14.1165 20.4247L11.2656 12.3555ZM19.2325 6.91962C19.2739 7.24609 19.294 7.57506 19.2928 7.90431C19.276 9.08465 19.0361 10.2502 18.5866 11.3352L15.7572 19.8009C17.844 18.5451 19.3745 16.496 20.0228 14.0901C20.6711 11.6841 20.386 9.11133 19.2282 6.91962H19.2325Z" fill="white"/>
</g>
<defs>
<clipPath id="clip0_90_649">
<rect width="109" height="23" fill="white"/>
</clipPath>
</defs>
</svg>
