<svg width="1027" height="579" viewBox="0 0 1027 579" fill="none" xmlns="http://www.w3.org/2000/svg">
<path d="M1026 577.5H1V1H1026V577.5Z" stroke="#343434" stroke-width="2"/>
<path d="M65 1.5V578" stroke="#343434" stroke-width="2"/>
<path d="M129 1.5V578" stroke="#343434" stroke-width="2"/>
<path d="M193 1.5V578" stroke="#343434" stroke-width="2"/>
<path d="M257 1.5V578" stroke="#343434" stroke-width="2"/>
<path d="M321 1.5V578" stroke="#343434" stroke-width="2"/>
<path d="M385 1.5V578" stroke="#343434" stroke-width="2"/>
<path d="M449 1.5V578" stroke="#343434" stroke-width="2"/>
<path d="M513 1.5V578" stroke="#343434" stroke-width="2"/>
<path d="M577 1.5V578" stroke="#343434" stroke-width="2"/>
<path d="M641 1.5V578" stroke="#343434" stroke-width="2"/>
<path d="M705 1.5V578" stroke="#343434" stroke-width="2"/>
<path d="M769 1.5V578" stroke="#343434" stroke-width="2"/>
<path d="M833 1.5V578" stroke="#343434" stroke-width="2"/>
<path d="M897 1.5V578" stroke="#343434" stroke-width="2"/>
<path d="M961 1.5V578" stroke="#343434" stroke-width="2"/>
<path d="M1 513.5H1026" stroke="#343434" stroke-width="2"/>
<path d="M0 449.5H1025" stroke="#343434" stroke-width="2"/>
<path d="M1 385.5H1026" stroke="#343434" stroke-width="2"/>
<path d="M1 321.5H1026" stroke="#343434" stroke-width="2"/>
<path d="M1 257.5H1026" stroke="#343434" stroke-width="2"/>
<path d="M1 193H1026" stroke="#343434" stroke-width="2"/>
<path d="M1 129H1026" stroke="#343434" stroke-width="2"/>
<path d="M1 65.5H1026" stroke="#343434" stroke-width="2"/>
</svg>
