<svg width="128" height="128" viewBox="0 0 128 128" fill="none" xmlns="http://www.w3.org/2000/svg">
<g clip-path="url(#clip0_178_275)">
<path d="M109 75.9992C107.344 75.9992 106 77.3432 106 78.9992V99.9992H22V63.9992H55C56.656 63.9992 58 62.6552 58 60.9992C58 59.3432 56.656 57.9992 55 57.9992H22V45.9992H55C56.656 45.9992 58 44.6552 58 42.9992C58 41.3432 56.656 39.9992 55 39.9992H22C18.688 39.9992 16 42.6872 16 45.9992V99.9992C16 103.311 18.688 105.999 22 105.999H106C109.312 105.999 112 103.311 112 99.9992V78.9992C112 77.3432 110.656 75.9992 109 75.9992Z" fill="#019EFF"/>
<path d="M43 75.9992H31C29.344 75.9992 28 77.3432 28 78.9992C28 80.6552 29.344 81.9992 31 81.9992H43C44.656 81.9992 46 80.6552 46 78.9992C46 77.3432 44.656 75.9992 43 75.9992Z" fill="#019EFF"/>
<path d="M110.182 31.2392L89.182 22.2392C88.42 21.9212 87.574 21.9212 86.812 22.2392L65.812 31.2392C64.714 31.7132 64 32.7992 64 33.9992V45.9992C64 62.5052 70.102 72.1532 86.506 81.6032C86.968 81.8672 87.484 81.9992 88 81.9992C88.516 81.9992 89.032 81.8672 89.494 81.6032C105.898 72.1772 112 62.5292 112 45.9992V33.9992C112 32.7992 111.286 31.7132 110.182 31.2392ZM106 45.9992C106 59.8532 101.416 67.4792 88 75.5192C74.584 67.4612 70 59.8352 70 45.9992V35.9792L88 28.2632L106 35.9792V45.9992Z" fill="#FF6BD4"/>
<path d="M98.878 40.6532C97.588 39.6332 95.704 39.8312 94.66 41.1212L85.228 52.9172L81.496 47.3372C80.566 45.9572 78.7 45.5912 77.338 46.5032C75.964 47.4212 75.586 49.2872 76.504 50.6612L82.504 59.6612C83.038 60.4592 83.914 60.9512 84.874 60.9992C84.916 60.9992 84.964 60.9992 85 60.9992C85.906 60.9992 86.77 60.5912 87.346 59.8712L99.346 44.8712C100.378 43.5752 100.174 41.6912 98.878 40.6532Z" fill="#FF6BD4"/>
</g>
<defs>
<clipPath id="clip0_178_275">
<rect width="128" height="128" fill="white"/>
</clipPath>
</defs>
</svg>
