<svg width="128" height="128" viewBox="0 0 128 128" fill="none" xmlns="http://www.w3.org/2000/svg">
<g clip-path="url(#clip0_178_199)">
<path d="M63.1485 16H94.6697C97.1091 17.8765 95.2144 19.5856 93.6137 21.446C92.4365 22.8139 90.1147 26.2395 88.8728 27.1791C91.0872 29.8145 93.3752 32.6756 95.4589 35.4309C96.1252 36.3119 95.9631 37.0694 95.4177 37.9798C95.1738 38.1197 94.6381 38.4469 94.3877 38.467C92.9793 38.5802 91.4898 38.5409 90.073 38.5368L83.098 38.53L71.9191 38.5335C70.0383 38.5339 67.7234 38.5976 65.8839 38.5121C65.9601 44.2152 65.7703 54.6844 66.0016 60.7142C66.0178 61.1384 69.6885 66.8808 70.3966 68.0295L77.7114 79.9601C78.8416 77.7272 80.4542 75.4887 81.7115 73.3046C82.6478 71.6783 83.713 70.0421 84.7335 68.4692C85.3332 67.5894 86.518 66.8634 87.4011 67.6362C88.842 68.8972 90.1944 71.8466 91.1491 73.4913L106.145 99.3677C108.029 102.604 110.264 106.277 112 109.564V112H16V109.392C16.3524 108.934 17.0936 107.569 17.4116 107.015L20.0161 102.503L37.3545 72.5518C37.9415 71.5345 39.6681 68.2887 40.4329 67.7185C40.8413 67.4093 41.3605 67.2854 41.8645 67.3767C43.077 67.598 44.5613 70.5894 45.2485 71.6225C47.0251 74.2934 48.572 77.2472 50.3105 79.928C53.6857 74.0514 58.6308 66.7157 61.9783 60.7706C62.2098 60.3594 62.1078 51.6218 62.1067 50.4018L62.1142 28.2263C62.118 24.8606 62.09 21.4779 62.0996 18.1112C62.1027 17.0303 62.3942 16.6945 63.1485 16ZM37.3364 108.253C38.2704 108.172 39.6475 108.221 40.6282 108.226L46.0445 108.233L90.7161 108.236C90.1376 107.681 88.7982 105.396 88.3042 104.589L84.4638 98.305L67.5804 70.9025C67.0787 70.0988 64.4151 65.4788 63.9226 65.0781C61.8297 68.7446 59.3455 72.6302 57.1143 76.243L40.158 103.802C39.6235 104.667 37.8952 107.582 37.3364 108.253ZM21.1108 108.233L27.8594 108.233C29.4397 108.232 31.3019 108.19 32.8566 108.29C36.1421 102.876 39.455 97.4787 42.7952 92.0982C44.5 89.3424 46.3001 86.2483 48.0804 83.5548C47.2333 82.3142 41.7508 73.2009 41.5431 73.047L23.554 104.169C22.9511 105.215 21.7907 107.338 21.1108 108.233ZM65.8936 19.7626L65.9047 30.021C65.9058 31.3974 65.9859 33.456 65.9186 34.7512C73.9135 34.7076 82.1211 34.6552 90.1087 34.7447C89.4713 34.1106 88.1154 32.4627 87.5872 31.7103C86.3792 30.1704 83.569 27.8412 85.091 25.9348C86.6421 23.992 88.3362 21.5083 90.0722 19.7594L74.4087 19.7819C71.8175 19.782 68.3985 19.8893 65.8936 19.7626ZM95.0801 108.25L100.516 108.233L106.862 108.239C103.981 104.219 87.0842 73.4065 86.3156 73.0528C85.3358 75.0697 83.6343 77.5615 82.4529 79.533C81.9395 80.3896 80.451 82.8714 79.9139 83.5589C80.4626 84.6264 82.1718 87.1539 82.8923 88.3265L90.8846 101.325C91.9453 103.046 94.2339 106.559 95.0801 108.25Z" fill="#FE6AD4"/>
<path d="M67.9642 80.6281C68.1765 80.6249 68.4417 80.6166 68.6457 80.6721C69.5641 80.9221 70.1339 81.9007 70.5982 82.6547C71.2639 83.7355 71.916 84.8137 72.5732 85.8941L77.0005 93.1126C78.0425 94.8181 79.0963 96.5165 80.1618 98.2074C80.8844 99.3654 81.642 100.564 82.2605 101.779C82.5049 102.259 82.6752 102.64 82.4499 103.156C82.119 103.916 81.5913 104.226 80.9036 104.553C80.0496 104.597 79.5059 104.4 78.9949 103.669C78.3147 102.696 77.7064 101.659 77.0844 100.646L69.5412 88.3793C68.4766 86.6589 67.3582 84.958 66.4249 83.1635C65.8364 82.0317 66.8201 80.8196 67.9642 80.6281Z" fill="#FE6AD4"/>
<path d="M63.3697 74.5456C64.3667 74.2052 65.451 74.7359 65.7937 75.7321C66.1364 76.7283 65.6081 77.8138 64.6127 78.1588C63.6141 78.505 62.5243 77.9746 62.1805 76.9751C61.8366 75.9758 62.3695 74.8871 63.3697 74.5456Z" fill="#FE6AD4"/>
</g>
<defs>
<clipPath id="clip0_178_199">
<rect width="128" height="128" fill="white"/>
</clipPath>
</defs>
</svg>
