<svg width="128" height="128" viewBox="0 0 128 128" fill="none" xmlns="http://www.w3.org/2000/svg">
<g clip-path="url(#clip0_178_268)">
<path fill-rule="evenodd" clip-rule="evenodd" d="M71.1244 95.435H56.8756C55.8746 95.435 55.0631 94.627 55.0631 93.6303C55.0631 92.6337 55.8746 91.8256 56.8756 91.8256H71.1244C72.1254 91.8256 72.9369 92.6337 72.9369 93.6303C72.9369 94.627 72.1254 95.435 71.1244 95.435Z" fill="#FF6BD4"/>
<path fill-rule="evenodd" clip-rule="evenodd" d="M60.5207 99.5914C60.0156 99.5914 59.5128 99.3824 59.1547 98.9735L55.5105 94.8171C54.9142 94.1373 54.9142 93.1234 55.5105 92.4435L59.1547 88.2871C59.813 87.5361 60.9581 87.459 61.712 88.1145C62.466 88.7699 62.5437 89.9101 61.8854 90.6607L59.2818 93.6303L61.8854 96.5999C62.5437 97.3506 62.466 98.4907 61.712 99.1462C61.3681 99.4448 60.9436 99.5914 60.5207 99.5914Z" fill="#FF6BD4"/>
<path fill-rule="evenodd" clip-rule="evenodd" d="M27.6421 64.3673C27.1783 64.3673 26.7145 64.1913 26.3605 63.8388C25.6525 63.1338 25.6525 61.9912 26.3605 61.2865L36.4359 51.2546C37.1439 50.55 38.2912 50.55 38.9992 51.2546C39.7069 51.9596 39.7069 53.1022 38.9992 53.8069L28.9238 63.8388C28.5698 64.1913 28.106 64.3673 27.6421 64.3673Z" fill="#FF6BD4"/>
<path fill-rule="evenodd" clip-rule="evenodd" d="M38.0907 59.8404C37.1455 59.8404 36.3491 59.1107 36.2843 58.1579L36.0165 54.2252L32.0667 53.9586C31.068 53.8912 30.3134 53.0305 30.381 52.0361C30.4487 51.0416 31.3137 50.29 32.3122 50.3577L37.8409 50.7308C38.7452 50.7919 39.4652 51.5088 39.5265 52.4092L39.9013 57.9141C39.969 58.9086 39.2144 59.7692 38.2156 59.8369C38.1731 59.8391 38.1316 59.8404 38.0907 59.8404Z" fill="#FF6BD4"/>
<path fill-rule="evenodd" clip-rule="evenodd" d="M99.9832 63.9942C99.5193 63.9942 99.0555 63.8181 98.7015 63.4656L88.6261 53.4337C87.9184 52.7287 87.9184 51.5861 88.6261 50.8815C89.3341 50.1768 90.4814 50.1768 91.1894 50.8815L101.265 60.9134C101.973 61.6183 101.973 62.761 101.265 63.4656C100.911 63.8178 100.447 63.9942 99.9832 63.9942Z" fill="#FF6BD4"/>
<path fill-rule="evenodd" clip-rule="evenodd" d="M94.4525 64.3676C93.5072 64.3676 92.7108 63.6379 92.646 62.6849C92.5783 61.6904 93.3329 60.8297 94.3317 60.7624L98.2817 60.4957L98.5495 56.5627C98.6172 55.5683 99.4825 54.817 100.481 54.8843C101.479 54.9517 102.234 55.8124 102.166 56.8071L101.792 62.312C101.73 63.2125 101.01 63.9293 100.106 63.9904L94.5771 64.3639C94.5353 64.3661 94.4941 64.3676 94.4525 64.3676Z" fill="#FF6BD4"/>
<path fill-rule="evenodd" clip-rule="evenodd" d="M27.5974 115.069C21.8285 115.069 16.4049 112.832 12.3258 108.771C8.24643 104.709 6 99.3089 6 93.5649C6 87.821 8.24643 82.4208 12.3255 78.359C16.4046 74.2972 21.8282 72.0605 27.5971 72.0605C33.3659 72.0605 38.7896 74.2972 42.8686 78.359C46.948 82.4208 49.1945 87.8207 49.1945 93.5649C49.1945 99.3089 46.948 104.709 42.8686 108.771C38.7899 112.832 33.3662 115.069 27.5974 115.069ZM27.5974 75.6698C17.6875 75.6698 9.625 83.6975 9.625 93.5646C9.625 103.432 17.6875 111.459 27.5974 111.459C37.5073 111.459 45.5698 103.432 45.5698 93.5646C45.5698 83.6975 37.5076 75.6698 27.5974 75.6698Z" fill="#019EFF"/>
<path d="M23.774 100.244V98.8904C24.1013 98.5646 24.3782 98.2387 24.6048 97.9129C24.8313 97.5745 25.0076 97.2111 25.1334 96.8225C25.2593 96.4215 25.3222 95.9515 25.3222 95.4126C25.3222 95.0367 25.2656 94.6732 25.1523 94.3223C25.0516 93.9714 24.932 93.6142 24.7936 93.2508C24.6551 92.8874 24.5293 92.5051 24.416 92.1041C24.3153 91.703 24.2649 91.2769 24.2649 90.8258C24.2649 90.0112 24.4474 89.3093 24.8125 88.7203C25.1775 88.1188 25.6747 87.6613 26.304 87.348C26.9459 87.0222 27.6823 86.8592 28.513 86.8592C29.4696 86.8592 30.2563 87.041 30.873 87.4044C31.4898 87.7678 31.9618 88.2566 32.289 88.8707C32.6163 89.4723 32.7988 90.1427 32.8365 90.8822H30.7408C30.7157 90.2555 30.5206 89.7417 30.1556 89.3407C29.7905 88.9271 29.2556 88.7203 28.5507 88.7203C28.1731 88.7203 27.8207 88.8018 27.4935 88.9647C27.1662 89.1151 26.9019 89.3532 26.7005 89.679C26.5117 90.0049 26.4173 90.4185 26.4173 90.9198C26.4173 91.2707 26.4676 91.6278 26.5683 91.9913C26.6816 92.3422 26.8075 92.7056 26.9459 93.0816C27.0844 93.4576 27.204 93.8398 27.3046 94.2283C27.4053 94.6043 27.4557 94.9865 27.4557 95.375C27.4557 95.9265 27.355 96.4654 27.1536 96.9917C26.9522 97.5056 26.6124 97.9881 26.1341 98.4392H32.8743V100.244H23.774ZM23.0755 94.6043V93.044H30.4765V94.6043H23.0755Z" fill="#019EFF"/>
<path fill-rule="evenodd" clip-rule="evenodd" d="M100.403 115.134C94.6338 115.134 89.2101 112.898 85.1307 108.836C81.0513 104.774 78.8049 99.3743 78.8049 93.6303C78.8049 87.8864 81.0513 82.4861 85.1307 78.4244C89.2098 74.3626 94.6334 72.1259 100.403 72.1259C106.172 72.1259 111.595 74.3626 115.674 78.4244C119.754 82.4861 122 87.8861 122 93.6303C122 99.3743 119.754 104.774 115.674 108.836C111.595 112.897 106.171 115.134 100.403 115.134ZM100.403 75.7352C90.4927 75.7352 82.4302 83.7629 82.4302 93.63C82.4302 103.497 90.4927 111.525 100.403 111.525C110.313 111.525 118.375 103.497 118.375 93.63C118.375 83.7629 110.313 75.7352 100.403 75.7352Z" fill="#019EFF"/>
<path d="M96.687 99.7991V98.4456C97.0142 98.1198 97.2912 97.7939 97.5177 97.4681C97.7443 97.1297 97.9205 96.7663 98.0464 96.3777C98.1722 95.9767 98.2352 95.5067 98.2352 94.9678C98.2352 94.5919 98.1785 94.2284 98.0652 93.8775C97.9645 93.5266 97.845 93.1694 97.7065 92.806C97.5681 92.4425 97.4422 92.0603 97.3289 91.6593C97.2282 91.2582 97.1779 90.8321 97.1779 90.381C97.1779 89.5663 97.3604 88.8645 97.7254 88.2755C98.0904 87.6739 98.5876 87.2165 99.2169 86.9032C99.8589 86.5774 100.595 86.4144 101.426 86.4144C102.383 86.4144 103.169 86.5962 103.786 86.9596C104.403 87.323 104.875 87.8118 105.202 88.4259C105.529 89.0275 105.712 89.6979 105.749 90.4374H103.654C103.629 89.8107 103.434 89.2969 103.068 88.8959C102.703 88.4823 102.169 88.2755 101.464 88.2755C101.086 88.2755 100.734 88.357 100.406 88.5199C100.079 88.6703 99.8148 88.9084 99.6134 89.2342C99.4246 89.5601 99.3302 89.9737 99.3302 90.475C99.3302 90.8259 99.3806 91.183 99.4812 91.5465C99.5945 91.8974 99.7204 92.2608 99.8589 92.6368C99.9973 93.0128 100.117 93.395 100.218 93.7835C100.318 94.1595 100.369 94.5417 100.369 94.9302C100.369 95.4817 100.268 96.0206 100.067 96.5469C99.8652 97.0608 99.5253 97.5433 99.047 97.9944H105.787V99.7991H96.687ZM95.9884 94.1595V92.5992H103.389V94.1595H95.9884Z" fill="#019EFF"/>
<path fill-rule="evenodd" clip-rule="evenodd" d="M100.403 115.134C94.6338 115.134 89.2101 112.898 85.1307 108.836C81.0513 104.774 78.8049 99.3743 78.8049 93.6303C78.8049 87.8864 81.0513 82.4861 85.1307 78.4244C89.2098 74.3626 94.6334 72.1259 100.403 72.1259C106.172 72.1259 111.595 74.3626 115.674 78.4244C119.754 82.4861 122 87.8861 122 93.6303C122 99.3743 119.754 104.774 115.674 108.836C111.595 112.897 106.171 115.134 100.403 115.134ZM100.403 75.7352C90.4927 75.7352 82.4302 83.7629 82.4302 93.63C82.4302 103.497 90.4927 111.525 100.403 111.525C110.313 111.525 118.375 103.497 118.375 93.63C118.375 83.7629 110.313 75.7352 100.403 75.7352Z" fill="#019EFF"/>
<path d="M96.687 99.7991V98.4456C97.0142 98.1198 97.2912 97.7939 97.5177 97.4681C97.7443 97.1297 97.9205 96.7663 98.0464 96.3777C98.1722 95.9767 98.2352 95.5067 98.2352 94.9678C98.2352 94.5919 98.1785 94.2284 98.0652 93.8775C97.9645 93.5266 97.845 93.1694 97.7065 92.806C97.5681 92.4425 97.4422 92.0603 97.3289 91.6593C97.2282 91.2582 97.1779 90.8321 97.1779 90.381C97.1779 89.5663 97.3604 88.8645 97.7254 88.2755C98.0904 87.6739 98.5876 87.2165 99.2169 86.9032C99.8589 86.5774 100.595 86.4144 101.426 86.4144C102.383 86.4144 103.169 86.5962 103.786 86.9596C104.403 87.323 104.875 87.8118 105.202 88.4259C105.529 89.0275 105.712 89.6979 105.749 90.4374H103.654C103.629 89.8107 103.434 89.2969 103.068 88.8959C102.703 88.4823 102.169 88.2755 101.464 88.2755C101.086 88.2755 100.734 88.357 100.406 88.5199C100.079 88.6703 99.8148 88.9084 99.6134 89.2342C99.4246 89.5601 99.3302 89.9737 99.3302 90.475C99.3302 90.8259 99.3806 91.183 99.4812 91.5465C99.5945 91.8974 99.7204 92.2608 99.8589 92.6368C99.9973 93.0128 100.117 93.395 100.218 93.7835C100.318 94.1595 100.369 94.5417 100.369 94.9302C100.369 95.4817 100.268 96.0206 100.067 96.5469C99.8652 97.0608 99.5253 97.5433 99.047 97.9944H105.787V99.7991H96.687ZM95.9884 94.1595V92.5992H103.389V94.1595H95.9884Z" fill="#019EFF"/>
<path d="M59.5559 40.5832V39.2296C59.8832 38.9038 60.1601 38.578 60.3866 38.2521C60.6132 37.9137 60.7894 37.5503 60.9153 37.1618C61.0412 36.7608 61.1041 36.2908 61.1041 35.7519C61.1041 35.3759 61.0474 35.0125 60.9342 34.6616C60.8335 34.3107 60.7139 33.9535 60.5754 33.59C60.437 33.2266 60.3111 32.8444 60.1978 32.4433C60.0971 32.0423 60.0468 31.6162 60.0468 31.165C60.0468 30.3504 60.2293 29.6486 60.5943 29.0596C60.9593 28.458 61.4565 28.0006 62.0859 27.6872C62.7278 27.3614 63.4641 27.1985 64.2948 27.1985C65.2514 27.1985 66.0381 27.3802 66.6549 27.7436C67.2716 28.1071 67.7436 28.5959 68.0709 29.2099C68.3981 29.8115 68.5806 30.482 68.6184 31.2214H66.5227C66.4975 30.5948 66.3024 30.0809 65.9374 29.6799C65.5724 29.2663 65.0375 29.0596 64.3326 29.0596C63.955 29.0596 63.6026 29.141 63.2753 29.3039C62.9481 29.4543 62.6837 29.6924 62.4823 30.0183C62.2935 30.3441 62.1991 30.7577 62.1991 31.259C62.1991 31.6099 62.2495 31.9671 62.3502 32.3305C62.4635 32.6814 62.5893 33.0449 62.7278 33.4208C62.8662 33.7968 62.9858 34.1791 63.0865 34.5676C63.1872 34.9435 63.2376 35.3258 63.2376 35.7143C63.2376 36.2657 63.1369 36.8046 62.9355 37.331C62.7341 37.8448 62.3942 38.3273 61.9159 38.7785H68.6562V40.5832H59.5559ZM58.8573 34.9435V33.3833H66.2584V34.9435H58.8573Z" fill="#019EFF"/>
<path fill-rule="evenodd" clip-rule="evenodd" d="M64.0254 55.8741C58.2565 55.8741 52.8329 53.6373 48.7535 49.5756C44.6741 45.5141 42.4277 40.1139 42.4277 34.3699C42.4277 28.626 44.6741 23.2258 48.7535 19.164C52.8326 15.1022 58.2562 12.8655 64.0254 12.8655C69.7946 12.8655 75.2179 15.1022 79.297 19.164C83.3763 23.2258 85.6228 28.6257 85.6228 34.3699C85.6228 40.1139 83.3763 45.5141 79.297 49.5756C75.2179 53.637 69.7942 55.8741 64.0254 55.8741ZM64.0254 16.4748C54.1155 16.4748 46.053 24.5025 46.053 34.3696C46.053 44.2367 54.1155 52.2644 64.0254 52.2644C73.9353 52.2644 81.9978 44.2367 81.9978 34.3696C81.9978 24.5025 73.9353 16.4748 64.0254 16.4748Z" fill="#019EFF"/>
<path d="M89.9257 48.5073C90.4253 48.0077 91.2059 48.0624 91.6684 48.5249L98.0207 54.8769L100.499 52.339C100.985 51.8531 101.636 52.0053 101.968 52.176C102.314 52.3526 102.746 52.7527 102.761 53.345V62.9051C102.761 63.1657 102.761 63.4037 102.744 63.6028C102.727 63.8174 102.687 64.0497 102.571 64.278C102.404 64.6058 102.137 64.8732 101.809 65.04C101.579 65.1571 101.348 65.1961 101.133 65.2137C100.934 65.2303 100.696 65.2303 100.435 65.2303H90.8761C90.2838 65.2157 89.8837 64.7834 89.7071 64.437C89.5364 64.1053 89.3842 63.4545 89.8701 62.9686L89.8759 62.9627L92.4071 60.4902L86.0548 54.1382C85.5933 53.6757 85.5386 52.8952 86.0382 52.3966L89.9257 48.5073Z" fill="#FF6BD4"/>
<path d="M73.5739 97.1289C73.5739 97.8354 72.9833 98.3488 72.3292 98.3488L63.3459 98.349L63.3879 101.896C63.3879 102.583 62.82 102.936 62.4647 103.05C62.0949 103.17 61.5063 103.193 61.0772 102.784L54.3171 96.0241C54.1329 95.8399 53.9646 95.6715 53.8355 95.5191C53.6962 95.3548 53.5603 95.1624 53.4809 94.9188C53.3671 94.569 53.3671 94.1909 53.4809 93.8411C53.5603 93.5961 53.6962 93.405 53.8356 93.2408C53.9646 93.0883 54.133 92.92 54.3179 92.735L61.0769 85.976C61.5061 85.5676 62.0946 85.5903 62.4644 85.7104C62.8198 85.8242 63.3876 86.1767 63.3876 86.8639L63.3876 86.8722L63.3461 90.4103L72.3294 90.4101C72.9828 90.4108 73.5734 90.9241 73.5727 91.6299L73.5739 97.1289Z" fill="#FF6BD4"/>
<path d="M24.5663 62.1285C24.0668 61.6289 24.1214 60.8483 24.5839 60.3858L30.9359 54.0335L28.398 51.555C27.9121 51.0691 28.0643 50.4182 28.2351 50.0865C28.4117 49.7401 28.8117 49.3078 29.404 49.2932H38.9642C39.2247 49.2932 39.4628 49.2932 39.6618 49.3098C39.8765 49.3273 40.1087 49.3673 40.337 49.4835C40.6649 49.6503 40.9322 49.9177 41.0991 50.2455C41.2162 50.4748 41.2552 50.7061 41.2727 50.9208C41.2893 51.1198 41.2893 51.3579 41.2893 51.6194V61.1781C41.2747 61.7704 40.8424 62.1705 40.4961 62.3471C40.1643 62.5179 39.5135 62.6701 39.0276 62.1842L39.0217 62.1783L36.5493 59.6471L30.1973 65.9994C29.7348 66.461 28.9542 66.5156 28.4556 66.016L24.5663 62.1285Z" fill="#FF6BD4"/>
</g>
<defs>
<clipPath id="clip0_178_268">
<rect width="128" height="128" fill="white"/>
</clipPath>
</defs>
</svg>
