<svg width="1024" height="1024" viewBox="0 0 1024 1024" fill="none" xmlns="http://www.w3.org/2000/svg">
<path fill-rule="evenodd" clip-rule="evenodd" d="M664.759 384.592H663.535C663.031 384.592 662.619 385.003 662.619 385.508V458.106C662.619 458.611 663.031 459.023 663.535 459.023H664.759C665.262 459.023 665.676 458.611 665.676 458.106V385.508C665.676 385.003 665.262 384.592 664.759 384.592Z" fill="#4C5662"/>
<path fill-rule="evenodd" clip-rule="evenodd" d="M664.76 384.632C665.241 384.632 665.634 385.025 665.634 385.507V458.108C665.634 458.59 665.241 458.983 664.76 458.983H663.536C663.054 458.983 662.66 458.59 662.66 458.108V385.507C662.66 385.025 663.054 384.632 663.536 384.632H664.76Z" fill="#535D68"/>
<path fill-rule="evenodd" clip-rule="evenodd" d="M664.759 384.674C665.218 384.674 665.593 385.048 665.593 385.507V458.108C665.593 458.566 665.218 458.942 664.759 458.942H663.536C663.077 458.942 662.702 458.566 662.702 458.108V385.507C662.702 385.048 663.077 384.674 663.536 384.674H664.759Z" fill="#5A646F"/>
<path fill-rule="evenodd" clip-rule="evenodd" d="M664.759 384.714C665.194 384.714 665.551 385.071 665.551 385.507V458.108C665.551 458.543 665.194 458.9 664.759 458.9H663.535C663.1 458.9 662.742 458.543 662.742 458.108V385.507C662.742 385.071 663.1 384.714 663.535 384.714H664.759Z" fill="#616A75"/>
<path fill-rule="evenodd" clip-rule="evenodd" d="M664.759 384.757C665.172 384.757 665.51 385.095 665.51 385.507V458.108C665.51 458.521 665.172 458.859 664.759 458.859H663.535C663.123 458.859 662.784 458.521 662.784 458.108V385.507C662.784 385.095 663.123 384.757 663.535 384.757H664.759Z" fill="#69717B"/>
<path fill-rule="evenodd" clip-rule="evenodd" d="M664.759 384.797C665.149 384.797 665.468 385.117 665.468 385.507V458.108C665.468 458.5 665.149 458.817 664.759 458.817H663.536C663.145 458.817 662.825 458.5 662.825 458.108V385.507C662.825 385.117 663.145 384.797 663.536 384.797H664.759Z" fill="#707881"/>
<path fill-rule="evenodd" clip-rule="evenodd" d="M664.759 384.838C665.125 384.838 665.428 385.139 665.428 385.507V458.108C665.428 458.476 665.125 458.777 664.759 458.777H663.536C663.167 458.777 662.867 458.476 662.867 458.108V385.507C662.867 385.139 663.167 384.838 663.536 384.838H664.759Z" fill="#777F88"/>
<path fill-rule="evenodd" clip-rule="evenodd" d="M664.759 384.881C665.102 384.881 665.385 385.162 665.385 385.507V458.108C665.385 458.453 665.102 458.734 664.759 458.734H663.535C663.191 458.734 662.908 458.453 662.908 458.108V385.507C662.908 385.162 663.191 384.881 663.535 384.881H664.759Z" fill="#7E858E"/>
<path fill-rule="evenodd" clip-rule="evenodd" d="M664.759 384.92C665.08 384.92 665.345 385.185 665.345 385.507V458.108C665.345 458.429 665.08 458.694 664.759 458.694H663.535C663.214 458.694 662.95 458.429 662.95 458.108V385.507C662.95 385.185 663.214 384.92 663.535 384.92H664.759Z" fill="#858C94"/>
<path fill-rule="evenodd" clip-rule="evenodd" d="M664.759 384.964C665.058 384.964 665.303 385.208 665.303 385.507V458.108C665.303 458.407 665.058 458.652 664.759 458.652H663.536C663.238 458.652 662.991 458.407 662.991 458.108V385.507C662.991 385.208 663.238 384.964 663.536 384.964H664.759Z" fill="#8C939B"/>
<path fill-rule="evenodd" clip-rule="evenodd" d="M664.759 385.003C665.035 385.003 665.262 385.231 665.262 385.507V458.108C665.262 458.384 665.035 458.611 664.759 458.611H663.535C663.26 458.611 663.033 458.384 663.033 458.108V385.507C663.033 385.231 663.26 385.003 663.535 385.003H664.759Z" fill="#949AA1"/>
<path fill-rule="evenodd" clip-rule="evenodd" d="M664.759 385.046C665.011 385.046 665.22 385.254 665.22 385.507V458.108C665.22 458.363 665.011 458.569 664.759 458.569H663.535C663.283 458.569 663.073 458.363 663.073 458.108V385.507C663.073 385.254 663.283 385.046 663.535 385.046H664.759Z" fill="#9BA0A7"/>
<path fill-rule="evenodd" clip-rule="evenodd" d="M664.759 385.086C664.989 385.086 665.179 385.277 665.179 385.507V458.108C665.179 458.339 664.989 458.528 664.759 458.528H663.536C663.305 458.528 663.116 458.339 663.116 458.108V385.507C663.116 385.277 663.305 385.086 663.536 385.086H664.759Z" fill="#A2A7AD"/>
<path fill-rule="evenodd" clip-rule="evenodd" d="M664.759 385.129C664.966 385.129 665.137 385.299 665.137 385.507V458.108C665.137 458.316 664.966 458.488 664.759 458.488H663.536C663.328 458.488 663.156 458.316 663.156 458.108V385.507C663.156 385.299 663.328 385.129 663.536 385.129H664.759Z" fill="#A9AEB4"/>
<path fill-rule="evenodd" clip-rule="evenodd" d="M664.759 385.17C664.942 385.17 665.096 385.322 665.096 385.507V458.108C665.096 458.294 664.942 458.446 664.759 458.446H663.535C663.351 458.446 663.198 458.294 663.198 458.108V385.507C663.198 385.322 663.351 385.17 663.535 385.17H664.759Z" fill="#B0B5BA"/>
<path fill-rule="evenodd" clip-rule="evenodd" d="M664.759 385.212C664.919 385.212 665.054 385.344 665.054 385.507V458.108C665.054 458.27 664.919 458.405 664.759 458.405H663.535C663.373 458.405 663.239 458.27 663.239 458.108V385.507C663.239 385.344 663.373 385.212 663.535 385.212H664.759Z" fill="#B7BBC0"/>
<path fill-rule="evenodd" clip-rule="evenodd" d="M664.759 385.253C664.898 385.253 665.014 385.368 665.014 385.507V458.108C665.014 458.247 664.898 458.363 664.759 458.363H663.536C663.397 458.363 663.281 458.247 663.281 458.108V385.507C663.281 385.368 663.397 385.253 663.536 385.253H664.759Z" fill="#BFC2C6"/>
<path fill-rule="evenodd" clip-rule="evenodd" d="M664.759 385.295C664.875 385.295 664.972 385.391 664.972 385.507V458.108C664.972 458.226 664.875 458.322 664.759 458.322H663.536C663.421 458.322 663.324 458.226 663.324 458.108V385.507C663.324 385.391 663.421 385.295 663.536 385.295H664.759Z" fill="#C6C9CD"/>
<path fill-rule="evenodd" clip-rule="evenodd" d="M664.759 385.335C664.852 385.335 664.928 385.414 664.928 385.507V458.108C664.928 458.202 664.852 458.28 664.759 458.28H663.535C663.443 458.28 663.364 458.202 663.364 458.108V385.507C663.364 385.414 663.443 385.335 663.535 385.335H664.759Z" fill="#CDD0D3"/>
<path fill-rule="evenodd" clip-rule="evenodd" d="M664.759 385.378C664.828 385.378 664.888 385.436 664.888 385.507V458.108C664.888 458.18 664.828 458.239 664.759 458.239H663.535C663.466 458.239 663.407 458.18 663.407 458.108V385.507C663.407 385.436 663.466 385.378 663.535 385.378H664.759Z" fill="#D4D6D9"/>
<path fill-rule="evenodd" clip-rule="evenodd" d="M664.759 385.418C664.805 385.418 664.848 385.459 664.848 385.507V458.108C664.848 458.156 664.805 458.197 664.759 458.197H663.535C663.489 458.197 663.447 458.156 663.447 458.108V385.507C663.447 385.459 663.489 385.418 663.535 385.418H664.759Z" fill="#DBDDE0"/>
<path fill-rule="evenodd" clip-rule="evenodd" d="M664.759 385.459C664.783 385.459 664.805 385.481 664.805 385.507V458.108C664.805 458.133 664.783 458.156 664.759 458.156H663.536C663.511 458.156 663.49 458.133 663.49 458.108V385.507C663.49 385.481 663.511 385.459 663.536 385.459H664.759Z" fill="#E2E4E6"/>
<path fill-rule="evenodd" clip-rule="evenodd" d="M664.759 385.501C664.759 385.501 664.759 385.501 664.763 385.507L664.759 458.114L663.53 458.108L663.536 385.501H664.759Z" fill="#EAEBEC"/>
<path fill-rule="evenodd" clip-rule="evenodd" d="M664.722 385.542V458.074H663.572V385.542H664.722Z" fill="#F1F1F2"/>
<path fill-rule="evenodd" clip-rule="evenodd" d="M664.68 385.584V458.033H663.613V385.584H664.68Z" fill="#F8F8F9"/>
<path fill-rule="evenodd" clip-rule="evenodd" d="M664.64 385.624V457.991H663.655V385.624H664.64Z" fill="white"/>
<path fill-rule="evenodd" clip-rule="evenodd" d="M665.676 387.565H662.657V456.051H665.676V387.565Z" fill="#010103"/>
<path fill-rule="evenodd" clip-rule="evenodd" d="M665.676 387.565H664.453V456.051H665.676V387.565Z" fill="#4A5A6B"/>
<path fill-rule="evenodd" clip-rule="evenodd" d="M665.634 387.607V456.008H664.494V387.607H665.634Z" fill="#4E5D6D"/>
<path fill-rule="evenodd" clip-rule="evenodd" d="M665.593 387.648V455.968H664.536V387.648H665.593Z" fill="#516070"/>
<path fill-rule="evenodd" clip-rule="evenodd" d="M665.551 387.69V455.925H664.576V387.69H665.551Z" fill="#556372"/>
<path fill-rule="evenodd" clip-rule="evenodd" d="M665.511 387.73V455.885H664.619V387.73H665.511Z" fill="#586675"/>
<path fill-rule="evenodd" clip-rule="evenodd" d="M665.468 387.773V455.842H664.659V387.773H665.468Z" fill="#5C6977"/>
<path fill-rule="evenodd" clip-rule="evenodd" d="M665.428 387.813V455.802H664.702V387.813H665.428Z" fill="#5F6C7A"/>
<path fill-rule="evenodd" clip-rule="evenodd" d="M665.385 387.855V455.762H664.742V387.855H665.385Z" fill="#636F7C"/>
<path fill-rule="evenodd" clip-rule="evenodd" d="M665.345 387.896V455.719H664.784V387.896H665.345Z" fill="#67717E"/>
<path fill-rule="evenodd" clip-rule="evenodd" d="M665.303 387.938V455.679H664.825V387.938H665.303Z" fill="#6A7481"/>
<path fill-rule="evenodd" clip-rule="evenodd" d="M665.262 387.979V455.636H664.867V387.979H665.262Z" fill="#6E7783"/>
<path fill-rule="evenodd" clip-rule="evenodd" d="M665.22 388.019V455.596H664.907V388.019H665.22Z" fill="#717A86"/>
<path fill-rule="evenodd" clip-rule="evenodd" d="M665.179 388.061V455.553H664.949V388.061H665.179Z" fill="#757D88"/>
<path fill-rule="evenodd" clip-rule="evenodd" d="M665.137 388.102V455.513H664.993V388.102H665.137Z" fill="#78808B"/>
<path fill-rule="evenodd" clip-rule="evenodd" d="M665.097 388.144V455.47H665.033V388.144H665.097Z" fill="#7C838D"/>
<path fill-rule="evenodd" clip-rule="evenodd" d="M359.07 368.842H360.293C360.797 368.842 361.21 369.255 361.21 369.76V414.562C361.21 415.067 360.797 415.479 360.293 415.479H359.07C358.565 415.479 358.153 415.067 358.153 414.562V369.76C358.153 369.255 358.565 368.842 359.07 368.842Z" fill="#4C5662"/>
<path fill-rule="evenodd" clip-rule="evenodd" d="M359.07 368.867C358.588 368.867 358.194 369.114 358.194 369.417V414.905C358.194 415.205 358.588 415.452 359.07 415.452H360.293C360.774 415.452 361.169 415.205 361.169 414.905V369.417C361.169 369.114 360.774 368.867 360.293 368.867H359.07Z" fill="#535D68"/>
<path fill-rule="evenodd" clip-rule="evenodd" d="M359.069 368.894C358.611 368.894 358.235 369.13 358.235 369.416V414.905C358.235 415.192 358.611 415.427 359.069 415.427H360.292C360.751 415.427 361.127 415.192 361.127 414.905V369.416C361.127 369.13 360.751 368.894 360.292 368.894H359.069Z" fill="#5A646F"/>
<path fill-rule="evenodd" clip-rule="evenodd" d="M359.07 368.919C358.634 368.919 358.277 369.142 358.277 369.416V414.905C358.277 415.176 358.634 415.4 359.07 415.4H360.293C360.729 415.4 361.085 415.176 361.085 414.905V369.416C361.085 369.142 360.729 368.919 360.293 368.919H359.07Z" fill="#616A75"/>
<path fill-rule="evenodd" clip-rule="evenodd" d="M359.069 368.946C358.657 368.946 358.318 369.158 358.318 369.416V414.905C358.318 415.163 358.657 415.375 359.069 415.375H360.293C360.706 415.375 361.044 415.163 361.044 414.905V369.416C361.044 369.158 360.706 368.946 360.293 368.946H359.069Z" fill="#69717B"/>
<path fill-rule="evenodd" clip-rule="evenodd" d="M359.07 368.972C358.68 368.972 358.36 369.172 358.36 369.416V414.905C358.36 415.15 358.68 415.348 359.07 415.348H360.293C360.683 415.348 361.002 415.15 361.002 414.905V369.416C361.002 369.172 360.683 368.972 360.293 368.972H359.07Z" fill="#707881"/>
<path fill-rule="evenodd" clip-rule="evenodd" d="M359.069 368.998C358.702 368.998 358.401 369.185 358.401 369.416V414.905C358.401 415.134 358.702 415.323 359.069 415.323H360.292C360.66 415.323 360.961 415.134 360.961 414.905V369.416C360.961 369.185 360.66 368.998 360.292 368.998H359.069Z" fill="#777F88"/>
<path fill-rule="evenodd" clip-rule="evenodd" d="M359.07 369.023C358.725 369.023 358.443 369.2 358.443 369.416V414.905C358.443 415.121 358.725 415.298 359.07 415.298H360.293C360.638 415.298 360.92 415.121 360.92 414.905V369.416C360.92 369.2 360.638 369.023 360.293 369.023H359.07Z" fill="#7E858E"/>
<path fill-rule="evenodd" clip-rule="evenodd" d="M359.069 369.051C358.748 369.051 358.484 369.214 358.484 369.416V414.905C358.484 415.105 358.748 415.271 359.069 415.271H360.292C360.614 415.271 360.878 415.105 360.878 414.905V369.416C360.878 369.214 360.614 369.051 360.292 369.051H359.069Z" fill="#858C94"/>
<path fill-rule="evenodd" clip-rule="evenodd" d="M359.07 369.075C358.772 369.075 358.525 369.23 358.525 369.416V414.905C358.525 415.091 358.772 415.246 359.07 415.246H360.293C360.591 415.246 360.837 415.091 360.837 414.905V369.416C360.837 369.23 360.591 369.075 360.293 369.075H359.07Z" fill="#8C939B"/>
<path fill-rule="evenodd" clip-rule="evenodd" d="M359.069 369.1C358.794 369.1 358.566 369.243 358.566 369.416V414.905C358.566 415.078 358.794 415.219 359.069 415.219H360.292C360.568 415.219 360.795 415.078 360.795 414.905V369.416C360.795 369.243 360.568 369.1 360.292 369.1H359.069Z" fill="#949AA1"/>
<path fill-rule="evenodd" clip-rule="evenodd" d="M359.07 369.128C358.817 369.128 358.608 369.259 358.608 369.417V414.905C358.608 415.063 358.817 415.194 359.07 415.194H360.293C360.546 415.194 360.754 415.063 360.754 414.905V369.417C360.754 369.259 360.546 369.128 360.293 369.128H359.07Z" fill="#9BA0A7"/>
<path fill-rule="evenodd" clip-rule="evenodd" d="M359.069 369.152C358.839 369.152 358.649 369.272 358.649 369.416V414.905C358.649 415.049 358.839 415.167 359.069 415.167H360.292C360.523 415.167 360.712 415.049 360.712 414.905V369.416C360.712 369.272 360.523 369.152 360.292 369.152H359.069Z" fill="#A2A7AD"/>
<path fill-rule="evenodd" clip-rule="evenodd" d="M359.07 369.179C358.863 369.179 358.692 369.285 358.692 369.416V414.905C358.692 415.034 358.863 415.142 359.07 415.142H360.293C360.5 415.142 360.671 415.034 360.671 414.905V369.416C360.671 369.285 360.5 369.179 360.293 369.179H359.07Z" fill="#A9AEB4"/>
<path fill-rule="evenodd" clip-rule="evenodd" d="M359.069 369.204C358.885 369.204 358.732 369.3 358.732 369.416V414.905C358.732 415.021 358.885 415.115 359.069 415.115H360.292C360.477 415.115 360.629 415.021 360.629 414.905V369.416C360.629 369.3 360.477 369.204 360.292 369.204H359.069Z" fill="#B0B5BA"/>
<path fill-rule="evenodd" clip-rule="evenodd" d="M359.069 369.231C358.908 369.231 358.774 369.314 358.774 369.416V414.905C358.774 415.005 358.908 415.09 359.069 415.09H360.292C360.454 415.09 360.588 415.005 360.588 414.905V369.416C360.588 369.314 360.454 369.231 360.292 369.231H359.069Z" fill="#B7BBC0"/>
<path fill-rule="evenodd" clip-rule="evenodd" d="M359.07 369.256C358.931 369.256 358.816 369.33 358.816 369.416V414.905C358.816 414.991 358.931 415.063 359.07 415.063H360.293C360.432 415.063 360.547 414.991 360.547 414.905V369.416C360.547 369.33 360.432 369.256 360.293 369.256H359.07Z" fill="#BFC2C6"/>
<path fill-rule="evenodd" clip-rule="evenodd" d="M359.07 369.283C358.954 369.283 358.857 369.343 358.857 369.416V414.905C358.857 414.978 358.954 415.038 359.07 415.038H360.293C360.409 415.038 360.506 414.978 360.506 414.905V369.416C360.506 369.343 360.409 369.283 360.293 369.283H359.07Z" fill="#C6C9CD"/>
<path fill-rule="evenodd" clip-rule="evenodd" d="M359.069 369.309C358.977 369.309 358.898 369.357 358.898 369.416V414.905C358.898 414.963 358.977 415.012 359.069 415.012H360.292C360.386 415.012 360.464 414.963 360.464 414.905V369.416C360.464 369.357 360.386 369.309 360.292 369.309H359.069Z" fill="#CDD0D3"/>
<path fill-rule="evenodd" clip-rule="evenodd" d="M359.069 369.334C358.999 369.334 358.94 369.372 358.94 369.416V414.905C358.94 414.949 358.999 414.986 359.069 414.986H360.292C360.362 414.986 360.423 414.949 360.423 414.905V369.416C360.423 369.372 360.362 369.334 360.292 369.334H359.069Z" fill="#D4D6D9"/>
<path fill-rule="evenodd" clip-rule="evenodd" d="M359.07 369.361C359.023 369.361 358.981 369.386 358.981 369.416V414.905C358.981 414.933 359.023 414.961 359.07 414.961H360.293C360.34 414.961 360.381 414.933 360.381 414.905V369.416C360.381 369.386 360.34 369.361 360.293 369.361H359.07Z" fill="#DBDDE0"/>
<path fill-rule="evenodd" clip-rule="evenodd" d="M359.07 369.386C359.046 369.386 359.023 369.401 359.023 369.416V414.905C359.023 414.92 359.046 414.933 359.07 414.933H360.293C360.317 414.933 360.34 414.92 360.34 414.905V369.416C360.34 369.401 360.317 369.386 360.293 369.386H359.07Z" fill="#E2E4E6"/>
<path fill-rule="evenodd" clip-rule="evenodd" d="M359.07 369.413C359.07 369.413 359.07 369.413 359.064 369.417L359.07 414.909L360.298 414.905L360.293 369.413H359.07Z" fill="#EAEBEC"/>
<path fill-rule="evenodd" clip-rule="evenodd" d="M359.105 369.437V414.881H360.257V369.437H359.105Z" fill="#F1F1F2"/>
<path fill-rule="evenodd" clip-rule="evenodd" d="M359.147 369.465V414.857H360.215V369.465H359.147Z" fill="#F8F8F9"/>
<path fill-rule="evenodd" clip-rule="evenodd" d="M359.188 369.489V414.832H360.174V369.489H359.188Z" fill="white"/>
<path fill-rule="evenodd" clip-rule="evenodd" d="M358.153 370.706H361.172V413.614H358.153V370.706Z" fill="#010103"/>
<path fill-rule="evenodd" clip-rule="evenodd" d="M358.153 370.706H359.375V413.614H358.153V370.706Z" fill="#4A5A6B"/>
<path fill-rule="evenodd" clip-rule="evenodd" d="M358.194 370.732V413.589H359.335V370.732H358.194Z" fill="#4E5D6D"/>
<path fill-rule="evenodd" clip-rule="evenodd" d="M358.235 370.758V413.564H359.292V370.758H358.235Z" fill="#516070"/>
<path fill-rule="evenodd" clip-rule="evenodd" d="M358.277 370.783V413.537H359.251V370.783H358.277Z" fill="#556372"/>
<path fill-rule="evenodd" clip-rule="evenodd" d="M358.318 370.809V413.512H359.209V370.809H358.318Z" fill="#586675"/>
<path fill-rule="evenodd" clip-rule="evenodd" d="M358.36 370.834V413.485H359.168V370.834H358.36Z" fill="#5C6977"/>
<path fill-rule="evenodd" clip-rule="evenodd" d="M358.401 370.861V413.46H359.126V370.861H358.401Z" fill="#5F6C7A"/>
<path fill-rule="evenodd" clip-rule="evenodd" d="M358.443 370.886V413.433H359.086V370.886H358.443Z" fill="#636F7C"/>
<path fill-rule="evenodd" clip-rule="evenodd" d="M358.484 370.914V413.408H359.044V370.914H358.484Z" fill="#67717E"/>
<path fill-rule="evenodd" clip-rule="evenodd" d="M358.525 370.938V413.381H359.003V370.938H358.525Z" fill="#6A7481"/>
<path fill-rule="evenodd" clip-rule="evenodd" d="M358.566 370.965V413.356H358.961V370.965H358.566Z" fill="#6E7783"/>
<path fill-rule="evenodd" clip-rule="evenodd" d="M358.608 370.99V413.329H358.92V370.99H358.608Z" fill="#717A86"/>
<path fill-rule="evenodd" clip-rule="evenodd" d="M358.649 371.016V413.304H358.878V371.016H358.649Z" fill="#757D88"/>
<path fill-rule="evenodd" clip-rule="evenodd" d="M358.692 371.043V413.278H358.837V371.043H358.692Z" fill="#78808B"/>
<path fill-rule="evenodd" clip-rule="evenodd" d="M358.732 371.068V413.252H358.795V371.068H358.732Z" fill="#7C838D"/>
<path fill-rule="evenodd" clip-rule="evenodd" d="M359.07 427.947H360.293C360.797 427.947 361.21 428.361 361.21 428.864V473.667C361.21 474.172 360.797 474.583 360.293 474.583H359.07C358.565 474.583 358.153 474.172 358.153 473.667V428.864C358.153 428.361 358.565 427.947 359.07 427.947Z" fill="#4C5662"/>
<path fill-rule="evenodd" clip-rule="evenodd" d="M359.07 427.974C358.588 427.974 358.194 428.22 358.194 428.521V474.01C358.194 474.312 358.588 474.559 359.07 474.559H360.293C360.774 474.559 361.169 474.312 361.169 474.01V428.521C361.169 428.22 360.774 427.974 360.293 427.974H359.07Z" fill="#535D68"/>
<path fill-rule="evenodd" clip-rule="evenodd" d="M359.069 427.999C358.611 427.999 358.235 428.234 358.235 428.522V474.01C358.235 474.297 358.611 474.532 359.069 474.532H360.292C360.751 474.532 361.127 474.297 361.127 474.01V428.522C361.127 428.234 360.751 427.999 360.292 427.999H359.069Z" fill="#5A646F"/>
<path fill-rule="evenodd" clip-rule="evenodd" d="M359.07 428.026C358.634 428.026 358.277 428.25 358.277 428.521V474.01C358.277 474.283 358.634 474.507 359.07 474.507H360.293C360.729 474.507 361.085 474.283 361.085 474.01V428.521C361.085 428.25 360.729 428.026 360.293 428.026H359.07Z" fill="#616A75"/>
<path fill-rule="evenodd" clip-rule="evenodd" d="M359.069 428.051C358.657 428.051 358.318 428.263 358.318 428.521V474.01C358.318 474.268 358.657 474.48 359.069 474.48H360.293C360.706 474.48 361.044 474.268 361.044 474.01V428.521C361.044 428.263 360.706 428.051 360.293 428.051H359.069Z" fill="#69717B"/>
<path fill-rule="evenodd" clip-rule="evenodd" d="M359.07 428.078C358.68 428.078 358.36 428.276 358.36 428.521V474.01C358.36 474.254 358.68 474.455 359.07 474.455H360.293C360.683 474.455 361.002 474.254 361.002 474.01V428.521C361.002 428.276 360.683 428.078 360.293 428.078H359.07Z" fill="#707881"/>
<path fill-rule="evenodd" clip-rule="evenodd" d="M359.069 428.103C358.702 428.103 358.401 428.292 358.401 428.522V474.01C358.401 474.241 358.702 474.428 359.069 474.428H360.292C360.66 474.428 360.961 474.241 360.961 474.01V428.522C360.961 428.292 360.66 428.103 360.292 428.103H359.069Z" fill="#777F88"/>
<path fill-rule="evenodd" clip-rule="evenodd" d="M359.07 428.13C358.725 428.13 358.443 428.306 358.443 428.522V474.01C358.443 474.225 358.725 474.403 359.07 474.403H360.293C360.638 474.403 360.92 474.225 360.92 474.01V428.522C360.92 428.306 360.638 428.13 360.293 428.13H359.07Z" fill="#7E858E"/>
<path fill-rule="evenodd" clip-rule="evenodd" d="M359.069 428.155C358.748 428.155 358.484 428.321 358.484 428.522V474.01C358.484 474.212 358.748 474.376 359.069 474.376H360.292C360.614 474.376 360.878 474.212 360.878 474.01V428.522C360.878 428.321 360.614 428.155 360.292 428.155H359.069Z" fill="#858C94"/>
<path fill-rule="evenodd" clip-rule="evenodd" d="M359.07 428.18C358.772 428.18 358.525 428.334 358.525 428.522V474.01C358.525 474.197 358.772 474.351 359.07 474.351H360.293C360.591 474.351 360.837 474.197 360.837 474.01V428.522C360.837 428.334 360.591 428.18 360.293 428.18H359.07Z" fill="#8C939B"/>
<path fill-rule="evenodd" clip-rule="evenodd" d="M359.069 428.207C358.794 428.207 358.566 428.347 358.566 428.521V474.01C358.566 474.183 358.794 474.325 359.069 474.325H360.292C360.568 474.325 360.795 474.183 360.795 474.01V428.521C360.795 428.347 360.568 428.207 360.292 428.207H359.069Z" fill="#949AA1"/>
<path fill-rule="evenodd" clip-rule="evenodd" d="M359.07 428.232C358.817 428.232 358.608 428.363 358.608 428.521V474.01C358.608 474.169 358.817 474.299 359.07 474.299H360.293C360.546 474.299 360.754 474.169 360.754 474.01V428.521C360.754 428.363 360.546 428.232 360.293 428.232H359.07Z" fill="#9BA0A7"/>
<path fill-rule="evenodd" clip-rule="evenodd" d="M359.069 428.259C358.839 428.259 358.649 428.377 358.649 428.522V474.01C358.649 474.154 358.839 474.273 359.069 474.273H360.292C360.523 474.273 360.712 474.154 360.712 474.01V428.522C360.712 428.377 360.523 428.259 360.292 428.259H359.069Z" fill="#A2A7AD"/>
<path fill-rule="evenodd" clip-rule="evenodd" d="M359.07 428.284C358.863 428.284 358.692 428.392 358.692 428.521V474.01C358.692 474.141 358.863 474.246 359.07 474.246H360.293C360.5 474.246 360.671 474.141 360.671 474.01V428.521C360.671 428.392 360.5 428.284 360.293 428.284H359.07Z" fill="#A9AEB4"/>
<path fill-rule="evenodd" clip-rule="evenodd" d="M359.069 428.311C358.885 428.311 358.732 428.406 358.732 428.522V474.01C358.732 474.125 358.885 474.222 359.069 474.222H360.292C360.477 474.222 360.629 474.125 360.629 474.01V428.522C360.629 428.406 360.477 428.311 360.292 428.311H359.069Z" fill="#B0B5BA"/>
<path fill-rule="evenodd" clip-rule="evenodd" d="M359.069 428.336C358.908 428.336 358.774 428.421 358.774 428.521V474.01C358.774 474.112 358.908 474.194 359.069 474.194H360.292C360.454 474.194 360.588 474.112 360.588 474.01V428.521C360.588 428.421 360.454 428.336 360.292 428.336H359.069Z" fill="#B7BBC0"/>
<path fill-rule="evenodd" clip-rule="evenodd" d="M359.07 428.363C358.931 428.363 358.816 428.434 358.816 428.521V474.01C358.816 474.096 358.931 474.169 359.07 474.169H360.293C360.432 474.169 360.547 474.096 360.547 474.01V428.521C360.547 428.434 360.432 428.363 360.293 428.363H359.07Z" fill="#BFC2C6"/>
<path fill-rule="evenodd" clip-rule="evenodd" d="M359.07 428.388C358.954 428.388 358.857 428.448 358.857 428.522V474.01C358.857 474.083 358.954 474.143 359.07 474.143H360.293C360.409 474.143 360.506 474.083 360.506 474.01V428.522C360.506 428.448 360.409 428.388 360.293 428.388H359.07Z" fill="#C6C9CD"/>
<path fill-rule="evenodd" clip-rule="evenodd" d="M359.069 428.413C358.977 428.413 358.898 428.464 358.898 428.522V474.01C358.898 474.069 358.977 474.118 359.069 474.118H360.292C360.386 474.118 360.464 474.069 360.464 474.01V428.522C360.464 428.464 360.386 428.413 360.292 428.413H359.069Z" fill="#CDD0D3"/>
<path fill-rule="evenodd" clip-rule="evenodd" d="M359.069 428.44C358.999 428.44 358.94 428.477 358.94 428.521V474.01C358.94 474.053 358.999 474.093 359.069 474.093H360.292C360.362 474.093 360.423 474.053 360.423 474.01V428.521C360.423 428.477 360.362 428.44 360.292 428.44H359.069Z" fill="#D4D6D9"/>
<path fill-rule="evenodd" clip-rule="evenodd" d="M359.07 428.465C359.023 428.465 358.981 428.492 358.981 428.521V474.01C358.981 474.041 359.023 474.065 359.07 474.065H360.293C360.34 474.065 360.381 474.041 360.381 474.01V428.521C360.381 428.492 360.34 428.465 360.293 428.465H359.07Z" fill="#DBDDE0"/>
<path fill-rule="evenodd" clip-rule="evenodd" d="M359.07 428.492C359.046 428.492 359.023 428.506 359.023 428.521V474.01C359.023 474.025 359.046 474.041 359.07 474.041H360.293C360.317 474.041 360.34 474.025 360.34 474.01V428.521C360.34 428.506 360.317 428.492 360.293 428.492H359.07Z" fill="#E2E4E6"/>
<path fill-rule="evenodd" clip-rule="evenodd" d="M359.07 428.517C359.07 428.517 359.07 428.517 359.064 428.522L359.07 474.014L360.298 474.01L360.293 428.517H359.07Z" fill="#EAEBEC"/>
<path fill-rule="evenodd" clip-rule="evenodd" d="M359.105 428.544V473.988H360.257V428.544H359.105Z" fill="#F1F1F2"/>
<path fill-rule="evenodd" clip-rule="evenodd" d="M359.147 428.569V473.962H360.215V428.569H359.147Z" fill="#F8F8F9"/>
<path fill-rule="evenodd" clip-rule="evenodd" d="M359.188 428.596V473.936H360.174V428.596H359.188Z" fill="white"/>
<path fill-rule="evenodd" clip-rule="evenodd" d="M358.153 429.812H361.172V472.721H358.153V429.812Z" fill="#010103"/>
<path fill-rule="evenodd" clip-rule="evenodd" d="M358.153 429.812H359.375V472.721H358.153V429.812Z" fill="#4A5A6B"/>
<path fill-rule="evenodd" clip-rule="evenodd" d="M358.194 429.837V472.694H359.335V429.837H358.194Z" fill="#4E5D6D"/>
<path fill-rule="evenodd" clip-rule="evenodd" d="M358.235 429.862V472.669H359.292V429.862H358.235Z" fill="#516070"/>
<path fill-rule="evenodd" clip-rule="evenodd" d="M358.277 429.889V472.642H359.251V429.889H358.277Z" fill="#556372"/>
<path fill-rule="evenodd" clip-rule="evenodd" d="M358.318 429.914V472.617H359.209V429.914H358.318Z" fill="#586675"/>
<path fill-rule="evenodd" clip-rule="evenodd" d="M358.36 429.941V472.591H359.168V429.941H358.36Z" fill="#5C6977"/>
<path fill-rule="evenodd" clip-rule="evenodd" d="M358.401 429.967V472.565H359.126V429.967H358.401Z" fill="#5F6C7A"/>
<path fill-rule="evenodd" clip-rule="evenodd" d="M358.443 429.993V472.539H359.086V429.993H358.443Z" fill="#636F7C"/>
<path fill-rule="evenodd" clip-rule="evenodd" d="M358.484 430.018V472.512H359.044V430.018H358.484Z" fill="#67717E"/>
<path fill-rule="evenodd" clip-rule="evenodd" d="M358.525 430.045V472.487H359.003V430.045H358.525Z" fill="#6A7481"/>
<path fill-rule="evenodd" clip-rule="evenodd" d="M358.566 430.07V472.46H358.961V430.07H358.566Z" fill="#6E7783"/>
<path fill-rule="evenodd" clip-rule="evenodd" d="M358.608 430.095V472.435H358.92V430.095H358.608Z" fill="#717A86"/>
<path fill-rule="evenodd" clip-rule="evenodd" d="M358.649 430.122V472.408H358.878V430.122H358.649Z" fill="#757D88"/>
<path fill-rule="evenodd" clip-rule="evenodd" d="M358.692 430.147V472.383H358.837V430.147H358.692Z" fill="#78808B"/>
<path fill-rule="evenodd" clip-rule="evenodd" d="M358.732 430.174V472.359H358.795V430.174H358.732Z" fill="#7C838D"/>
<path fill-rule="evenodd" clip-rule="evenodd" d="M358.917 324.149H360.14C360.644 324.149 361.057 324.564 361.057 325.067V346.761C361.057 347.265 360.644 347.679 360.14 347.679H358.917C358.412 347.679 358 347.265 358 346.761V325.067C358 324.564 358.412 324.149 358.917 324.149Z" fill="#4C5662"/>
<path fill-rule="evenodd" clip-rule="evenodd" d="M358.917 324.163C358.435 324.163 358.042 324.288 358.042 324.44V347.39C358.042 347.54 358.435 347.665 358.917 347.665H360.14C360.622 347.665 361.016 347.54 361.016 347.39V324.44C361.016 324.288 360.622 324.163 360.14 324.163H358.917Z" fill="#535D68"/>
<path fill-rule="evenodd" clip-rule="evenodd" d="M358.917 324.176C358.459 324.176 358.083 324.294 358.083 324.441V347.39C358.083 347.534 358.459 347.652 358.917 347.652H360.14C360.599 347.652 360.974 347.534 360.974 347.39V324.441C360.974 324.294 360.599 324.176 360.14 324.176H358.917Z" fill="#5A646F"/>
<path fill-rule="evenodd" clip-rule="evenodd" d="M358.917 324.19C358.481 324.19 358.125 324.302 358.125 324.44V347.39C358.125 347.527 358.481 347.638 358.917 347.638H360.14C360.576 347.638 360.933 347.527 360.933 347.39V324.44C360.933 324.302 360.576 324.19 360.14 324.19H358.917Z" fill="#616A75"/>
<path fill-rule="evenodd" clip-rule="evenodd" d="M358.917 324.204C358.503 324.204 358.166 324.31 358.166 324.441V347.39C358.166 347.519 358.503 347.625 358.917 347.625H360.14C360.553 347.625 360.892 347.519 360.892 347.39V324.441C360.892 324.31 360.553 324.204 360.14 324.204H358.917Z" fill="#69717B"/>
<path fill-rule="evenodd" clip-rule="evenodd" d="M358.917 324.215C358.527 324.215 358.207 324.317 358.207 324.44V347.39C358.207 347.511 358.527 347.613 358.917 347.613H360.14C360.53 347.613 360.85 347.511 360.85 347.39V324.44C360.85 324.317 360.53 324.215 360.14 324.215H358.917Z" fill="#707881"/>
<path fill-rule="evenodd" clip-rule="evenodd" d="M358.917 324.228C358.55 324.228 358.249 324.323 358.249 324.44V347.39C358.249 347.506 358.55 347.6 358.917 347.6H360.14C360.507 347.6 360.808 347.506 360.808 347.39V324.44C360.808 324.323 360.507 324.228 360.14 324.228H358.917Z" fill="#777F88"/>
<path fill-rule="evenodd" clip-rule="evenodd" d="M358.917 324.242C358.573 324.242 358.29 324.331 358.29 324.441V347.39C358.29 347.498 358.573 347.586 358.917 347.586H360.14C360.485 347.586 360.767 347.498 360.767 347.39V324.441C360.767 324.331 360.485 324.242 360.14 324.242H358.917Z" fill="#7E858E"/>
<path fill-rule="evenodd" clip-rule="evenodd" d="M358.917 324.255C358.595 324.255 358.331 324.338 358.331 324.44V347.39C358.331 347.49 358.595 347.573 358.917 347.573H360.14C360.461 347.573 360.725 347.49 360.725 347.39V324.44C360.725 324.338 360.461 324.255 360.14 324.255H358.917Z" fill="#858C94"/>
<path fill-rule="evenodd" clip-rule="evenodd" d="M358.917 324.269C358.618 324.269 358.373 324.346 358.373 324.441V347.39C358.373 347.482 358.618 347.562 358.917 347.562H360.14C360.439 347.562 360.684 347.482 360.684 347.39V324.441C360.684 324.346 360.439 324.269 360.14 324.269H358.917Z" fill="#8C939B"/>
<path fill-rule="evenodd" clip-rule="evenodd" d="M358.917 324.28C358.641 324.28 358.414 324.352 358.414 324.44V347.39C358.414 347.476 358.641 347.548 358.917 347.548H360.14C360.415 347.548 360.643 347.476 360.643 347.39V324.44C360.643 324.352 360.415 324.28 360.14 324.28H358.917Z" fill="#949AA1"/>
<path fill-rule="evenodd" clip-rule="evenodd" d="M358.917 324.294C358.664 324.294 358.456 324.359 358.456 324.44V347.39C358.456 347.469 358.664 347.534 358.917 347.534H360.14C360.393 347.534 360.601 347.469 360.601 347.39V324.44C360.601 324.359 360.393 324.294 360.14 324.294H358.917Z" fill="#9BA0A7"/>
<path fill-rule="evenodd" clip-rule="evenodd" d="M358.917 324.307C358.687 324.307 358.497 324.368 358.497 324.441V347.39C358.497 347.461 358.687 347.521 358.917 347.521H360.14C360.37 347.521 360.56 347.461 360.56 347.39V324.441C360.56 324.368 360.37 324.307 360.14 324.307H358.917Z" fill="#A2A7AD"/>
<path fill-rule="evenodd" clip-rule="evenodd" d="M358.917 324.321C358.71 324.321 358.538 324.375 358.538 324.44V347.39C358.538 347.454 358.71 347.507 358.917 347.507H360.14C360.347 347.507 360.518 347.454 360.518 347.39V324.44C360.518 324.375 360.347 324.321 360.14 324.321H358.917Z" fill="#A9AEB4"/>
<path fill-rule="evenodd" clip-rule="evenodd" d="M358.917 324.333C358.732 324.333 358.58 324.381 358.58 324.44V347.39C358.58 347.448 358.732 347.496 358.917 347.496H360.14C360.324 347.496 360.477 347.448 360.477 347.39V324.44C360.477 324.381 360.324 324.333 360.14 324.333H358.917Z" fill="#B0B5BA"/>
<path fill-rule="evenodd" clip-rule="evenodd" d="M358.917 324.346C358.756 324.346 358.621 324.389 358.621 324.441V347.39C358.621 347.44 358.756 347.482 358.917 347.482H360.14C360.301 347.482 360.436 347.44 360.436 347.39V324.441C360.436 324.389 360.301 324.346 360.14 324.346H358.917Z" fill="#B7BBC0"/>
<path fill-rule="evenodd" clip-rule="evenodd" d="M358.917 324.359C358.778 324.359 358.663 324.396 358.663 324.441V347.39C358.663 347.432 358.778 347.469 358.917 347.469H360.14C360.278 347.469 360.394 347.432 360.394 347.39V324.441C360.394 324.396 360.278 324.359 360.14 324.359H358.917Z" fill="#BFC2C6"/>
<path fill-rule="evenodd" clip-rule="evenodd" d="M358.917 324.373C358.801 324.373 358.704 324.404 358.704 324.441V347.39C358.704 347.424 358.801 347.455 358.917 347.455H360.14C360.256 347.455 360.353 347.424 360.353 347.39V324.441C360.353 324.404 360.256 324.373 360.14 324.373H358.917Z" fill="#C6C9CD"/>
<path fill-rule="evenodd" clip-rule="evenodd" d="M358.916 324.386C358.824 324.386 358.746 324.409 358.746 324.44V347.39C358.746 347.418 358.824 347.444 358.916 347.444H360.139C360.233 347.444 360.311 347.418 360.311 347.39V324.44C360.311 324.409 360.233 324.386 360.139 324.386H358.916Z" fill="#CDD0D3"/>
<path fill-rule="evenodd" clip-rule="evenodd" d="M358.917 324.398C358.847 324.398 358.787 324.417 358.787 324.44V347.39C358.787 347.411 358.847 347.43 358.917 347.43H360.14C360.21 347.43 360.269 347.411 360.269 347.39V324.44C360.269 324.417 360.21 324.398 360.14 324.398H358.917Z" fill="#D4D6D9"/>
<path fill-rule="evenodd" clip-rule="evenodd" d="M358.917 324.411C358.869 324.411 358.829 324.425 358.829 324.441V347.39C358.829 347.403 358.869 347.417 358.917 347.417H360.14C360.187 347.417 360.229 347.403 360.229 347.39V324.441C360.229 324.425 360.187 324.411 360.14 324.411H358.917Z" fill="#DBDDE0"/>
<path fill-rule="evenodd" clip-rule="evenodd" d="M358.917 324.425C358.893 324.425 358.87 324.433 358.87 324.441V347.39C358.87 347.396 358.893 347.404 358.917 347.404H360.14C360.164 347.404 360.186 347.396 360.186 347.39V324.441C360.186 324.433 360.164 324.425 360.14 324.425H358.917Z" fill="#E2E4E6"/>
<path fill-rule="evenodd" clip-rule="evenodd" d="M358.916 324.438C358.916 324.438 358.916 324.438 358.911 324.44L358.916 347.39H360.145L360.139 324.438H358.916Z" fill="#EAEBEC"/>
<path fill-rule="evenodd" clip-rule="evenodd" d="M358.953 324.45V347.378H360.103V324.45H358.953Z" fill="#F1F1F2"/>
<path fill-rule="evenodd" clip-rule="evenodd" d="M358.994 324.464V347.365H360.062V324.464H358.994Z" fill="#F8F8F9"/>
<path fill-rule="evenodd" clip-rule="evenodd" d="M359.036 324.477V347.351H360.021V324.477H359.036Z" fill="white"/>
<path fill-rule="evenodd" clip-rule="evenodd" d="M358 325.09H361.019V346.739H358V325.09Z" fill="#010103"/>
<path fill-rule="evenodd" clip-rule="evenodd" d="M358 325.09H359.223V346.739H358V325.09Z" fill="#4A5A6B"/>
<path fill-rule="evenodd" clip-rule="evenodd" d="M358.042 325.104V346.725H359.182V325.104H358.042Z" fill="#4E5D6D"/>
<path fill-rule="evenodd" clip-rule="evenodd" d="M358.083 325.116V346.712H359.14V325.116H358.083Z" fill="#516070"/>
<path fill-rule="evenodd" clip-rule="evenodd" d="M358.125 325.13V346.698H359.098V325.13H358.125Z" fill="#556372"/>
<path fill-rule="evenodd" clip-rule="evenodd" d="M358.166 325.142V346.687H359.057V325.142H358.166Z" fill="#586675"/>
<path fill-rule="evenodd" clip-rule="evenodd" d="M358.207 325.156V346.673H359.015V325.156H358.207Z" fill="#5C6977"/>
<path fill-rule="evenodd" clip-rule="evenodd" d="M358.249 325.169V346.66H358.974V325.169H358.249Z" fill="#5F6C7A"/>
<path fill-rule="evenodd" clip-rule="evenodd" d="M358.29 325.182V346.646H358.933V325.182H358.29Z" fill="#636F7C"/>
<path fill-rule="evenodd" clip-rule="evenodd" d="M358.331 325.195V346.633H358.891V325.195H358.331Z" fill="#67717E"/>
<path fill-rule="evenodd" clip-rule="evenodd" d="M358.373 325.207V346.621H358.85V325.207H358.373Z" fill="#6A7481"/>
<path fill-rule="evenodd" clip-rule="evenodd" d="M358.414 325.221V346.608H358.808V325.221H358.414Z" fill="#6E7783"/>
<path fill-rule="evenodd" clip-rule="evenodd" d="M358.456 325.235V346.594H358.767V325.235H358.456Z" fill="#717A86"/>
<path fill-rule="evenodd" clip-rule="evenodd" d="M358.497 325.248V346.581H358.725V325.248H358.497Z" fill="#757D88"/>
<path fill-rule="evenodd" clip-rule="evenodd" d="M358.538 325.261V346.567H358.684V325.261H358.538Z" fill="#78808B"/>
<path fill-rule="evenodd" clip-rule="evenodd" d="M358.58 325.273V346.556H358.642V325.273H358.58Z" fill="#7C838D"/>
<path fill-rule="evenodd" clip-rule="evenodd" d="M407.395 205.581H616.047C640.524 205.581 660.553 225.61 660.553 250.089V774.912C660.553 799.392 640.524 819.42 616.047 819.42H407.395C382.916 819.42 362.888 799.392 362.888 774.912V250.089C362.888 225.61 382.916 205.581 407.395 205.581Z" fill="black"/>
<path fill-rule="evenodd" clip-rule="evenodd" d="M407.395 203H616.047C641.952 203 663.139 224.142 663.139 249.991V775.01C663.139 800.859 641.952 822 616.047 822H407.395C381.489 822 360.302 800.859 360.302 775.01V249.991C360.302 224.142 381.489 203 407.395 203ZM407.395 205.582H616.047C640.524 205.582 660.553 225.565 660.553 249.991V775.01C660.553 799.435 640.524 819.42 616.047 819.42H407.395C382.916 819.42 362.888 799.435 362.888 775.01V249.991C362.888 225.565 382.916 205.582 407.395 205.582Z" fill="#5F738C"/>
<path fill-rule="evenodd" clip-rule="evenodd" d="M407.395 203.042C381.512 203.042 360.344 224.165 360.344 249.991V775.01C360.344 800.836 381.512 821.958 407.395 821.958H616.047C641.929 821.958 663.098 800.836 663.098 775.01V249.991C663.098 224.165 641.929 203.042 616.047 203.042H407.395ZM407.395 205.539H616.047C640.548 205.539 660.596 225.543 660.596 249.991V775.01C660.596 799.458 640.548 819.461 616.047 819.461H407.395C382.893 819.461 362.846 799.458 362.846 775.01V249.991C362.846 225.543 382.893 205.539 407.395 205.539Z" fill="#63768D"/>
<path fill-rule="evenodd" clip-rule="evenodd" d="M407.396 203.083C381.536 203.083 360.385 224.186 360.385 249.991V775.01C360.385 800.813 381.536 821.917 407.396 821.917H616.047C641.906 821.917 663.056 800.813 663.056 775.01V249.991C663.056 224.186 641.906 203.083 616.047 203.083H407.396ZM407.396 205.499H616.047C640.571 205.499 660.636 225.52 660.636 249.991V775.01C660.636 799.48 640.571 819.502 616.047 819.502H407.396C382.871 819.502 362.805 799.48 362.805 775.01V249.991C362.805 225.52 382.871 205.499 407.396 205.499Z" fill="#66788F"/>
<path fill-rule="evenodd" clip-rule="evenodd" d="M407.396 203.125C381.558 203.125 360.427 224.209 360.427 249.991V775.01C360.427 800.791 381.558 821.876 407.396 821.876H616.048C641.883 821.876 663.016 800.791 663.016 775.01V249.991C663.016 224.209 641.883 203.125 616.048 203.125H407.396ZM407.396 205.457H616.048C640.594 205.457 660.679 225.496 660.679 249.991V775.01C660.679 799.504 640.594 819.543 616.048 819.543H407.396C382.848 819.543 362.764 799.504 362.764 775.01V249.991C362.764 225.496 382.848 205.457 407.396 205.457Z" fill="#6A7B90"/>
<path fill-rule="evenodd" clip-rule="evenodd" d="M407.395 203.165C381.581 203.165 360.468 224.232 360.468 249.991V775.01C360.468 800.768 381.581 821.834 407.395 821.834H616.047C641.862 821.834 662.973 800.768 662.973 775.01V249.991C662.973 224.232 641.862 203.165 616.047 203.165H407.395ZM407.395 205.416H616.047C640.617 205.416 660.719 225.473 660.719 249.991V775.01C660.719 799.526 640.617 819.585 616.047 819.585H407.395C382.825 819.585 362.722 799.526 362.722 775.01V249.991C362.722 225.473 382.825 205.416 407.395 205.416Z" fill="#6E7E92"/>
<path fill-rule="evenodd" clip-rule="evenodd" d="M407.395 203.208C381.604 203.208 360.509 224.256 360.509 249.991V775.01C360.509 800.745 381.604 821.793 407.395 821.793H616.047C641.838 821.793 662.932 800.745 662.932 775.01V249.991C662.932 224.256 641.838 203.208 616.047 203.208H407.395ZM407.395 205.374H616.047C640.64 205.374 660.761 225.452 660.761 249.991V775.01C660.761 799.549 640.64 819.626 616.047 819.626H407.395C382.802 819.626 362.68 799.549 362.68 775.01V249.991C362.68 225.452 382.802 205.374 407.395 205.374Z" fill="#728193"/>
<path fill-rule="evenodd" clip-rule="evenodd" d="M407.395 203.248C381.627 203.248 360.551 224.279 360.551 249.991V775.01C360.551 800.722 381.627 821.752 407.395 821.752H616.047C641.815 821.752 662.891 800.722 662.891 775.01V249.991C662.891 224.279 641.815 203.248 616.047 203.248H407.395ZM407.395 205.333H616.047C640.664 205.333 660.802 225.429 660.802 249.991V775.01C660.802 799.572 640.664 819.668 616.047 819.668H407.395C382.779 819.668 362.639 799.572 362.639 775.01V249.991C362.639 225.429 382.779 205.333 407.395 205.333Z" fill="#758395"/>
<path fill-rule="evenodd" clip-rule="evenodd" d="M407.396 203.29C381.649 203.29 360.592 224.302 360.592 249.991V775.01C360.592 800.699 381.649 821.71 407.396 821.71H616.048C641.793 821.71 662.85 800.699 662.85 775.01V249.991C662.85 224.302 641.793 203.29 616.048 203.29H407.396ZM407.396 205.29H616.048C640.687 205.29 660.844 225.406 660.844 249.991V775.01C660.844 799.595 640.687 819.709 616.048 819.709H407.396C382.757 819.709 362.598 799.595 362.598 775.01V249.991C362.598 225.406 382.757 205.29 407.396 205.29Z" fill="#798696"/>
<path fill-rule="evenodd" clip-rule="evenodd" d="M407.395 203.331C381.672 203.331 360.633 224.325 360.633 249.991V775.01C360.633 800.676 381.672 821.669 407.395 821.669H616.047C641.769 821.669 662.808 800.676 662.808 775.01V249.991C662.808 224.325 641.769 203.331 616.047 203.331H407.395ZM407.395 205.25H616.047C640.707 205.25 660.885 225.382 660.885 249.991V775.01C660.885 799.617 640.707 819.75 616.047 819.75H407.395C382.734 819.75 362.556 799.617 362.556 775.01V249.991C362.556 225.382 382.734 205.25 407.395 205.25Z" fill="#7D8997"/>
<path fill-rule="evenodd" clip-rule="evenodd" d="M407.395 203.373C381.695 203.373 360.675 224.346 360.675 249.991V775.01C360.675 800.654 381.695 821.627 407.395 821.627H616.047C641.746 821.627 662.767 800.654 662.767 775.01V249.991C662.767 224.346 641.746 203.373 616.047 203.373H407.395ZM407.395 205.207H616.047C640.731 205.207 660.927 225.359 660.927 249.991V775.01C660.927 799.641 640.731 819.792 616.047 819.792H407.395C382.71 819.792 362.515 799.641 362.515 775.01V249.991C362.515 225.359 382.71 205.207 407.395 205.207Z" fill="#818C99"/>
<path fill-rule="evenodd" clip-rule="evenodd" d="M407.395 203.414C381.718 203.414 360.716 224.369 360.716 249.991V775.01C360.716 800.631 381.718 821.586 407.395 821.586H616.047C641.723 821.586 662.725 800.631 662.725 775.01V249.991C662.725 224.369 641.723 203.414 616.047 203.414H407.395ZM407.395 205.168H616.047C640.754 205.168 660.968 225.337 660.968 249.991V775.01C660.968 799.663 640.754 819.833 616.047 819.833H407.395C382.688 819.833 362.474 799.663 362.474 775.01V249.991C362.474 225.337 382.688 205.168 407.395 205.168Z" fill="#848E9A"/>
<path fill-rule="evenodd" clip-rule="evenodd" d="M407.396 203.455C381.741 203.455 360.758 224.392 360.758 249.991V775.01C360.758 800.608 381.741 821.545 407.396 821.545H616.047C641.702 821.545 662.684 800.608 662.684 775.01V249.991C662.684 224.392 641.702 203.455 616.047 203.455H407.396ZM407.396 205.125H616.047C640.778 205.125 661.01 225.313 661.01 249.991V775.01C661.01 799.686 640.778 819.874 616.047 819.874H407.396C382.665 819.874 362.432 799.687 362.432 775.01V249.991C362.432 225.313 382.665 205.125 407.396 205.125Z" fill="#88919C"/>
<path fill-rule="evenodd" clip-rule="evenodd" d="M407.395 203.497C381.763 203.497 360.799 224.416 360.799 249.991V775.01C360.799 800.585 381.763 821.503 407.395 821.503H616.047C641.679 821.503 662.641 800.585 662.641 775.01V249.991C662.641 224.416 641.679 203.497 616.047 203.497H407.395ZM407.395 205.085H616.047C640.8 205.085 661.05 225.292 661.05 249.991V775.01C661.05 799.709 640.8 819.916 616.047 819.916H407.395C382.642 819.916 362.391 799.709 362.391 775.01V249.991C362.391 225.292 382.642 205.085 407.395 205.085Z" fill="#8C949D"/>
<path fill-rule="evenodd" clip-rule="evenodd" d="M407.395 203.537C381.787 203.537 360.841 224.439 360.841 249.991V775.01C360.841 800.563 381.787 821.463 407.395 821.463H616.047C641.656 821.463 662.602 800.563 662.602 775.01V249.991C662.602 224.439 641.656 203.537 616.047 203.537H407.395ZM407.395 205.044H616.047C640.823 205.044 661.093 225.269 661.093 249.991V775.01C661.093 799.732 640.823 819.957 616.047 819.957H407.395C382.62 819.957 362.35 799.732 362.35 775.01V249.991C362.35 225.269 382.62 205.044 407.395 205.044Z" fill="#90979F"/>
<path fill-rule="evenodd" clip-rule="evenodd" d="M407.395 203.579C381.81 203.579 360.882 224.46 360.882 249.991V775.01C360.882 800.539 381.81 821.421 407.395 821.421H616.047C641.632 821.421 662.559 800.539 662.559 775.01V249.991C662.559 224.46 641.632 203.579 616.047 203.579H407.395ZM407.395 205.001H616.047C640.847 205.001 661.133 225.246 661.133 249.991V775.01C661.133 799.754 640.847 819.999 616.047 819.999H407.395C382.596 819.999 362.307 799.754 362.307 775.01V249.991C362.307 225.246 382.596 205.001 407.395 205.001Z" fill="#9399A0"/>
<path fill-rule="evenodd" clip-rule="evenodd" d="M407.395 203.62C381.832 203.62 360.924 224.483 360.924 249.991V775.01C360.924 800.517 381.832 821.38 407.395 821.38H616.047C641.61 821.38 662.519 800.517 662.519 775.01V249.991C662.519 224.483 641.61 203.62 616.047 203.62H407.395ZM407.395 204.962H616.047C640.869 204.962 661.175 225.223 661.175 249.991V775.01C661.175 799.778 640.869 820.04 616.047 820.04H407.395C382.573 820.04 362.267 799.778 362.267 775.01V249.991C362.267 225.223 382.573 204.962 407.395 204.962Z" fill="#979CA2"/>
<path fill-rule="evenodd" clip-rule="evenodd" d="M407.395 203.662C381.855 203.662 360.965 224.506 360.965 249.991V775.01C360.965 800.494 381.855 821.338 407.395 821.338H616.047C641.586 821.338 662.476 800.494 662.476 775.01V249.991C662.476 224.506 641.586 203.662 616.047 203.662H407.395ZM407.395 204.918H616.047C640.891 204.918 661.216 225.2 661.216 249.991V775.01C661.216 799.8 640.891 820.082 616.047 820.082H407.395C382.55 820.082 362.224 799.8 362.224 775.01V249.991C362.224 225.2 382.55 204.918 407.395 204.918Z" fill="#9B9FA3"/>
<path fill-rule="evenodd" clip-rule="evenodd" d="M407.395 203.703C381.878 203.703 361.007 224.529 361.007 249.991V775.01C361.007 800.471 381.878 821.297 407.395 821.297H616.047C641.563 821.297 662.436 800.471 662.436 775.01V249.991C662.436 224.529 641.563 203.703 616.047 203.703H407.395ZM407.395 204.879H616.047C640.914 204.879 661.258 225.179 661.258 249.991V775.01C661.258 799.823 640.914 820.122 616.047 820.122H407.395C382.528 820.122 362.184 799.823 362.184 775.01V249.991C362.184 225.176 382.528 204.879 407.395 204.879Z" fill="#9FA2A4"/>
<path fill-rule="evenodd" clip-rule="evenodd" d="M407.396 203.745C381.902 203.745 361.048 224.553 361.048 249.991V775.01C361.048 800.449 381.902 821.256 407.396 821.256H616.047C641.54 821.256 662.393 800.449 662.393 775.01V249.991C662.393 224.553 641.54 203.745 616.047 203.745H407.396ZM407.396 204.836H616.047C640.937 204.836 661.301 225.155 661.301 249.991V775.01C661.301 799.846 640.937 820.165 616.047 820.165H407.396C382.505 820.165 362.142 799.847 362.142 775.01V249.991C362.142 225.155 382.505 204.836 407.396 204.836Z" fill="#A2A4A6"/>
<path fill-rule="evenodd" clip-rule="evenodd" d="M407.395 203.786C381.924 203.786 361.089 224.576 361.089 249.991V775.01C361.089 800.426 381.924 821.214 407.395 821.214H616.047C641.518 821.214 662.352 800.426 662.352 775.01V249.991C662.352 224.576 641.518 203.786 616.047 203.786H407.395ZM407.395 204.796H616.047C640.96 204.796 661.341 225.132 661.341 249.991V775.01C661.341 799.869 640.96 820.206 616.047 820.206H407.395C382.481 820.206 362.1 799.869 362.1 775.01V249.991C362.1 225.132 382.481 204.796 407.395 204.796Z" fill="#A6A7A7"/>
<path fill-rule="evenodd" clip-rule="evenodd" d="M407.395 203.828C381.946 203.828 361.131 224.598 361.131 249.991V775.01C361.131 800.402 381.946 821.173 407.395 821.173H616.047C641.495 821.173 662.31 800.402 662.31 775.01V249.991C662.31 224.598 641.495 203.828 616.047 203.828H407.395ZM407.395 204.753H616.047C640.983 204.753 661.384 225.109 661.384 249.991V775.01C661.384 799.891 640.983 820.246 616.047 820.246H407.395C382.459 820.246 362.059 799.891 362.059 775.01V249.991C362.059 225.109 382.459 204.753 407.395 204.753Z" fill="#AAAAA9"/>
<path fill-rule="evenodd" clip-rule="evenodd" d="M407.395 203.868C381.969 203.868 361.172 224.619 361.172 249.991V775.01C361.172 800.38 381.969 821.131 407.395 821.131H616.047C641.473 821.131 662.27 800.38 662.27 775.01V249.991C662.27 224.619 641.473 203.868 616.047 203.868H407.395ZM407.395 204.712H616.047C641.006 204.712 661.424 225.086 661.424 249.991V775.01C661.424 799.914 641.006 820.288 616.047 820.288H407.395C382.436 820.288 362.018 799.914 362.018 775.01V249.991C362.018 225.086 382.436 204.712 407.395 204.712Z" fill="#AEADAA"/>
<path fill-rule="evenodd" clip-rule="evenodd" d="M407.395 203.912C381.992 203.912 361.213 224.643 361.213 249.991V775.01C361.213 800.357 381.992 821.09 407.395 821.09H616.047C641.449 821.09 662.227 800.357 662.227 775.01V249.991C662.227 224.643 641.449 203.912 616.047 203.912H407.395ZM407.395 204.67H616.047C641.029 204.67 661.466 225.063 661.466 249.991V775.01C661.466 799.937 641.029 820.329 616.047 820.329H407.395C382.413 820.329 361.976 799.937 361.976 775.01V249.991C361.976 225.063 382.413 204.67 407.395 204.67Z" fill="#B1AFAC"/>
<path fill-rule="evenodd" clip-rule="evenodd" d="M407.395 203.951C382.016 203.951 361.255 224.666 361.255 249.991V775.01C361.255 800.334 382.016 821.049 407.395 821.049H616.047C641.426 821.049 662.187 800.334 662.187 775.01V249.991C662.187 224.666 641.426 203.951 616.047 203.951H407.395ZM407.395 204.63H616.047C641.05 204.63 661.507 225.039 661.507 249.991V775.01C661.507 799.96 641.05 820.371 616.047 820.371H407.395C382.39 820.371 361.935 799.96 361.935 775.01V249.991C361.935 225.039 382.39 204.63 407.395 204.63Z" fill="#B5B2AD"/>
<path d="M407.395 204.686H616.047C628.533 204.686 639.885 209.782 648.114 217.992C656.343 226.204 661.451 237.531 661.451 249.991V775.01C661.451 787.469 656.343 798.796 648.114 807.008C639.885 815.219 628.533 820.316 616.047 820.316H407.395C394.908 820.316 383.556 815.219 375.327 807.008C367.098 798.796 361.99 787.469 361.99 775.01V249.991C361.99 237.531 367.098 226.204 375.327 217.992C383.556 209.782 394.908 204.686 407.395 204.686ZM616.047 206.477H407.395C395.404 206.477 384.502 211.372 376.597 219.259C368.693 227.148 363.786 238.026 363.786 249.991V775.01C363.786 786.976 368.693 797.854 376.597 805.741C384.502 813.628 395.404 818.524 407.395 818.524H616.047C628.038 818.524 638.941 813.628 646.844 805.741C654.75 797.854 659.655 786.976 659.655 775.01V249.991C659.655 238.026 654.75 227.148 646.844 219.259C638.941 211.372 628.038 206.477 616.047 206.477Z" fill="#1D2E3D"/>
</svg>
